{
.appVersion = "3091";
DisplayStrings = (
"/VowelAa.GGondi/VowelI.GGondi/VowelIi.GGondi/VowelU.GGondi/VowelUu.GGondi/VowelEe.GGondi/VowelAi.GGondi/VowelOo.GGondi/VowelAu.GGondi \012/Ya.GGondi/Va.GGondi/Ba.GGondi/Bha.GGondi/Ma.GGondi/Ka.GGondi/Kha.GGondi/Ta.GGondi/Tha.GGondi/La.GGondi \012/Ga.GGondi/Gha.GGondi/Da.GGondi/Dha.GGondi/Na.GGondi/Ca.GGondi/Cha.GGondi/Tta.GGondi/Ttha.GGondi/Lla.GGondi/Ja.GGondi \012/Jha.GGondi/Dda.GGondi/Ddha.GGondi/Nga.GGondi/Pa.GGondi/Pha.GGondi/Ra.GGondi/Sa.GGondi/MatraAa.GGondi/MatraI.GGondi/MatraIi.GGondi/MatraU.GGondi/MatraUu.GGondi/MatraOo.GGondi/MatraAu.GGondi",
"/MatraI_alt1.GGondi/MatraI_alt2.GGondi/MatraIi_alt1.GGondi/MatraIi_alt2.GGondi",
"/MatraAa.GGondi/MatraI.GGondi/MatraAa.GGondi/MatraI_alt1.GGondi/MatraAa.GGondi/MatraI_alt2.GGondi/MatraAa.GGondi/MatraIi_alt1.GGondi/MatraAa.GGondi/MatraIi_alt2.GGondi/MatraAa.GGondi",

glyphs = (
{
color = 3;
glyphname = VowelAa.GGondi;
lastChange = "2021-10-18 08:30:41 +0000";
layers = (
{
anchors = (
{
name = top;
position = "{663, 656}";
}
);
background = {
anchors = (
{
name = top;
position = "{663, 656}";
}
);
paths = (
{
closed = 1;
nodes = (
"624 561 LINE",
"624 442 LINE SMOOTH",
"624 399 OFFCURVE",
"634 367 OFFCURVE",
"654 342 CURVE",
"635 317 OFFCURVE",
"624 283 OFFCURVE",
"624 242 CURVE SMOOTH",
"624 193 LINE SMOOTH",
"624 127 OFFCURVE",
"594 83 OFFCURVE",
"524 83 CURVE SMOOTH",
"461 83 OFFCURVE",
"419 125 OFFCURVE",
"419 189 CURVE SMOOTH",
"419 468 LINE",
"341 468 LINE",
"341 188 LINE SMOOTH",
"341 122 OFFCURVE",
"292 83 OFFCURVE",
"229 83 CURVE SMOOTH",
"172 83 OFFCURVE",
"126 119 OFFCURVE",
"126 187 CURVE SMOOTH",
"126 252 OFFCURVE",
"170 288 OFFCURVE",
"227 288 CURVE SMOOTH",
"231 288 OFFCURVE",
"234 288 OFFCURVE",
"241 287 CURVE",
"248 354 LINE",
"241 355 OFFCURVE",
"231 356 OFFCURVE",
"219 356 CURVE SMOOTH",
"131 356 OFFCURVE",
"46 299 OFFCURVE",
"46 187 CURVE SMOOTH",
"46 77 OFFCURVE",
"127 15 OFFCURVE",
"223 15 CURVE SMOOTH",
"293 15 OFFCURVE",
"351 41 OFFCURVE",
"378 99 CURVE",
"401 45 OFFCURVE",
"458 15 OFFCURVE",
"528 15 CURVE SMOOTH",
"638 15 OFFCURVE",
"702 79 OFFCURVE",
"702 185 CURVE SMOOTH",
"702 259 LINE",
"721 236 OFFCURVE",
"748 224 OFFCURVE",
"782 224 CURVE SMOOTH",
"845 224 OFFCURVE",
"891 263 OFFCURVE",
"891 329 CURVE SMOOTH",
"891 401 OFFCURVE",
"839 437 OFFCURVE",
"784 441 CURVE",
"752 441 OFFCURVE",
"721 429 OFFCURVE",
"701 406 CURVE",
"701 561 LINE",
"940 561 LINE",
"940 622 LINE",
"-10 622 LINE",
"-10 561 LINE"
);
},
{
closed = 1;
nodes = (
"722 364 OFFCURVE",
"748 376 OFFCURVE",
"772 376 CURVE SMOOTH",
"801 376 OFFCURVE",
"819 357 OFFCURVE",
"819 330 CURVE SMOOTH",
"819 304 OFFCURVE",
"801 285 OFFCURVE",
"772 285 CURVE SMOOTH",
"745 285 OFFCURVE",
"720 306 OFFCURVE",
"708 329 CURVE"
);
}
);
};
layerId = "1D9335A4-69BC-4202-817B-D13DAA30F854";
paths = (
{
closed = 1;
nodes = (
"293 15 OFFCURVE",
"351 41 OFFCURVE",
"378 99 CURVE",
"401 45 OFFCURVE",
"458 15 OFFCURVE",
"528 15 CURVE SMOOTH",
"638 15 OFFCURVE",
"702 79 OFFCURVE",
"702 185 CURVE SMOOTH",
"702 259 LINE",
"721 236 OFFCURVE",
"748 224 OFFCURVE",
"782 224 CURVE SMOOTH",
"845 224 OFFCURVE",
"891 263 OFFCURVE",
"891 329 CURVE SMOOTH",
"891 401 OFFCURVE",
"839 437 OFFCURVE",
"784 441 CURVE",
"752 441 OFFCURVE",
"721 429 OFFCURVE",
"701 406 CURVE",
"701 561 LINE",
"940 561 LINE",
"940 622 LINE",
"-10 622 LINE",
"-10 561 LINE",
"624 561 LINE",
"624 442 LINE SMOOTH",
"624 399 OFFCURVE",
"634 367 OFFCURVE",
"654 342 CURVE",
"635 317 OFFCURVE",
"624 283 OFFCURVE",
"624 242 CURVE SMOOTH",
"624 193 LINE SMOOTH",
"624 127 OFFCURVE",
"594 83 OFFCURVE",
"524 83 CURVE SMOOTH",
"461 83 OFFCURVE",
"419 125 OFFCURVE",
"419 189 CURVE SMOOTH",
"419 468 LINE",
"341 468 LINE",
"341 188 LINE SMOOTH",
"341 122 OFFCURVE",
"292 83 OFFCURVE",
"229 83 CURVE SMOOTH",
"172 83 OFFCURVE",
"126 119 OFFCURVE",
"126 187 CURVE SMOOTH",
"126 252 OFFCURVE",
"170 288 OFFCURVE",
"227 288 CURVE SMOOTH",
"231 288 OFFCURVE",
"234 288 OFFCURVE",
"241 287 CURVE",
"248 354 LINE",
"241 355 OFFCURVE",
"231 356 OFFCURVE",
"219 356 CURVE SMOOTH",
"131 356 OFFCURVE",
"46 299 OFFCURVE",
"46 187 CURVE SMOOTH",
"46 77 OFFCURVE",
"127 15 OFFCURVE",
"223 15 CURVE SMOOTH"
);
},
{
closed = 1;
nodes = (
"745 285 OFFCURVE",
"720 306 OFFCURVE",
"708 329 CURVE",
"722 364 OFFCURVE",
"748 376 OFFCURVE",
"772 376 CURVE SMOOTH",
"801 376 OFFCURVE",
"819 357 OFFCURVE",
"819 330 CURVE SMOOTH",
"819 304 OFFCURVE",
"801 285 OFFCURVE",
"772 285 CURVE SMOOTH"
);
}
);
width = 930;
},
{
anchors = (
{
name = top;
position = "{655, 662}";
}
);
layerId = "37631205-D7B2-4E6B-9DD1-7005090CBFCA";
paths = (
{
closed = 1;
nodes = (
"302 15 OFFCURVE",
"351 50 OFFCURVE",
"378 89 CURVE",
"403 50 OFFCURVE",
"448 15 OFFCURVE",
"528 15 CURVE SMOOTH",
"618 15 OFFCURVE",
"714 75 OFFCURVE",
"714 194 CURVE SMOOTH",
"714 231 LINE",
"745 202 OFFCURVE",
"766 190 OFFCURVE",
"809 190 CURVE SMOOTH",
"876 190 OFFCURVE",
"938 234 OFFCURVE",
"938 329 CURVE SMOOTH",
"938 425 OFFCURVE",
"876 471 OFFCURVE",
"811 471 CURVE SMOOTH",
"768 471 OFFCURVE",
"741 456 OFFCURVE",
"714 431 CURVE",
"714 521 LINE",
"985 521 LINE",
"985 622 LINE",
"-10 622 LINE",
"-10 521 LINE",
"580 521 LINE",
"580 436 LINE SMOOTH",
"580 393 OFFCURVE",
"590 361 OFFCURVE",
"630 336 CURVE",
"591 311 OFFCURVE",
"580 277 OFFCURVE",
"580 236 CURVE SMOOTH",
"580 194 LINE SMOOTH",
"580 151 OFFCURVE",
"556 125 OFFCURVE",
"514 125 CURVE SMOOTH",
"476 125 OFFCURVE",
"447 152 OFFCURVE",
"447 194 CURVE SMOOTH",
"447 468 LINE",
"313 468 LINE",
"313 194 LINE SMOOTH",
"313 152 OFFCURVE",
"286 125 OFFCURVE",
"245 125 CURVE SMOOTH",
"204 125 OFFCURVE",
"177 152 OFFCURVE",
"177 195 CURVE SMOOTH",
"177 235 OFFCURVE",
"204 260 OFFCURVE",
"241 260 CURVE SMOOTH",
"250 260 OFFCURVE",
"257 259 OFFCURVE",
"261 257 CURVE",
"268 366 LINE",
"262 367 OFFCURVE",
"250 369 OFFCURVE",
"238 369 CURVE SMOOTH",
"118 369 OFFCURVE",
"42 305 OFFCURVE",
"42 195 CURVE SMOOTH",
"42 87 OFFCURVE",
"121 15 OFFCURVE",
"228 15 CURVE SMOOTH"
);
},
{
closed = 1;
nodes = (
"748 295 OFFCURVE",
"733 307 OFFCURVE",
"714 329 CURVE",
"732 353 OFFCURVE",
"751 366 OFFCURVE",
"770 366 CURVE SMOOTH",
"792 366 OFFCURVE",
"808 352 OFFCURVE",
"808 330 CURVE SMOOTH",
"808 309 OFFCURVE",
"792 295 OFFCURVE",
"770 295 CURVE SMOOTH"
);
}
);
width = 975;
}
);
unicode = 11D61;
category = Letter;
},
{
color = 4;
glyphname = VowelI.GGondi;
lastChange = "2021-10-18 08:30:41 +0000";
layers = (
{
background = {
paths = (
{
closed = 1;
nodes = (
"328 561 LINE",
"328 191 LINE SMOOTH",
"328 123 OFFCURVE",
"284 83 OFFCURVE",
"220 83 CURVE SMOOTH",
"156 83 OFFCURVE",
"111 125 OFFCURVE",
"111 192 CURVE SMOOTH",
"111 255 OFFCURVE",
"152 298 OFFCURVE",
"215 298 CURVE SMOOTH",
"225 298 OFFCURVE",
"231 298 OFFCURVE",
"239 297 CURVE",
"246 363 LINE",
"234 365 OFFCURVE",
"223 366 OFFCURVE",
"207 366 CURVE SMOOTH",
"116 366 OFFCURVE",
"31 308 OFFCURVE",
"31 192 CURVE SMOOTH",
"31 81 OFFCURVE",
"111 15 OFFCURVE",
"220 15 CURVE SMOOTH",
"336 15 OFFCURVE",
"406 83 OFFCURVE",
"406 191 CURVE SMOOTH",
"406 561 LINE",
"654 561 LINE",
"654 152 LINE SMOOTH",
"654 115 OFFCURVE",
"634 93 OFFCURVE",
"600 93 CURVE SMOOTH",
"567 93 OFFCURVE",
"548 116 OFFCURVE",
"546 155 CURVE",
"468 155 LINE",
"469 73 OFFCURVE",
"517 25 OFFCURVE",
"600 25 CURVE SMOOTH",
"685 25 OFFCURVE",
"732 75 OFFCURVE",
"732 152 CURVE SMOOTH",
"732 561 LINE",
"842 561 LINE",
"842 622 LINE",
"732 622 LINE",
"732 638 LINE SMOOTH",
"732 762 OFFCURVE",
"645 835 OFFCURVE",
"530 835 CURVE SMOOTH",
"423 835 OFFCURVE",
"328 765 OFFCURVE",
"328 637 CURVE SMOOTH",
"328 622 LINE",
"-10 622 LINE",
"-10 561 LINE"
);
},
{
closed = 1;
nodes = (
"406 635 LINE SMOOTH",
"406 718 OFFCURVE",
"455 767 OFFCURVE",
"530 767 CURVE SMOOTH",
"606 767 OFFCURVE",
"654 719 OFFCURVE",
"654 638 CURVE SMOOTH",
"654 622 LINE",
"406 622 LINE"
);
}
);
};
layerId = "1D9335A4-69BC-4202-817B-D13DAA30F854";
paths = (
{
closed = 1;
nodes = (
"336 15 OFFCURVE",
"406 83 OFFCURVE",
"406 191 CURVE SMOOTH",
"406 561 LINE",
"654 561 LINE",
"654 152 LINE SMOOTH",
"654 115 OFFCURVE",
"634 93 OFFCURVE",
"600 93 CURVE SMOOTH",
"567 93 OFFCURVE",
"548 116 OFFCURVE",
"546 155 CURVE",
"468 155 LINE",
"469 73 OFFCURVE",
"517 25 OFFCURVE",
"600 25 CURVE SMOOTH",
"685 25 OFFCURVE",
"732 75 OFFCURVE",
"732 152 CURVE SMOOTH",
"732 561 LINE",
"842 561 LINE",
"842 622 LINE",
"732 622 LINE",
"732 638 LINE SMOOTH",
"732 762 OFFCURVE",
"645 835 OFFCURVE",
"530 835 CURVE SMOOTH",
"423 835 OFFCURVE",
"328 765 OFFCURVE",
"328 637 CURVE SMOOTH",
"328 622 LINE",
"-10 622 LINE",
"-10 561 LINE",
"328 561 LINE",
"328 191 LINE SMOOTH",
"328 123 OFFCURVE",
"284 83 OFFCURVE",
"220 83 CURVE SMOOTH",
"156 83 OFFCURVE",
"111 125 OFFCURVE",
"111 192 CURVE SMOOTH",
"111 255 OFFCURVE",
"152 298 OFFCURVE",
"215 298 CURVE SMOOTH",
"225 298 OFFCURVE",
"231 298 OFFCURVE",
"239 297 CURVE",
"246 363 LINE",
"234 365 OFFCURVE",
"223 366 OFFCURVE",
"207 366 CURVE SMOOTH",
"116 366 OFFCURVE",
"31 308 OFFCURVE",
"31 192 CURVE SMOOTH",
"31 81 OFFCURVE",
"111 15 OFFCURVE",
"220 15 CURVE SMOOTH"
);
},
{
closed = 1;
nodes = (
"406 635 LINE SMOOTH",
"406 718 OFFCURVE",
"455 767 OFFCURVE",
"530 767 CURVE SMOOTH",
"606 767 OFFCURVE",
"654 719 OFFCURVE",
"654 638 CURVE SMOOTH",
"654 622 LINE",
"406 622 LINE"
);
}
);
width = 832;
},
{
layerId = "37631205-D7B2-4E6B-9DD1-7005090CBFCA";
paths = (
{
closed = 1;
nodes = (
"336 15 OFFCURVE",
"421 73 OFFCURVE",
"421 205 CURVE SMOOTH",
"421 521 LINE",
"657 521 LINE",
"657 194 LINE SMOOTH",
"657 142 OFFCURVE",
"639 125 OFFCURVE",
"609 125 CURVE SMOOTH",
"578 125 OFFCURVE",
"561 142 OFFCURVE",
"561 169 CURVE",
"436 169 LINE",
"436 86 OFFCURVE",
"483 15 OFFCURVE",
"609 15 CURVE SMOOTH",
"706 15 OFFCURVE",
"791 73 OFFCURVE",
"791 204 CURVE SMOOTH",
"791 521 LINE",
"887 521 LINE",
"887 622 LINE",
"791 622 LINE",
"791 638 LINE SMOOTH",
"791 772 OFFCURVE",
"684 835 OFFCURVE",
"540 835 CURVE SMOOTH",
"404 835 OFFCURVE",
"287 775 OFFCURVE",
"287 637 CURVE SMOOTH",
"287 622 LINE",
"-10 622 LINE",
"-10 521 LINE",
"287 521 LINE",
"287 194 LINE SMOOTH",
"287 152 OFFCURVE",
"259 125 OFFCURVE",
"219 125 CURVE SMOOTH",
"178 125 OFFCURVE",
"151 152 OFFCURVE",
"151 195 CURVE SMOOTH",
"151 235 OFFCURVE",
"178 260 OFFCURVE",
"215 260 CURVE SMOOTH",
"224 260 OFFCURVE",
"231 259 OFFCURVE",
"235 257 CURVE",
"242 366 LINE",
"236 367 OFFCURVE",
"224 369 OFFCURVE",
"212 369 CURVE SMOOTH",
"92 369 OFFCURVE",
"16 305 OFFCURVE",
"16 195 CURVE SMOOTH",
"16 87 OFFCURVE",
"95 15 OFFCURVE",
"219 15 CURVE SMOOTH"
);
},
{
closed = 1;
nodes = (
"421 635 LINE SMOOTH",
"421 698 OFFCURVE",
"465 725 OFFCURVE",
"540 725 CURVE SMOOTH",
"616 725 OFFCURVE",
"657 699 OFFCURVE",
"657 638 CURVE SMOOTH",
"657 622 LINE",
"421 622 LINE"
);
}
);
width = 877;
}
);
unicode = 11D62;
category = Letter;
},
{
color = 4;
glyphname = VowelIi.GGondi;
lastChange = "2021-10-18 08:30:41 +0000";
layers = (
{
background = {
paths = (
{
closed = 1;
nodes = (
"328 561 LINE",
"328 191 LINE SMOOTH",
"328 123 OFFCURVE",
"284 83 OFFCURVE",
"220 83 CURVE SMOOTH",
"156 83 OFFCURVE",
"111 125 OFFCURVE",
"111 192 CURVE SMOOTH",
"111 255 OFFCURVE",
"152 298 OFFCURVE",
"215 298 CURVE SMOOTH",
"225 298 OFFCURVE",
"231 298 OFFCURVE",
"239 297 CURVE",
"246 363 LINE",
"234 365 OFFCURVE",
"223 366 OFFCURVE",
"207 366 CURVE SMOOTH",
"116 366 OFFCURVE",
"31 308 OFFCURVE",
"31 192 CURVE SMOOTH",
"31 81 OFFCURVE",
"111 15 OFFCURVE",
"220 15 CURVE SMOOTH",
"336 15 OFFCURVE",
"406 83 OFFCURVE",
"406 191 CURVE SMOOTH",
"406 561 LINE",
"594 561 LINE",
"594 25 LINE",
"672 25 LINE",
"672 262 LINE",
"692 274 OFFCURVE",
"718 285 OFFCURVE",
"754 285 CURVE SMOOTH",
"814 285 OFFCURVE",
"857 245 OFFCURVE",
"857 177 CURVE SMOOTH",
"857 115 OFFCURVE",
"842 69 OFFCURVE",
"828 25 CURVE",
"906 25 LINE",
"923 66 OFFCURVE",
"937 125 OFFCURVE",
"937 177 CURVE SMOOTH",
"937 299 OFFCURVE",
"854 353 OFFCURVE",
"771 353 CURVE SMOOTH",
"724 353 OFFCURVE",
"695 342 OFFCURVE",
"672 330 CURVE",
"672 561 LINE",
"1010 561 LINE",
"1010 622 LINE",
"672 622 LINE",
"672 668 LINE SMOOTH",
"672 773 OFFCURVE",
"598 835 OFFCURVE",
"500 835 CURVE SMOOTH",
"409 835 OFFCURVE",
"328 776 OFFCURVE",
"328 667 CURVE SMOOTH",
"328 622 LINE",
"-10 622 LINE",
"-10 561 LINE"
);
},
{
closed = 1;
nodes = (
"406 665 LINE SMOOTH",
"406 729 OFFCURVE",
"443 767 OFFCURVE",
"500 767 CURVE SMOOTH",
"558 767 OFFCURVE",
"594 730 OFFCURVE",
"594 668 CURVE SMOOTH",
"594 622 LINE",
"406 622 LINE"
);
}
);
};
layerId = "1D9335A4-69BC-4202-817B-D13DAA30F854";
paths = (
{
closed = 1;
nodes = (
"336 15 OFFCURVE",
"406 83 OFFCURVE",
"406 191 CURVE SMOOTH",
"406 561 LINE",
"594 561 LINE",
"594 25 LINE",
"672 25 LINE",
"672 262 LINE",
"692 274 OFFCURVE",
"718 285 OFFCURVE",
"754 285 CURVE SMOOTH",
"814 285 OFFCURVE",
"857 245 OFFCURVE",
"857 177 CURVE SMOOTH",
"857 115 OFFCURVE",
"842 69 OFFCURVE",
"828 25 CURVE",
"906 25 LINE",
"923 66 OFFCURVE",
"937 125 OFFCURVE",
"937 177 CURVE SMOOTH",
"937 299 OFFCURVE",
"854 353 OFFCURVE",
"771 353 CURVE SMOOTH",
"724 353 OFFCURVE",
"695 342 OFFCURVE",
"672 330 CURVE",
"672 561 LINE",
"1010 561 LINE",
"1010 622 LINE",
"672 622 LINE",
"672 668 LINE SMOOTH",
"672 773 OFFCURVE",
"598 835 OFFCURVE",
"500 835 CURVE SMOOTH",
"409 835 OFFCURVE",
"328 776 OFFCURVE",
"328 667 CURVE SMOOTH",
"328 622 LINE",
"-10 622 LINE",
"-10 561 LINE",
"328 561 LINE",
"328 191 LINE SMOOTH",
"328 123 OFFCURVE",
"284 83 OFFCURVE",
"220 83 CURVE SMOOTH",
"156 83 OFFCURVE",
"111 125 OFFCURVE",
"111 192 CURVE SMOOTH",
"111 255 OFFCURVE",
"152 298 OFFCURVE",
"215 298 CURVE SMOOTH",
"225 298 OFFCURVE",
"231 298 OFFCURVE",
"239 297 CURVE",
"246 363 LINE",
"234 365 OFFCURVE",
"223 366 OFFCURVE",
"207 366 CURVE SMOOTH",
"116 366 OFFCURVE",
"31 308 OFFCURVE",
"31 192 CURVE SMOOTH",
"31 81 OFFCURVE",
"111 15 OFFCURVE",
"220 15 CURVE SMOOTH"
);
},
{
closed = 1;
nodes = (
"406 665 LINE SMOOTH",
"406 729 OFFCURVE",
"443 767 OFFCURVE",
"500 767 CURVE SMOOTH",
"558 767 OFFCURVE",
"594 730 OFFCURVE",
"594 668 CURVE SMOOTH",
"594 622 LINE",
"406 622 LINE"
);
}
);
width = 1000;
},
{
layerId = "37631205-D7B2-4E6B-9DD1-7005090CBFCA";
paths = (
{
closed = 1;
nodes = (
"336 15 OFFCURVE",
"421 73 OFFCURVE",
"421 205 CURVE SMOOTH",
"421 521 LINE",
"577 521 LINE",
"577 25 LINE",
"711 25 LINE",
"711 244 LINE",
"731 256 OFFCURVE",
"757 265 OFFCURVE",
"783 265 CURVE SMOOTH",
"825 265 OFFCURVE",
"846 241 OFFCURVE",
"846 187 CURVE SMOOTH",
"846 125 OFFCURVE",
"829 69 OFFCURVE",
"809 25 CURVE",
"942 25 LINE",
"965 66 OFFCURVE",
"981 135 OFFCURVE",
"981 187 CURVE SMOOTH",
"981 328 OFFCURVE",
"912 375 OFFCURVE",
"812 375 CURVE SMOOTH",
"764 375 OFFCURVE",
"730 363 OFFCURVE",
"711 351 CURVE",
"711 521 LINE",
"1057 521 LINE",
"1057 622 LINE",
"711 622 LINE",
"711 638 LINE SMOOTH",
"711 772 OFFCURVE",
"624 835 OFFCURVE",
"500 835 CURVE SMOOTH",
"384 835 OFFCURVE",
"287 775 OFFCURVE",
"287 637 CURVE SMOOTH",
"287 622 LINE",
"-10 622 LINE",
"-10 521 LINE",
"287 521 LINE",
"287 194 LINE SMOOTH",
"287 152 OFFCURVE",
"259 125 OFFCURVE",
"219 125 CURVE SMOOTH",
"178 125 OFFCURVE",
"151 152 OFFCURVE",
"151 195 CURVE SMOOTH",
"151 235 OFFCURVE",
"178 260 OFFCURVE",
"215 260 CURVE SMOOTH",
"224 260 OFFCURVE",
"231 259 OFFCURVE",
"235 257 CURVE",
"242 366 LINE",
"236 367 OFFCURVE",
"224 369 OFFCURVE",
"212 369 CURVE SMOOTH",
"92 369 OFFCURVE",
"16 305 OFFCURVE",
"16 195 CURVE SMOOTH",
"16 87 OFFCURVE",
"95 15 OFFCURVE",
"219 15 CURVE SMOOTH"
);
},
{
closed = 1;
nodes = (
"421 635 LINE SMOOTH",
"421 688 OFFCURVE",
"445 725 OFFCURVE",
"500 725 CURVE SMOOTH",
"556 725 OFFCURVE",
"577 689 OFFCURVE",
"577 638 CURVE SMOOTH",
"577 622 LINE",
"421 622 LINE"
);
}
);
width = 1047;
}
);
unicode = 11D63;
category = Letter;
},
{
color = 7;
glyphname = VowelU.GGondi;
lastChange = "2021-10-18 08:30:41 +0000";
layers = (
{
anchors = (
{
name = top;
position = "{616, 656}";
}
);
background = {
anchors = (
{
name = top;
position = "{616, 656}";
}
);
paths = (
{
closed = 1;
nodes = (
"90 561 LINE",
"90 408 LINE",
"268 408 LINE SMOOTH",
"301 408 OFFCURVE",
"320 388 OFFCURVE",
"320 358 CURVE SMOOTH",
"320 332 OFFCURVE",
"303 316 OFFCURVE",
"275 306 CURVE SMOOTH",
"187 274 LINE SMOOTH",
"116 248 OFFCURVE",
"74 203 OFFCURVE",
"74 135 CURVE SMOOTH",
"74 48 OFFCURVE",
"144 2 OFFCURVE",
"263 2 CURVE SMOOTH",
"332 2 OFFCURVE",
"379 16 OFFCURVE",
"414 29 CURVE",
"396 92 LINE",
"362 81 OFFCURVE",
"314 69 OFFCURVE",
"268 69 CURVE SMOOTH",
"182 69 OFFCURVE",
"152 98 OFFCURVE",
"152 138 CURVE SMOOTH",
"152 180 OFFCURVE",
"178 196 OFFCURVE",
"219 211 CURVE SMOOTH",
"305 242 LINE SMOOTH",
"345 256 OFFCURVE",
"374 281 OFFCURVE",
"387 312 CURVE",
"447 312 LINE SMOOTH",
"490 312 OFFCURVE",
"516 310 OFFCURVE",
"534 303 CURVE",
"513 240 OFFCURVE",
"497 191 OFFCURVE",
"497 143 CURVE SMOOTH",
"497 67 OFFCURVE",
"545 38 OFFCURVE",
"597 38 CURVE SMOOTH",
"658 38 OFFCURVE",
"697 75 OFFCURVE",
"697 151 CURVE SMOOTH",
"697 232 OFFCURVE",
"663 292 OFFCURVE",
"625 329 CURVE",
"644 380 OFFCURVE",
"657 454 OFFCURVE",
"657 530 CURVE SMOOTH",
"657 540 OFFCURVE",
"656 551 OFFCURVE",
"656 561 CURVE",
"799 561 LINE",
"799 622 LINE",
"-10 622 LINE",
"-10 561 LINE"
);
},
{
closed = 1;
nodes = (
"166 561 LINE",
"577 561 LINE",
"578 548 OFFCURVE",
"578 538 OFFCURVE",
"578 526 CURVE SMOOTH",
"579 479 OFFCURVE",
"570 411 OFFCURVE",
"558 364 CURVE",
"527 375 OFFCURVE",
"490 380 OFFCURVE",
"447 380 CURVE SMOOTH",
"393 380 LINE",
"383 442 OFFCURVE",
"336 475 OFFCURVE",
"266 475 CURVE SMOOTH",
"166 475 LINE"
);
},
{
closed = 1;
nodes = (
"570 178 OFFCURVE",
"578 213 OFFCURVE",
"595 270 CURVE",
"613 245 OFFCURVE",
"625 205 OFFCURVE",
"625 153 CURVE SMOOTH",
"625 118 OFFCURVE",
"615 99 OFFCURVE",
"597 99 CURVE SMOOTH",
"580 99 OFFCURVE",
"570 114 OFFCURVE",
"570 145 CURVE SMOOTH"
);
}
);
};
layerId = "1D9335A4-69BC-4202-817B-D13DAA30F854";
paths = (
{
closed = 1;
nodes = (
"332 2 OFFCURVE",
"379 16 OFFCURVE",
"414 29 CURVE",
"396 92 LINE",
"362 81 OFFCURVE",
"314 69 OFFCURVE",
"268 69 CURVE SMOOTH",
"182 69 OFFCURVE",
"152 98 OFFCURVE",
"152 138 CURVE SMOOTH",
"152 180 OFFCURVE",
"178 196 OFFCURVE",
"219 211 CURVE SMOOTH",
"305 242 LINE SMOOTH",
"345 256 OFFCURVE",
"374 281 OFFCURVE",
"387 312 CURVE",
"447 312 LINE SMOOTH",
"490 312 OFFCURVE",
"516 310 OFFCURVE",
"534 303 CURVE",
"513 240 OFFCURVE",
"497 191 OFFCURVE",
"497 143 CURVE SMOOTH",
"497 67 OFFCURVE",
"545 38 OFFCURVE",
"597 38 CURVE SMOOTH",
"658 38 OFFCURVE",
"697 75 OFFCURVE",
"697 151 CURVE SMOOTH",
"697 232 OFFCURVE",
"663 292 OFFCURVE",
"625 329 CURVE",
"644 380 OFFCURVE",
"657 454 OFFCURVE",
"657 530 CURVE SMOOTH",
"657 540 OFFCURVE",
"656 551 OFFCURVE",
"656 561 CURVE",
"799 561 LINE",
"799 622 LINE",
"-10 622 LINE",
"-10 561 LINE",
"90 561 LINE",
"90 408 LINE",
"268 408 LINE SMOOTH",
"301 408 OFFCURVE",
"320 388 OFFCURVE",
"320 358 CURVE SMOOTH",
"320 332 OFFCURVE",
"303 316 OFFCURVE",
"275 306 CURVE SMOOTH",
"187 274 LINE SMOOTH",
"116 248 OFFCURVE",
"74 203 OFFCURVE",
"74 135 CURVE SMOOTH",
"74 48 OFFCURVE",
"144 2 OFFCURVE",
"263 2 CURVE SMOOTH"
);
},
{
closed = 1;
nodes = (
"580 99 OFFCURVE",
"570 114 OFFCURVE",
"570 145 CURVE SMOOTH",
"570 178 OFFCURVE",
"578 213 OFFCURVE",
"595 270 CURVE",
"613 245 OFFCURVE",
"625 205 OFFCURVE",
"625 153 CURVE SMOOTH",
"625 118 OFFCURVE",
"615 99 OFFCURVE",
"597 99 CURVE SMOOTH"
);
},
{
closed = 1;
nodes = (
"527 375 OFFCURVE",
"490 380 OFFCURVE",
"447 380 CURVE SMOOTH",
"393 380 LINE",
"383 442 OFFCURVE",
"336 475 OFFCURVE",
"266 475 CURVE SMOOTH",
"166 475 LINE",
"166 561 LINE",
"577 561 LINE",
"578 548 OFFCURVE",
"578 538 OFFCURVE",
"578 526 CURVE SMOOTH",
"579 479 OFFCURVE",
"570 411 OFFCURVE",
"558 364 CURVE"
);
}
);
width = 789;
},
{
anchors = (
{
name = top;
position = "{658, 662}";
}
);
layerId = "37631205-D7B2-4E6B-9DD1-7005090CBFCA";
paths = (
{
closed = 1;
nodes = (
"362 2 OFFCURVE",
"419 19 OFFCURVE",
"454 33 CURVE",
"436 134 LINE",
"402 125 OFFCURVE",
"354 112 OFFCURVE",
"308 112 CURVE SMOOTH",
"235 112 OFFCURVE",
"211 130 OFFCURVE",
"211 155 CURVE SMOOTH",
"211 171 OFFCURVE",
"219 183 OFFCURVE",
"241 191 CURVE SMOOTH",
"344 229 LINE SMOOTH",
"392 247 OFFCURVE",
"423 264 OFFCURVE",
"435 296 CURVE",
"507 296 LINE SMOOTH",
"519 296 OFFCURVE",
"530 296 OFFCURVE",
"543 295 CURVE",
"505 247 OFFCURVE",
"491 212 OFFCURVE",
"491 176 CURVE SMOOTH",
"491 83 OFFCURVE",
"556 38 OFFCURVE",
"657 38 CURVE SMOOTH",
"749 38 OFFCURVE",
"822 83 OFFCURVE",
"822 182 CURVE SMOOTH",
"822 263 OFFCURVE",
"771 320 OFFCURVE",
"695 359 CURVE",
"710 403 OFFCURVE",
"717 444 OFFCURVE",
"717 490 CURVE SMOOTH",
"717 500 OFFCURVE",
"717 511 OFFCURVE",
"717 521 CURVE",
"862 521 LINE",
"862 622 LINE",
"-10 622 LINE",
"-10 521 LINE",
"91 521 LINE",
"91 375 LINE",
"282 375 LINE SMOOTH",
"305 375 OFFCURVE",
"320 372 OFFCURVE",
"320 352 CURVE SMOOTH",
"320 336 OFFCURVE",
"309 327 OFFCURVE",
"285 319 CURVE SMOOTH",
"179 283 LINE SMOOTH",
"115 261 OFFCURVE",
"76 214 OFFCURVE",
"76 144 CURVE SMOOTH",
"76 44 OFFCURVE",
"169 2 OFFCURVE",
"276 2 CURVE SMOOTH"
);
},
{
closed = 1;
nodes = (
"635 148 OFFCURVE",
"624 167 OFFCURVE",
"624 186 CURVE SMOOTH",
"624 200 OFFCURVE",
"627 227 OFFCURVE",
"650 257 CURVE",
"670 237 OFFCURVE",
"690 214 OFFCURVE",
"690 186 CURVE SMOOTH",
"690 167 OFFCURVE",
"679 148 OFFCURVE",
"657 148 CURVE SMOOTH"
);
},
{
closed = 1;
nodes = (
"556 395 OFFCURVE",
"533 396 OFFCURVE",
"507 396 CURVE SMOOTH",
"441 396 LINE",
"434 430 OFFCURVE",
"396 475 OFFCURVE",
"326 475 CURVE SMOOTH",
"225 475 LINE",
"225 521 LINE",
"588 521 LINE",
"588 508 OFFCURVE",
"588 498 OFFCURVE",
"588 486 CURVE SMOOTH",
"588 472 OFFCURVE",
"586 432 OFFCURVE",
"577 393 CURVE"
);
}
);
width = 852;
}
);
unicode = 11D64;
category = Letter;
subCategory = Other;
},
{
color = 7;
glyphname = VowelUu.GGondi;
lastChange = "2021-10-18 08:30:41 +0000";
layers = (
{
anchors = (
{
name = top;
position = "{650, 656}";
}
);
background = {
anchors = (
{
name = top;
position = "{650, 656}";
}
);
paths = (
{
closed = 1;
nodes = (
"90 561 LINE",
"90 408 LINE",
"318 408 LINE SMOOTH",
"343 408 OFFCURVE",
"350 393 OFFCURVE",
"350 379 CURVE SMOOTH",
"350 362 OFFCURVE",
"333 354 OFFCURVE",
"305 348 CURVE SMOOTH",
"213 328 LINE SMOOTH",
"128 310 OFFCURVE",
"80 286 OFFCURVE",
"80 223 CURVE SMOOTH",
"80 168 OFFCURVE",
"108 144 OFFCURVE",
"140 134 CURVE",
"109 122 OFFCURVE",
"91 89 OFFCURVE",
"91 58 CURVE SMOOTH",
"91 -19 OFFCURVE",
"147 -68 OFFCURVE",
"273 -68 CURVE SMOOTH",
"349 -68 OFFCURVE",
"397 -48 OFFCURVE",
"419 -35 CURVE",
"398 20 LINE",
"381 11 OFFCURVE",
"333 -8 OFFCURVE",
"278 -8 CURVE SMOOTH",
"179 -8 OFFCURVE",
"166 28 OFFCURVE",
"166 57 CURVE SMOOTH",
"166 85 OFFCURVE",
"180 103 OFFCURVE",
"216 103 CURVE SMOOTH",
"380 103 LINE",
"380 168 LINE",
"203 168 LINE SMOOTH",
"174 168 OFFCURVE",
"158 189 OFFCURVE",
"158 217 CURVE SMOOTH",
"158 248 OFFCURVE",
"184 261 OFFCURVE",
"226 270 CURVE SMOOTH",
"316 290 LINE SMOOTH",
"355 298 OFFCURVE",
"383 309 OFFCURVE",
"400 322 CURVE",
"481 322 LINE SMOOTH",
"520 322 OFFCURVE",
"546 317 OFFCURVE",
"569 308 CURVE",
"548 242 OFFCURVE",
"531 192 OFFCURVE",
"531 143 CURVE SMOOTH",
"531 67 OFFCURVE",
"579 38 OFFCURVE",
"631 38 CURVE SMOOTH",
"692 38 OFFCURVE",
"731 75 OFFCURVE",
"731 151 CURVE SMOOTH",
"731 232 OFFCURVE",
"697 292 OFFCURVE",
"659 329 CURVE",
"678 381 OFFCURVE",
"691 453 OFFCURVE",
"691 540 CURVE",
"690 561 LINE",
"833 561 LINE",
"833 622 LINE",
"-10 622 LINE",
"-10 561 LINE"
);
},
{
closed = 1;
nodes = (
"166 561 LINE",
"612 561 LINE",
"612 536 LINE SMOOTH",
"613 478 OFFCURVE",
"604 416 OFFCURVE",
"593 367 CURVE",
"564 381 OFFCURVE",
"527 390 OFFCURVE",
"481 390 CURVE SMOOTH",
"422 390 LINE",
"419 437 OFFCURVE",
"383 475 OFFCURVE",
"316 475 CURVE SMOOTH",
"166 475 LINE"
);
},
{
closed = 1;
nodes = (
"604 178 OFFCURVE",
"612 213 OFFCURVE",
"629 270 CURVE",
"647 245 OFFCURVE",
"659 205 OFFCURVE",
"659 153 CURVE SMOOTH",
"659 118 OFFCURVE",
"649 99 OFFCURVE",
"631 99 CURVE SMOOTH",
"614 99 OFFCURVE",
"604 114 OFFCURVE",
"604 145 CURVE SMOOTH"
);
}
);
};
layerId = "1D9335A4-69BC-4202-817B-D13DAA30F854";
paths = (
{
closed = 1;
nodes = (
"349 -68 OFFCURVE",
"397 -48 OFFCURVE",
"419 -35 CURVE",
"398 20 LINE",
"381 11 OFFCURVE",
"333 -8 OFFCURVE",
"278 -8 CURVE SMOOTH",
"179 -8 OFFCURVE",
"166 28 OFFCURVE",
"166 57 CURVE SMOOTH",
"166 85 OFFCURVE",
"180 103 OFFCURVE",
"216 103 CURVE SMOOTH",
"380 103 LINE",
"380 168 LINE",
"203 168 LINE SMOOTH",
"174 168 OFFCURVE",
"158 189 OFFCURVE",
"158 217 CURVE SMOOTH",
"158 248 OFFCURVE",
"184 261 OFFCURVE",
"226 270 CURVE SMOOTH",
"316 290 LINE SMOOTH",
"355 298 OFFCURVE",
"383 309 OFFCURVE",
"400 322 CURVE",
"481 322 LINE SMOOTH",
"520 322 OFFCURVE",
"546 317 OFFCURVE",
"569 308 CURVE",
"548 242 OFFCURVE",
"531 192 OFFCURVE",
"531 143 CURVE SMOOTH",
"531 67 OFFCURVE",
"579 38 OFFCURVE",
"631 38 CURVE SMOOTH",
"692 38 OFFCURVE",
"731 75 OFFCURVE",
"731 151 CURVE SMOOTH",
"731 232 OFFCURVE",
"697 292 OFFCURVE",
"659 329 CURVE",
"678 381 OFFCURVE",
"691 453 OFFCURVE",
"691 540 CURVE",
"691 547 OFFCURVE",
"690 554 OFFCURVE",
"690 561 CURVE",
"833 561 LINE",
"833 622 LINE",
"-10 622 LINE",
"-10 561 LINE",
"90 561 LINE",
"90 408 LINE",
"318 408 LINE SMOOTH",
"343 408 OFFCURVE",
"350 393 OFFCURVE",
"350 379 CURVE SMOOTH",
"350 362 OFFCURVE",
"333 354 OFFCURVE",
"305 348 CURVE SMOOTH",
"213 328 LINE SMOOTH",
"128 310 OFFCURVE",
"80 286 OFFCURVE",
"80 223 CURVE SMOOTH",
"80 168 OFFCURVE",
"108 144 OFFCURVE",
"140 134 CURVE",
"109 122 OFFCURVE",
"91 89 OFFCURVE",
"91 58 CURVE SMOOTH",
"91 -19 OFFCURVE",
"147 -68 OFFCURVE",
"273 -68 CURVE SMOOTH"
);
},
{
closed = 1;
nodes = (
"614 99 OFFCURVE",
"604 114 OFFCURVE",
"604 145 CURVE SMOOTH",
"604 178 OFFCURVE",
"612 213 OFFCURVE",
"629 270 CURVE",
"647 245 OFFCURVE",
"659 205 OFFCURVE",
"659 153 CURVE SMOOTH",
"659 118 OFFCURVE",
"649 99 OFFCURVE",
"631 99 CURVE SMOOTH"
);
},
{
closed = 1;
nodes = (
"564 381 OFFCURVE",
"527 390 OFFCURVE",
"481 390 CURVE SMOOTH",
"422 390 LINE",
"419 437 OFFCURVE",
"383 475 OFFCURVE",
"316 475 CURVE SMOOTH",
"166 475 LINE",
"166 561 LINE",
"612 561 LINE",
"612 553 OFFCURVE",
"612 544 OFFCURVE",
"612 536 CURVE SMOOTH",
"613 478 OFFCURVE",
"604 416 OFFCURVE",
"593 367 CURVE"
);
}
);
width = 823;
},
{
anchors = (
{
name = top;
position = "{623, 662}";
}
);
layerId = "37631205-D7B2-4E6B-9DD1-7005090CBFCA";
paths = (
{
closed = 1;
nodes = (
"349 -68 OFFCURVE",
"410 -40 OFFCURVE",
"432 -27 CURVE",
"398 70 LINE",
"381 61 OFFCURVE",
"333 42 OFFCURVE",
"268 42 CURVE SMOOTH",
"210 42 OFFCURVE",
"196 52 OFFCURVE",
"196 69 CURVE SMOOTH",
"196 83 OFFCURVE",
"205 88 OFFCURVE",
"219 88 CURVE SMOOTH",
"390 88 LINE",
"390 188 LINE",
"215 188 LINE SMOOTH",
"201 188 OFFCURVE",
"188 191 OFFCURVE",
"188 206 CURVE SMOOTH",
"188 221 OFFCURVE",
"199 224 OFFCURVE",
"212 226 CURVE SMOOTH",
"331 244 LINE SMOOTH",
"378 251 OFFCURVE",
"409 267 OFFCURVE",
"425 296 CURVE",
"475 296 LINE SMOOTH",
"487 296 OFFCURVE",
"500 296 OFFCURVE",
"510 295 CURVE",
"484 264 OFFCURVE",
"462 230 OFFCURVE",
"462 186 CURVE SMOOTH",
"462 83 OFFCURVE",
"536 38 OFFCURVE",
"627 38 CURVE SMOOTH",
"719 38 OFFCURVE",
"792 83 OFFCURVE",
"792 182 CURVE SMOOTH",
"792 263 OFFCURVE",
"741 320 OFFCURVE",
"665 359 CURVE",
"680 405 OFFCURVE",
"687 444 OFFCURVE",
"687 490 CURVE SMOOTH",
"687 500 OFFCURVE",
"687 511 OFFCURVE",
"687 521 CURVE",
"832 521 LINE",
"832 622 LINE",
"-10 622 LINE",
"-10 521 LINE",
"61 521 LINE",
"61 375 LINE",
"291 375 LINE SMOOTH",
"304 375 OFFCURVE",
"310 366 OFFCURVE",
"310 358 CURVE SMOOTH",
"310 351 OFFCURVE",
"306 340 OFFCURVE",
"285 337 CURVE SMOOTH",
"175 320 LINE SMOOTH",
"104 309 OFFCURVE",
"58 278 OFFCURVE",
"58 224 CURVE SMOOTH",
"58 179 OFFCURVE",
"86 144 OFFCURVE",
"118 134 CURVE",
"87 117 OFFCURVE",
"69 84 OFFCURVE",
"69 53 CURVE SMOOTH",
"69 -30 OFFCURVE",
"147 -68 OFFCURVE",
"263 -68 CURVE SMOOTH"
);
},
{
closed = 1;
nodes = (
"605 148 OFFCURVE",
"594 167 OFFCURVE",
"594 186 CURVE SMOOTH",
"594 200 OFFCURVE",
"597 221 OFFCURVE",
"620 257 CURVE",
"640 237 OFFCURVE",
"660 214 OFFCURVE",
"660 186 CURVE SMOOTH",
"660 167 OFFCURVE",
"649 148 OFFCURVE",
"627 148 CURVE SMOOTH"
);
},
{
closed = 1;
nodes = (
"526 395 OFFCURVE",
"501 396 OFFCURVE",
"475 396 CURVE SMOOTH",
"431 396 LINE",
"421 442 OFFCURVE",
"386 475 OFFCURVE",
"316 475 CURVE SMOOTH",
"195 475 LINE",
"195 521 LINE",
"558 521 LINE",
"558 508 OFFCURVE",
"558 498 OFFCURVE",
"558 486 CURVE SMOOTH",
"558 472 OFFCURVE",
"556 432 OFFCURVE",
"547 393 CURVE"
);
}
);
width = 822;
}
);
unicode = 11D65;
category = Letter;
},
{
color = 4;
glyphname = VowelEe.GGondi;
lastChange = "2021-10-18 08:30:41 +0000";
layers = (
{
anchors = (
{
name = top;
position = "{610, 766}";
}
);
background = {
components = (
{
name = VowelA.GGondi;
},
{
name = MatraEe.GGondi;
transform = "{1, 0, 0, 1, 798, 0}";
}
);
};
guideLines = (
{
angle = 90;
position = "{58, 193}";
},
{
angle = 90;
position = "{0, 191}";
}
);
layerId = "1D9335A4-69BC-4202-817B-D13DAA30F854";
paths = (
{
closed = 1;
nodes = (
"293 15 OFFCURVE",
"351 41 OFFCURVE",
"378 99 CURVE",
"401 45 OFFCURVE",
"458 15 OFFCURVE",
"528 15 CURVE SMOOTH",
"638 15 OFFCURVE",
"702 79 OFFCURVE",
"702 185 CURVE SMOOTH",
"702 561 LINE",
"812 561 LINE",
"812 622 LINE",
"-10 622 LINE",
"-10 561 LINE",
"624 561 LINE",
"624 193 LINE SMOOTH",
"624 127 OFFCURVE",
"593 83 OFFCURVE",
"524 83 CURVE SMOOTH",
"461 83 OFFCURVE",
"419 125 OFFCURVE",
"419 189 CURVE SMOOTH",
"419 468 LINE",
"341 468 LINE",
"341 188 LINE SMOOTH",
"341 122 OFFCURVE",
"292 83 OFFCURVE",
"229 83 CURVE SMOOTH",
"172 83 OFFCURVE",
"126 119 OFFCURVE",
"126 187 CURVE SMOOTH",
"126 252 OFFCURVE",
"170 288 OFFCURVE",
"227 288 CURVE SMOOTH",
"231 288 OFFCURVE",
"234 288 OFFCURVE",
"241 287 CURVE",
"248 354 LINE",
"241 355 OFFCURVE",
"231 356 OFFCURVE",
"219 356 CURVE SMOOTH",
"131 356 OFFCURVE",
"46 299 OFFCURVE",
"46 187 CURVE SMOOTH",
"46 77 OFFCURVE",
"127 15 OFFCURVE",
"223 15 CURVE SMOOTH"
);
},
{
closed = 1;
nodes = (
"696 611 LINE",
"696 620 LINE SMOOTH",
"696 690 OFFCURVE",
"646 734 OFFCURVE",
"542 763 CURVE SMOOTH",
"448 789 LINE SMOOTH",
"419 797 OFFCURVE",
"390 805 OFFCURVE",
"369 813 CURVE",
"414 827 OFFCURVE",
"445 865 OFFCURVE",
"445 914 CURVE SMOOTH",
"445 974 OFFCURVE",
"399 1014 OFFCURVE",
"340 1014 CURVE SMOOTH",
"280 1014 OFFCURVE",
"231 976 OFFCURVE",
"231 906 CURVE SMOOTH",
"231 827 OFFCURVE",
"288 774 OFFCURVE",
"424 734 CURVE SMOOTH",
"540 700 LINE SMOOTH",
"594 684 OFFCURVE",
"628 669 OFFCURVE",
"628 611 CURVE"
);
},
{
closed = 1;
nodes = (
"306 868 OFFCURVE",
"300 889 OFFCURVE",
"300 906 CURVE SMOOTH",
"300 938 OFFCURVE",
"316 956 OFFCURVE",
"342 956 CURVE SMOOTH",
"361 956 OFFCURVE",
"377 940 OFFCURVE",
"377 917 CURVE SMOOTH",
"377 881 OFFCURVE",
"355 860 OFFCURVE",
"319 852 CURVE"
);
}
);
width = 802;
},
{
anchors = (
{
name = top;
position = "{659, 782}";
}
);
layerId = "37631205-D7B2-4E6B-9DD1-7005090CBFCA";
paths = (
{
closed = 1;
nodes = (
"326 15 OFFCURVE",
"375 50 OFFCURVE",
"402 89 CURVE",
"439 37 OFFCURVE",
"495 15 OFFCURVE",
"568 15 CURVE SMOOTH",
"691 15 OFFCURVE",
"781 73 OFFCURVE",
"781 204 CURVE SMOOTH",
"781 521 LINE",
"877 521 LINE",
"877 622 LINE",
"-10 622 LINE",
"-10 521 LINE",
"647 521 LINE",
"647 214 LINE SMOOTH",
"647 167 OFFCURVE",
"619 125 OFFCURVE",
"559 125 CURVE SMOOTH",
"498 125 OFFCURVE",
"471 167 OFFCURVE",
"471 214 CURVE SMOOTH",
"471 474 LINE",
"337 474 LINE",
"337 194 LINE SMOOTH",
"337 152 OFFCURVE",
"309 125 OFFCURVE",
"269 125 CURVE SMOOTH",
"228 125 OFFCURVE",
"201 152 OFFCURVE",
"201 194 CURVE SMOOTH",
"201 235 OFFCURVE",
"227 263 OFFCURVE",
"268 263 CURVE SMOOTH",
"282 263 OFFCURVE",
"285 262 OFFCURVE",
"292 260 CURVE",
"299 372 LINE",
"292 373 OFFCURVE",
"272 375 OFFCURVE",
"265 375 CURVE SMOOTH",
"141 375 OFFCURVE",
"66 305 OFFCURVE",
"66 197 CURVE SMOOTH",
"66 86 OFFCURVE",
"145 15 OFFCURVE",
"255 15 CURVE SMOOTH"
);
},
{
closed = 1;
nodes = (
"773 611 LINE",
"773 620 LINE SMOOTH",
"773 701 OFFCURVE",
"738 740 OFFCURVE",
"642 763 CURVE SMOOTH",
"517 793 LINE SMOOTH",
"492 799 OFFCURVE",
"475 804 OFFCURVE",
"465 808 CURVE",
"513 827 OFFCURVE",
"542 868 OFFCURVE",
"542 917 CURVE SMOOTH",
"542 987 OFFCURVE",
"493 1043 OFFCURVE",
"387 1043 CURVE SMOOTH",
"301 1043 OFFCURVE",
"236 1000 OFFCURVE",
"236 909 CURVE SMOOTH",
"236 808 OFFCURVE",
"330 733 OFFCURVE",
"449 705 CURVE SMOOTH",
"605 668 LINE SMOOTH",
"643 659 OFFCURVE",
"649 638 OFFCURVE",
"649 611 CURVE"
);
},
{
closed = 1;
nodes = (
"364 875 OFFCURVE",
"360 890 OFFCURVE",
"360 908 CURVE SMOOTH",
"360 938 OFFCURVE",
"373 952 OFFCURVE",
"389 952 CURVE SMOOTH",
"410 952 OFFCURVE",
"418 937 OFFCURVE",
"418 914 CURVE SMOOTH",
"418 886 OFFCURVE",
"392 860 OFFCURVE",
"378 855 CURVE"
);
}
);
width = 867;
}
);
unicode = 11D67;
category = Letter;
},
{
color = 4;
glyphname = VowelAi.GGondi;
lastChange = "2021-10-18 08:30:41 +0000";
layers = (
{
anchors = (
{
name = top;
position = "{664, 766}";
}
);
background = {
components = (
{
name = VowelA.GGondi;
},
{
name = MatraAi.GGondi;
transform = "{1, 0, 0, 1, 798, 0}";
}
);
};
guideLines = (
{
angle = 90;
position = "{58, 193}";
},
{
angle = 90;
position = "{0, 191}";
}
);
layerId = "1D9335A4-69BC-4202-817B-D13DAA30F854";
paths = (
{
closed = 1;
nodes = (
"293 15 OFFCURVE",
"351 41 OFFCURVE",
"378 99 CURVE",
"401 45 OFFCURVE",
"458 15 OFFCURVE",
"528 15 CURVE SMOOTH",
"638 15 OFFCURVE",
"702 79 OFFCURVE",
"702 185 CURVE SMOOTH",
"702 561 LINE",
"812 561 LINE",
"812 622 LINE",
"-10 622 LINE",
"-10 561 LINE",
"624 561 LINE",
"624 193 LINE SMOOTH",
"624 127 OFFCURVE",
"593 83 OFFCURVE",
"524 83 CURVE SMOOTH",
"461 83 OFFCURVE",
"419 125 OFFCURVE",
"419 189 CURVE SMOOTH",
"419 468 LINE",
"341 468 LINE",
"341 188 LINE SMOOTH",
"341 122 OFFCURVE",
"292 83 OFFCURVE",
"229 83 CURVE SMOOTH",
"172 83 OFFCURVE",
"126 119 OFFCURVE",
"126 187 CURVE SMOOTH",
"126 252 OFFCURVE",
"170 288 OFFCURVE",
"227 288 CURVE SMOOTH",
"231 288 OFFCURVE",
"234 288 OFFCURVE",
"241 287 CURVE",
"248 354 LINE",
"241 355 OFFCURVE",
"231 356 OFFCURVE",
"219 356 CURVE SMOOTH",
"131 356 OFFCURVE",
"46 299 OFFCURVE",
"46 187 CURVE SMOOTH",
"46 77 OFFCURVE",
"127 15 OFFCURVE",
"223 15 CURVE SMOOTH"
);
},
{
closed = 1;
nodes = (
"692 583 LINE",
"692 616 LINE SMOOTH",
"692 686 OFFCURVE",
"644 728 OFFCURVE",
"538 755 CURVE SMOOTH",
"522 759 LINE SMOOTH",
"496 766 OFFCURVE",
"470 771 OFFCURVE",
"452 780 CURVE",
"492 796 OFFCURVE",
"519 830 OFFCURVE",
"519 870 CURVE SMOOTH",
"519 931 OFFCURVE",
"474 970 OFFCURVE",
"412 970 CURVE SMOOTH",
"353 970 OFFCURVE",
"305 934 OFFCURVE",
"305 870 CURVE SMOOTH",
"305 844 OFFCURVE",
"312 822 OFFCURVE",
"325 804 CURVE",
"308 802 OFFCURVE",
"289 801 OFFCURVE",
"268 801 CURVE SMOOTH",
"227 801 OFFCURVE",
"193 808 OFFCURVE",
"167 819 CURVE",
"209 836 OFFCURVE",
"237 871 OFFCURVE",
"237 915 CURVE SMOOTH",
"237 968 OFFCURVE",
"199 1014 OFFCURVE",
"132 1014 CURVE SMOOTH",
"67 1014 OFFCURVE",
"23 970 OFFCURVE",
"23 913 CURVE SMOOTH",
"23 816 OFFCURVE",
"113 748 OFFCURVE",
"270 748 CURVE SMOOTH",
"312 748 OFFCURVE",
"349 753 OFFCURVE",
"376 758 CURVE",
"401 737 OFFCURVE",
"440 719 OFFCURVE",
"498 705 CURVE SMOOTH",
"527 698 LINE SMOOTH",
"590 683 OFFCURVE",
"624 666 OFFCURVE",
"624 609 CURVE SMOOTH",
"624 583 LINE"
);
},
{
closed = 1;
nodes = (
"101 871 OFFCURVE",
"93 892 OFFCURVE",
"93 914 CURVE SMOOTH",
"93 939 OFFCURVE",
"107 958 OFFCURVE",
"132 958 CURVE SMOOTH",
"150 958 OFFCURVE",
"166 944 OFFCURVE",
"166 915 CURVE SMOOTH",
"166 892 OFFCURVE",
"150 863 OFFCURVE",
"116 854 CURVE"
);
},
{
closed = 1;
nodes = (
"379 828 OFFCURVE",
"374 852 OFFCURVE",
"374 867 CURVE SMOOTH",
"374 896 OFFCURVE",
"391 912 OFFCURVE",
"414 912 CURVE SMOOTH",
"437 912 OFFCURVE",
"451 895 OFFCURVE",
"451 873 CURVE SMOOTH",
"451 839 OFFCURVE",
"425 822 OFFCURVE",
"394 812 CURVE"
);
}
);
width = 802;
},
{
anchors = (
{
name = top;
position = "{713, 782}";
}
);
layerId = "37631205-D7B2-4E6B-9DD1-7005090CBFCA";
paths = (
{
closed = 1;
nodes = (
"326 15 OFFCURVE",
"375 50 OFFCURVE",
"402 89 CURVE",
"439 37 OFFCURVE",
"495 15 OFFCURVE",
"568 15 CURVE SMOOTH",
"691 15 OFFCURVE",
"781 73 OFFCURVE",
"781 204 CURVE SMOOTH",
"781 521 LINE",
"877 521 LINE",
"877 622 LINE",
"-10 622 LINE",
"-10 521 LINE",
"647 521 LINE",
"647 214 LINE SMOOTH",
"647 167 OFFCURVE",
"619 125 OFFCURVE",
"559 125 CURVE SMOOTH",
"498 125 OFFCURVE",
"471 167 OFFCURVE",
"471 214 CURVE SMOOTH",
"471 474 LINE",
"337 474 LINE",
"337 194 LINE SMOOTH",
"337 152 OFFCURVE",
"309 125 OFFCURVE",
"269 125 CURVE SMOOTH",
"228 125 OFFCURVE",
"201 152 OFFCURVE",
"201 194 CURVE SMOOTH",
"201 235 OFFCURVE",
"227 263 OFFCURVE",
"268 263 CURVE SMOOTH",
"282 263 OFFCURVE",
"285 262 OFFCURVE",
"292 260 CURVE",
"299 372 LINE",
"292 373 OFFCURVE",
"272 375 OFFCURVE",
"265 375 CURVE SMOOTH",
"141 375 OFFCURVE",
"66 305 OFFCURVE",
"66 197 CURVE SMOOTH",
"66 86 OFFCURVE",
"145 15 OFFCURVE",
"255 15 CURVE SMOOTH"
);
},
{
closed = 1;
nodes = (
"773 583 LINE",
"773 620 LINE SMOOTH",
"773 691 OFFCURVE",
"741 743 OFFCURVE",
"642 760 CURVE SMOOTH",
"589 769 LINE SMOOTH",
"579 771 OFFCURVE",
"559 775 OFFCURVE",
"543 785 CURVE",
"596 805 OFFCURVE",
"624 845 OFFCURVE",
"624 894 CURVE SMOOTH",
"624 964 OFFCURVE",
"575 1020 OFFCURVE",
"469 1020 CURVE SMOOTH",
"383 1020 OFFCURVE",
"318 977 OFFCURVE",
"318 886 CURVE SMOOTH",
"318 856 OFFCURVE",
"333 828 OFFCURVE",
"347 811 CURVE",
"326 806 OFFCURVE",
"312 807 OFFCURVE",
"303 807 CURVE SMOOTH",
"281 807 OFFCURVE",
"238 817 OFFCURVE",
"222 827 CURVE",
"275 847 OFFCURVE",
"303 887 OFFCURVE",
"303 936 CURVE SMOOTH",
"303 1006 OFFCURVE",
"254 1062 OFFCURVE",
"148 1062 CURVE SMOOTH",
"62 1062 OFFCURVE",
"-3 1019 OFFCURVE",
"-3 928 CURVE SMOOTH",
"-3 789 OFFCURVE",
"170 715 OFFCURVE",
"302 715 CURVE SMOOTH",
"353 715 OFFCURVE",
"384 725 OFFCURVE",
"421 734 CURVE",
"450 698 OFFCURVE",
"483 687 OFFCURVE",
"526 678 CURVE SMOOTH",
"605 662 LINE SMOOTH",
"644 654 OFFCURVE",
"649 642 OFFCURVE",
"649 615 CURVE",
"649 583 LINE"
);
},
{
closed = 1;
nodes = (
"125 894 OFFCURVE",
"121 909 OFFCURVE",
"121 927 CURVE SMOOTH",
"121 957 OFFCURVE",
"134 971 OFFCURVE",
"150 971 CURVE SMOOTH",
"171 971 OFFCURVE",
"179 956 OFFCURVE",
"179 933 CURVE SMOOTH",
"179 905 OFFCURVE",
"153 879 OFFCURVE",
"139 874 CURVE"
);
},
{
closed = 1;
nodes = (
"446 852 OFFCURVE",
"442 867 OFFCURVE",
"442 885 CURVE SMOOTH",
"442 915 OFFCURVE",
"455 929 OFFCURVE",
"471 929 CURVE SMOOTH",
"492 929 OFFCURVE",
"500 914 OFFCURVE",
"500 891 CURVE SMOOTH",
"500 863 OFFCURVE",
"474 837 OFFCURVE",
"460 832 CURVE"
);
}
);
width = 867;
}
);
unicode = 11D68;
category = Letter;
},
{
color = 3;
glyphname = VowelOo.GGondi;
lastChange = "2021-10-18 08:30:41 +0000";
layers = (
{
anchors = (
{
name = top;
position = "{610, 766}";
}
);
background = {
components = (
{
name = VowelAa.GGondi;
},
{
name = MatraEe.GGondi;
transform = "{1, 0, 0, 1, 798, 0}";
}
);
};
layerId = "1D9335A4-69BC-4202-817B-D13DAA30F854";
paths = (
{
closed = 1;
nodes = (
"293 15 OFFCURVE",
"351 41 OFFCURVE",
"378 99 CURVE",
"401 45 OFFCURVE",
"458 15 OFFCURVE",
"528 15 CURVE SMOOTH",
"638 15 OFFCURVE",
"702 79 OFFCURVE",
"702 185 CURVE SMOOTH",
"702 259 LINE",
"721 236 OFFCURVE",
"748 224 OFFCURVE",
"782 224 CURVE SMOOTH",
"845 224 OFFCURVE",
"891 263 OFFCURVE",
"891 329 CURVE SMOOTH",
"891 401 OFFCURVE",
"839 437 OFFCURVE",
"784 441 CURVE",
"752 441 OFFCURVE",
"721 429 OFFCURVE",
"701 406 CURVE",
"701 561 LINE",
"940 561 LINE",
"940 622 LINE",
"-10 622 LINE",
"-10 561 LINE",
"624 561 LINE",
"624 442 LINE SMOOTH",
"624 399 OFFCURVE",
"634 367 OFFCURVE",
"654 342 CURVE",
"635 317 OFFCURVE",
"624 283 OFFCURVE",
"624 242 CURVE SMOOTH",
"624 193 LINE SMOOTH",
"624 127 OFFCURVE",
"594 83 OFFCURVE",
"524 83 CURVE SMOOTH",
"461 83 OFFCURVE",
"419 125 OFFCURVE",
"419 189 CURVE SMOOTH",
"419 468 LINE",
"341 468 LINE",
"341 188 LINE SMOOTH",
"341 122 OFFCURVE",
"292 83 OFFCURVE",
"229 83 CURVE SMOOTH",
"172 83 OFFCURVE",
"126 119 OFFCURVE",
"126 187 CURVE SMOOTH",
"126 252 OFFCURVE",
"170 288 OFFCURVE",
"227 288 CURVE SMOOTH",
"231 288 OFFCURVE",
"234 288 OFFCURVE",
"241 287 CURVE",
"248 354 LINE",
"241 355 OFFCURVE",
"231 356 OFFCURVE",
"219 356 CURVE SMOOTH",
"131 356 OFFCURVE",
"46 299 OFFCURVE",
"46 187 CURVE SMOOTH",
"46 77 OFFCURVE",
"127 15 OFFCURVE",
"223 15 CURVE SMOOTH"
);
},
{
closed = 1;
nodes = (
"745 285 OFFCURVE",
"720 306 OFFCURVE",
"708 329 CURVE",
"722 364 OFFCURVE",
"748 376 OFFCURVE",
"772 376 CURVE SMOOTH",
"801 376 OFFCURVE",
"819 357 OFFCURVE",
"819 330 CURVE SMOOTH",
"819 304 OFFCURVE",
"801 285 OFFCURVE",
"772 285 CURVE SMOOTH"
);
},
{
closed = 1;
nodes = (
"696 611 LINE",
"696 620 LINE SMOOTH",
"696 690 OFFCURVE",
"646 734 OFFCURVE",
"542 763 CURVE SMOOTH",
"448 789 LINE SMOOTH",
"419 797 OFFCURVE",
"390 805 OFFCURVE",
"369 813 CURVE",
"414 827 OFFCURVE",
"445 865 OFFCURVE",
"445 914 CURVE SMOOTH",
"445 974 OFFCURVE",
"399 1014 OFFCURVE",
"340 1014 CURVE SMOOTH",
"280 1014 OFFCURVE",
"231 976 OFFCURVE",
"231 906 CURVE SMOOTH",
"231 827 OFFCURVE",
"288 774 OFFCURVE",
"424 734 CURVE SMOOTH",
"540 700 LINE SMOOTH",
"594 684 OFFCURVE",
"628 669 OFFCURVE",
"628 611 CURVE"
);
},
{
closed = 1;
nodes = (
"306 868 OFFCURVE",
"300 889 OFFCURVE",
"300 906 CURVE SMOOTH",
"300 938 OFFCURVE",
"316 956 OFFCURVE",
"342 956 CURVE SMOOTH",
"361 956 OFFCURVE",
"377 940 OFFCURVE",
"377 917 CURVE SMOOTH",
"377 881 OFFCURVE",
"355 860 OFFCURVE",
"319 852 CURVE"
);
}
);
width = 930;
},
{
anchors = (
{
name = top;
position = "{602, 782}";
}
);
layerId = "37631205-D7B2-4E6B-9DD1-7005090CBFCA";
paths = (
{
closed = 1;
nodes = (
"302 15 OFFCURVE",
"351 50 OFFCURVE",
"378 89 CURVE",
"403 50 OFFCURVE",
"448 15 OFFCURVE",
"528 15 CURVE SMOOTH",
"618 15 OFFCURVE",
"714 75 OFFCURVE",
"714 194 CURVE SMOOTH",
"714 231 LINE",
"745 202 OFFCURVE",
"766 190 OFFCURVE",
"809 190 CURVE SMOOTH",
"876 190 OFFCURVE",
"938 234 OFFCURVE",
"938 329 CURVE SMOOTH",
"938 425 OFFCURVE",
"876 471 OFFCURVE",
"811 471 CURVE SMOOTH",
"768 471 OFFCURVE",
"741 456 OFFCURVE",
"714 431 CURVE",
"714 521 LINE",
"985 521 LINE",
"985 622 LINE",
"-10 622 LINE",
"-10 521 LINE",
"580 521 LINE",
"580 436 LINE SMOOTH",
"580 393 OFFCURVE",
"590 361 OFFCURVE",
"630 336 CURVE",
"591 311 OFFCURVE",
"580 277 OFFCURVE",
"580 236 CURVE SMOOTH",
"580 194 LINE SMOOTH",
"580 151 OFFCURVE",
"556 125 OFFCURVE",
"514 125 CURVE SMOOTH",
"476 125 OFFCURVE",
"447 152 OFFCURVE",
"447 194 CURVE SMOOTH",
"447 468 LINE",
"313 468 LINE",
"313 194 LINE SMOOTH",
"313 152 OFFCURVE",
"286 125 OFFCURVE",
"245 125 CURVE SMOOTH",
"204 125 OFFCURVE",
"177 152 OFFCURVE",
"177 195 CURVE SMOOTH",
"177 235 OFFCURVE",
"204 260 OFFCURVE",
"241 260 CURVE SMOOTH",
"250 260 OFFCURVE",
"257 259 OFFCURVE",
"261 257 CURVE",
"268 366 LINE",
"262 367 OFFCURVE",
"250 369 OFFCURVE",
"238 369 CURVE SMOOTH",
"118 369 OFFCURVE",
"42 305 OFFCURVE",
"42 195 CURVE SMOOTH",
"42 87 OFFCURVE",
"121 15 OFFCURVE",
"228 15 CURVE SMOOTH"
);
},
{
closed = 1;
nodes = (
"748 295 OFFCURVE",
"733 307 OFFCURVE",
"714 329 CURVE",
"732 353 OFFCURVE",
"751 366 OFFCURVE",
"770 366 CURVE SMOOTH",
"792 366 OFFCURVE",
"808 352 OFFCURVE",
"808 330 CURVE SMOOTH",
"808 309 OFFCURVE",
"792 295 OFFCURVE",
"770 295 CURVE SMOOTH"
);
},
{
closed = 1;
nodes = (
"716 611 LINE",
"716 620 LINE SMOOTH",
"716 701 OFFCURVE",
"681 740 OFFCURVE",
"585 763 CURVE SMOOTH",
"460 793 LINE SMOOTH",
"435 799 OFFCURVE",
"418 804 OFFCURVE",
"408 808 CURVE",
"456 827 OFFCURVE",
"485 868 OFFCURVE",
"485 917 CURVE SMOOTH",
"485 987 OFFCURVE",
"436 1043 OFFCURVE",
"330 1043 CURVE SMOOTH",
"244 1043 OFFCURVE",
"179 1000 OFFCURVE",
"179 909 CURVE SMOOTH",
"179 808 OFFCURVE",
"273 733 OFFCURVE",
"392 705 CURVE SMOOTH",
"548 668 LINE SMOOTH",
"586 659 OFFCURVE",
"592 638 OFFCURVE",
"592 611 CURVE"
);
},
{
closed = 1;
nodes = (
"307 875 OFFCURVE",
"303 890 OFFCURVE",
"303 908 CURVE SMOOTH",
"303 938 OFFCURVE",
"316 952 OFFCURVE",
"332 952 CURVE SMOOTH",
"353 952 OFFCURVE",
"361 937 OFFCURVE",
"361 914 CURVE SMOOTH",
"361 886 OFFCURVE",
"335 860 OFFCURVE",
"321 855 CURVE"
);
}
);
width = 975;
}
);
unicode = 11D6A;
category = Letter;
},
{
color = 3;
glyphname = VowelAu.GGondi;
lastChange = "2021-10-18 08:30:41 +0000";
layers = (
{
anchors = (
{
name = top;
position = "{664, 766}";
}
);
background = {
components = (
{
name = VowelAa.GGondi;
},
{
name = MatraAi.GGondi;
transform = "{1, 0, 0, 1, 798, 0}";
}
);
};
layerId = "1D9335A4-69BC-4202-817B-D13DAA30F854";
paths = (
{
closed = 1;
nodes = (
"293 15 OFFCURVE",
"351 41 OFFCURVE",
"378 99 CURVE",
"401 45 OFFCURVE",
"458 15 OFFCURVE",
"528 15 CURVE SMOOTH",
"638 15 OFFCURVE",
"702 79 OFFCURVE",
"702 185 CURVE SMOOTH",
"702 259 LINE",
"721 236 OFFCURVE",
"748 224 OFFCURVE",
"782 224 CURVE SMOOTH",
"845 224 OFFCURVE",
"891 263 OFFCURVE",
"891 329 CURVE SMOOTH",
"891 401 OFFCURVE",
"839 437 OFFCURVE",
"784 441 CURVE",
"752 441 OFFCURVE",
"721 429 OFFCURVE",
"701 406 CURVE",
"701 561 LINE",
"940 561 LINE",
"940 622 LINE",
"-10 622 LINE",
"-10 561 LINE",
"624 561 LINE",
"624 442 LINE SMOOTH",
"624 399 OFFCURVE",
"634 367 OFFCURVE",
"654 342 CURVE",
"635 317 OFFCURVE",
"624 283 OFFCURVE",
"624 242 CURVE SMOOTH",
"624 193 LINE SMOOTH",
"624 127 OFFCURVE",
"594 83 OFFCURVE",
"524 83 CURVE SMOOTH",
"461 83 OFFCURVE",
"419 125 OFFCURVE",
"419 189 CURVE SMOOTH",
"419 468 LINE",
"341 468 LINE",
"341 188 LINE SMOOTH",
"341 122 OFFCURVE",
"292 83 OFFCURVE",
"229 83 CURVE SMOOTH",
"172 83 OFFCURVE",
"126 119 OFFCURVE",
"126 187 CURVE SMOOTH",
"126 252 OFFCURVE",
"170 288 OFFCURVE",
"227 288 CURVE SMOOTH",
"231 288 OFFCURVE",
"234 288 OFFCURVE",
"241 287 CURVE",
"248 354 LINE",
"241 355 OFFCURVE",
"231 356 OFFCURVE",
"219 356 CURVE SMOOTH",
"131 356 OFFCURVE",
"46 299 OFFCURVE",
"46 187 CURVE SMOOTH",
"46 77 OFFCURVE",
"127 15 OFFCURVE",
"223 15 CURVE SMOOTH"
);
},
{
closed = 1;
nodes = (
"745 285 OFFCURVE",
"720 306 OFFCURVE",
"708 329 CURVE",
"722 364 OFFCURVE",
"748 376 OFFCURVE",
"772 376 CURVE SMOOTH",
"801 376 OFFCURVE",
"819 357 OFFCURVE",
"819 330 CURVE SMOOTH",
"819 304 OFFCURVE",
"801 285 OFFCURVE",
"772 285 CURVE SMOOTH"
);
},
{
closed = 1;
nodes = (
"692 583 LINE",
"692 616 LINE SMOOTH",
"692 686 OFFCURVE",
"644 728 OFFCURVE",
"538 755 CURVE SMOOTH",
"522 759 LINE SMOOTH",
"496 766 OFFCURVE",
"470 771 OFFCURVE",
"452 780 CURVE",
"492 796 OFFCURVE",
"519 830 OFFCURVE",
"519 870 CURVE SMOOTH",
"519 931 OFFCURVE",
"474 970 OFFCURVE",
"412 970 CURVE SMOOTH",
"353 970 OFFCURVE",
"305 934 OFFCURVE",
"305 870 CURVE SMOOTH",
"305 844 OFFCURVE",
"312 822 OFFCURVE",
"325 804 CURVE",
"308 802 OFFCURVE",
"289 801 OFFCURVE",
"268 801 CURVE SMOOTH",
"227 801 OFFCURVE",
"193 808 OFFCURVE",
"167 819 CURVE",
"209 836 OFFCURVE",
"237 871 OFFCURVE",
"237 915 CURVE SMOOTH",
"237 968 OFFCURVE",
"199 1014 OFFCURVE",
"132 1014 CURVE SMOOTH",
"67 1014 OFFCURVE",
"23 970 OFFCURVE",
"23 913 CURVE SMOOTH",
"23 816 OFFCURVE",
"113 748 OFFCURVE",
"270 748 CURVE SMOOTH",
"312 748 OFFCURVE",
"349 753 OFFCURVE",
"376 758 CURVE",
"401 737 OFFCURVE",
"440 719 OFFCURVE",
"498 705 CURVE SMOOTH",
"527 698 LINE SMOOTH",
"590 683 OFFCURVE",
"624 666 OFFCURVE",
"624 609 CURVE SMOOTH",
"624 583 LINE"
);
},
{
closed = 1;
nodes = (
"101 871 OFFCURVE",
"93 892 OFFCURVE",
"93 914 CURVE SMOOTH",
"93 939 OFFCURVE",
"107 958 OFFCURVE",
"132 958 CURVE SMOOTH",
"150 958 OFFCURVE",
"166 944 OFFCURVE",
"166 915 CURVE SMOOTH",
"166 892 OFFCURVE",
"150 863 OFFCURVE",
"116 854 CURVE"
);
},
{
closed = 1;
nodes = (
"379 828 OFFCURVE",
"374 852 OFFCURVE",
"374 867 CURVE SMOOTH",
"374 896 OFFCURVE",
"391 912 OFFCURVE",
"414 912 CURVE SMOOTH",
"437 912 OFFCURVE",
"451 895 OFFCURVE",
"451 873 CURVE SMOOTH",
"451 839 OFFCURVE",
"425 822 OFFCURVE",
"394 812 CURVE"
);
}
);
width = 930;
},
{
anchors = (
{
name = top;
position = "{656, 782}";
}
);
layerId = "37631205-D7B2-4E6B-9DD1-7005090CBFCA";
paths = (
{
closed = 1;
nodes = (
"302 15 OFFCURVE",
"351 50 OFFCURVE",
"378 89 CURVE",
"403 50 OFFCURVE",
"448 15 OFFCURVE",
"528 15 CURVE SMOOTH",
"618 15 OFFCURVE",
"714 75 OFFCURVE",
"714 194 CURVE SMOOTH",
"714 231 LINE",
"745 202 OFFCURVE",
"766 190 OFFCURVE",
"809 190 CURVE SMOOTH",
"876 190 OFFCURVE",
"938 234 OFFCURVE",
"938 329 CURVE SMOOTH",
"938 425 OFFCURVE",
"876 471 OFFCURVE",
"811 471 CURVE SMOOTH",
"768 471 OFFCURVE",
"741 456 OFFCURVE",
"714 431 CURVE",
"714 521 LINE",
"985 521 LINE",
"985 622 LINE",
"-10 622 LINE",
"-10 521 LINE",
"580 521 LINE",
"580 436 LINE SMOOTH",
"580 393 OFFCURVE",
"590 361 OFFCURVE",
"630 336 CURVE",
"591 311 OFFCURVE",
"580 277 OFFCURVE",
"580 236 CURVE SMOOTH",
"580 194 LINE SMOOTH",
"580 151 OFFCURVE",
"556 125 OFFCURVE",
"514 125 CURVE SMOOTH",
"476 125 OFFCURVE",
"447 152 OFFCURVE",
"447 194 CURVE SMOOTH",
"447 468 LINE",
"313 468 LINE",
"313 194 LINE SMOOTH",
"313 152 OFFCURVE",
"286 125 OFFCURVE",
"245 125 CURVE SMOOTH",
"204 125 OFFCURVE",
"177 152 OFFCURVE",
"177 195 CURVE SMOOTH",
"177 235 OFFCURVE",
"204 260 OFFCURVE",
"241 260 CURVE SMOOTH",
"250 260 OFFCURVE",
"257 259 OFFCURVE",
"261 257 CURVE",
"268 366 LINE",
"262 367 OFFCURVE",
"250 369 OFFCURVE",
"238 369 CURVE SMOOTH",
"118 369 OFFCURVE",
"42 305 OFFCURVE",
"42 195 CURVE SMOOTH",
"42 87 OFFCURVE",
"121 15 OFFCURVE",
"228 15 CURVE SMOOTH"
);
},
{
closed = 1;
nodes = (
"748 295 OFFCURVE",
"733 307 OFFCURVE",
"714 329 CURVE",
"732 353 OFFCURVE",
"751 366 OFFCURVE",
"770 366 CURVE SMOOTH",
"792 366 OFFCURVE",
"808 352 OFFCURVE",
"808 330 CURVE SMOOTH",
"808 309 OFFCURVE",
"792 295 OFFCURVE",
"770 295 CURVE SMOOTH"
);
},
{
closed = 1;
nodes = (
"716 583 LINE",
"716 620 LINE SMOOTH",
"716 691 OFFCURVE",
"684 743 OFFCURVE",
"585 760 CURVE SMOOTH",
"532 769 LINE SMOOTH",
"522 771 OFFCURVE",
"502 775 OFFCURVE",
"486 785 CURVE",
"539 805 OFFCURVE",
"567 845 OFFCURVE",
"567 894 CURVE SMOOTH",
"567 964 OFFCURVE",
"518 1020 OFFCURVE",
"412 1020 CURVE SMOOTH",
"326 1020 OFFCURVE",
"261 977 OFFCURVE",
"261 886 CURVE SMOOTH",
"261 856 OFFCURVE",
"276 828 OFFCURVE",
"290 811 CURVE",
"269 806 OFFCURVE",
"255 807 OFFCURVE",
"246 807 CURVE SMOOTH",
"224 807 OFFCURVE",
"181 817 OFFCURVE",
"165 827 CURVE",
"218 847 OFFCURVE",
"246 887 OFFCURVE",
"246 936 CURVE SMOOTH",
"246 1006 OFFCURVE",
"197 1062 OFFCURVE",
"91 1062 CURVE SMOOTH",
"5 1062 OFFCURVE",
"-60 1019 OFFCURVE",
"-60 928 CURVE SMOOTH",
"-60 789 OFFCURVE",
"113 715 OFFCURVE",
"245 715 CURVE SMOOTH",
"296 715 OFFCURVE",
"327 725 OFFCURVE",
"364 734 CURVE",
"393 698 OFFCURVE",
"426 687 OFFCURVE",
"469 678 CURVE SMOOTH",
"548 662 LINE SMOOTH",
"587 654 OFFCURVE",
"592 642 OFFCURVE",
"592 615 CURVE",
"592 583 LINE"
);
},
{
closed = 1;
nodes = (
"68 894 OFFCURVE",
"64 909 OFFCURVE",
"64 927 CURVE SMOOTH",
"64 957 OFFCURVE",
"77 971 OFFCURVE",
"93 971 CURVE SMOOTH",
"114 971 OFFCURVE",
"122 956 OFFCURVE",
"122 933 CURVE SMOOTH",
"122 905 OFFCURVE",
"96 879 OFFCURVE",
"82 874 CURVE"
);
},
{
closed = 1;
nodes = (
"389 852 OFFCURVE",
"385 867 OFFCURVE",
"385 885 CURVE SMOOTH",
"385 915 OFFCURVE",
"398 929 OFFCURVE",
"414 929 CURVE SMOOTH",
"435 929 OFFCURVE",
"443 914 OFFCURVE",
"443 891 CURVE SMOOTH",
"443 863 OFFCURVE",
"417 837 OFFCURVE",
"403 832 CURVE"
);
}
);
width = 975;
}
);
unicode = 11D6B;
category = Letter;
subCategory = Other;
},
{
color = 9;
glyphname = Ya.GGondi;
lastChange = "2021-10-18 08:30:41 +0000";
layers = (
{
anchors = (
{
name = bottom;
position = "{457, -28}";
},
{
name = top;
position = "{651, 656}";
}
);
background = {
anchors = (
{
name = bottom;
position = "{457, -28}";
},
{
name = top;
position = "{651, 656}";
}
);
paths = (
{
closed = 1;
nodes = (
"610 561 LINE",
"610 554 LINE SMOOTH",
"610 401 OFFCURVE",
"535 318 OFFCURVE",
"464 263 CURVE",
"425 282 OFFCURVE",
"393 298 OFFCURVE",
"368 312 CURVE",
"402 332 OFFCURVE",
"424 369 OFFCURVE",
"424 407 CURVE SMOOTH",
"424 473 OFFCURVE",
"371 508 OFFCURVE",
"314 510 CURVE SMOOTH",
"250 512 OFFCURVE",
"201 475 OFFCURVE",
"201 411 CURVE SMOOTH",
"201 382 OFFCURVE",
"212 358 OFFCURVE",
"228 342 CURVE",
"156 349 OFFCURVE",
"109 398 OFFCURVE",
"99 493 CURVE",
"28 493 LINE",
"38 336 OFFCURVE",
"140 279 OFFCURVE",
"255 279 CURVE SMOOTH",
"271 279 OFFCURVE",
"283 280 OFFCURVE",
"293 282 CURVE",
"304 275 OFFCURVE",
"314 269 OFFCURVE",
"319 266 CURVE SMOOTH",
"355 247 OFFCURVE",
"378 234 OFFCURVE",
"399 224 CURVE",
"367 198 OFFCURVE",
"339 165 OFFCURVE",
"339 112 CURVE SMOOTH",
"339 45 OFFCURVE",
"393 3 OFFCURVE",
"469 3 CURVE SMOOTH",
"546 3 OFFCURVE",
"595 48 OFFCURVE",
"595 112 CURVE SMOOTH",
"595 161 OFFCURVE",
"562 203 OFFCURVE",
"527 228 CURVE",
"599 282 OFFCURVE",
"691 377 OFFCURVE",
"690 554 CURVE",
"690 561 LINE",
"773 561 LINE",
"773 622 LINE",
"-20 622 LINE",
"-20 561 LINE"
);
},
{
closed = 1;
nodes = (
"276 440 OFFCURVE",
"300 449 OFFCURVE",
"314 449 CURVE SMOOTH",
"334 449 OFFCURVE",
"353 437 OFFCURVE",
"353 406 CURVE SMOOTH",
"353 385 OFFCURVE",
"336 362 OFFCURVE",
"312 347 CURVE",
"283 367 OFFCURVE",
"276 388 OFFCURVE",
"276 405 CURVE SMOOTH"
);
},
{
closed = 1;
nodes = (
"419 150 OFFCURVE",
"438 171 OFFCURVE",
"465 195 CURVE",
"497 176 OFFCURVE",
"517 150 OFFCURVE",
"517 120 CURVE SMOOTH",
"517 93 OFFCURVE",
"498 71 OFFCURVE",
"468 71 CURVE SMOOTH",
"435 71 OFFCURVE",
"419 92 OFFCURVE",
"419 118 CURVE SMOOTH"
);
}
);
};
layerId = "1D9335A4-69BC-4202-817B-D13DAA30F854";
paths = (
{
closed = 1;
nodes = (
"546 3 OFFCURVE",
"595 48 OFFCURVE",
"595 112 CURVE SMOOTH",
"595 161 OFFCURVE",
"562 203 OFFCURVE",
"527 228 CURVE",
"599 282 OFFCURVE",
"691 377 OFFCURVE",
"690 554 CURVE",
"690 561 LINE",
"773 561 LINE",
"773 622 LINE",
"-20 622 LINE",
"-20 561 LINE",
"610 561 LINE",
"610 554 LINE SMOOTH",
"610 401 OFFCURVE",
"535 318 OFFCURVE",
"464 263 CURVE",
"425 282 OFFCURVE",
"393 298 OFFCURVE",
"368 312 CURVE",
"402 332 OFFCURVE",
"424 369 OFFCURVE",
"424 407 CURVE SMOOTH",
"424 473 OFFCURVE",
"371 508 OFFCURVE",
"314 510 CURVE SMOOTH",
"250 512 OFFCURVE",
"201 475 OFFCURVE",
"201 411 CURVE SMOOTH",
"201 382 OFFCURVE",
"212 358 OFFCURVE",
"228 342 CURVE",
"156 349 OFFCURVE",
"109 398 OFFCURVE",
"99 493 CURVE",
"28 493 LINE",
"38 336 OFFCURVE",
"140 279 OFFCURVE",
"255 279 CURVE SMOOTH",
"271 279 OFFCURVE",
"283 280 OFFCURVE",
"293 282 CURVE",
"304 275 OFFCURVE",
"314 269 OFFCURVE",
"319 266 CURVE SMOOTH",
"355 247 OFFCURVE",
"378 234 OFFCURVE",
"399 224 CURVE",
"367 198 OFFCURVE",
"339 165 OFFCURVE",
"339 112 CURVE SMOOTH",
"339 45 OFFCURVE",
"393 3 OFFCURVE",
"469 3 CURVE SMOOTH"
);
},
{
closed = 1;
nodes = (
"435 71 OFFCURVE",
"419 92 OFFCURVE",
"419 118 CURVE SMOOTH",
"419 150 OFFCURVE",
"438 171 OFFCURVE",
"465 195 CURVE",
"497 176 OFFCURVE",
"517 150 OFFCURVE",
"517 120 CURVE SMOOTH",
"517 93 OFFCURVE",
"498 71 OFFCURVE",
"468 71 CURVE SMOOTH"
);
},
{
closed = 1;
nodes = (
"283 367 OFFCURVE",
"276 388 OFFCURVE",
"276 405 CURVE SMOOTH",
"276 440 OFFCURVE",
"300 449 OFFCURVE",
"314 449 CURVE SMOOTH",
"334 449 OFFCURVE",
"353 437 OFFCURVE",
"353 406 CURVE SMOOTH",
"353 385 OFFCURVE",
"336 362 OFFCURVE",
"312 347 CURVE"
);
}
);
width = 743;
},
{
anchors = (
{
name = bottom;
position = "{529, -28}";
},
{
name = top;
position = "{723, 662}";
}
);
layerId = "37631205-D7B2-4E6B-9DD1-7005090CBFCA";
paths = (
{
closed = 1;
nodes = (
"651 3 OFFCURVE",
"710 54 OFFCURVE",
"710 122 CURVE SMOOTH",
"710 175 OFFCURVE",
"668 209 OFFCURVE",
"632 231 CURVE",
"712 298 OFFCURVE",
"768 392 OFFCURVE",
"768 514 CURVE SMOOTH",
"768 521 LINE",
"833 521 LINE",
"833 622 LINE",
"-10 622 LINE",
"-10 521 LINE",
"645 521 LINE",
"645 514 LINE SMOOTH",
"645 417 OFFCURVE",
"603 331 OFFCURVE",
"529 274 CURVE",
"515 281 OFFCURVE",
"508 284 OFFCURVE",
"493 292 CURVE",
"526 310 OFFCURVE",
"556 350 OFFCURVE",
"556 391 CURVE SMOOTH",
"556 461 OFFCURVE",
"498 510 OFFCURVE",
"404 510 CURVE SMOOTH",
"307 510 OFFCURVE",
"251 463 OFFCURVE",
"251 403 CURVE SMOOTH",
"251 352 OFFCURVE",
"273 313 OFFCURVE",
"334 289 CURVE",
"216 291 OFFCURVE",
"172 365 OFFCURVE",
"172 493 CURVE",
"62 493 LINE",
"62 287 OFFCURVE",
"160 197 OFFCURVE",
"315 197 CURVE SMOOTH",
"359 197 OFFCURVE",
"402 215 OFFCURVE",
"427 231 CURVE",
"430 230 OFFCURVE",
"435 227 OFFCURVE",
"439 225 CURVE SMOOTH",
"442 224 OFFCURVE",
"449 220 OFFCURVE",
"453 218 CURVE",
"423 193 OFFCURVE",
"391 161 OFFCURVE",
"391 117 CURVE SMOOTH",
"391 54 OFFCURVE",
"447 3 OFFCURVE",
"551 3 CURVE SMOOTH"
);
},
{
closed = 1;
nodes = (
"534 91 OFFCURVE",
"524 106 OFFCURVE",
"524 127 CURVE SMOOTH",
"524 147 OFFCURVE",
"535 169 OFFCURVE",
"551 180 CURVE",
"567 169 OFFCURVE",
"577 147 OFFCURVE",
"577 127 CURVE SMOOTH",
"577 106 OFFCURVE",
"569 91 OFFCURVE",
"550 91 CURVE SMOOTH"
);
},
{
closed = 1;
nodes = (
"389 342 OFFCURVE",
"379 366 OFFCURVE",
"379 386 CURVE SMOOTH",
"379 407 OFFCURVE",
"387 422 OFFCURVE",
"406 422 CURVE SMOOTH",
"422 422 OFFCURVE",
"432 407 OFFCURVE",
"432 386 CURVE SMOOTH",
"432 366 OFFCURVE",
"421 342 OFFCURVE",
"405 333 CURVE"
);
}
);
width = 823;
}
);
unicode = 11D6C;
category = Letter;
userData = {
com.typemytype.robofont.mark = (
0.835,
1,
0.6,
1
);
};
},
{
color = 4;
glyphname = Va.GGondi;
lastChange = "2021-10-18 08:30:41 +0000";
layers = (
{
anchors = (
{
name = bottom;
position = "{345, -28}";
},
{
name = top;
position = "{524, 656}";
}
);
background = {
anchors = (
{
name = bottom;
position = "{345, -28}";
},
{
name = top;
position = "{524, 656}";
}
);
paths = (
{
closed = 1;
nodes = (
"485 561 LINE",
"485 239 LINE SMOOTH",
"485 142 OFFCURVE",
"426 87 OFFCURVE",
"325 87 CURVE SMOOTH",
"247 87 OFFCURVE",
"188 122 OFFCURVE",
"165 191 CURVE",
"245 199 OFFCURVE",
"328 241 OFFCURVE",
"328 347 CURVE SMOOTH",
"328 450 OFFCURVE",
"253 505 OFFCURVE",
"154 505 CURVE SMOOTH",
"129 505 OFFCURVE",
"105 501 OFFCURVE",
"84 496 CURVE",
"94 430 LINE",
"112 434 OFFCURVE",
"131 437 OFFCURVE",
"151 437 CURVE SMOOTH",
"208 437 OFFCURVE",
"250 408 OFFCURVE",
"250 348 CURVE SMOOTH",
"250 285 OFFCURVE",
"198 258 OFFCURVE",
"128 253 CURVE SMOOTH",
"77 249 LINE",
"77 241 LINE SMOOTH",
"77 112 OFFCURVE",
"165 19 OFFCURVE",
"324 19 CURVE SMOOTH",
"482 19 OFFCURVE",
"563 100 OFFCURVE",
"563 239 CURVE SMOOTH",
"563 561 LINE",
"673 561 LINE",
"673 622 LINE",
"-10 622 LINE",
"-10 561 LINE"
);
}
);
};
guideLines = (
{
angle = 90;
position = "{657, 566}";
}
);
layerId = "1D9335A4-69BC-4202-817B-D13DAA30F854";
paths = (
{
closed = 1;
nodes = (
"482 19 OFFCURVE",
"563 100 OFFCURVE",
"563 239 CURVE SMOOTH",
"563 561 LINE",
"673 561 LINE",
"673 622 LINE",
"-10 622 LINE",
"-10 561 LINE",
"485 561 LINE",
"485 239 LINE SMOOTH",
"485 142 OFFCURVE",
"426 87 OFFCURVE",
"325 87 CURVE SMOOTH",
"247 87 OFFCURVE",
"188 122 OFFCURVE",
"165 191 CURVE",
"245 199 OFFCURVE",
"328 241 OFFCURVE",
"328 347 CURVE SMOOTH",
"328 450 OFFCURVE",
"253 505 OFFCURVE",
"154 505 CURVE SMOOTH",
"129 505 OFFCURVE",
"105 501 OFFCURVE",
"84 496 CURVE",
"94 430 LINE",
"112 434 OFFCURVE",
"131 437 OFFCURVE",
"151 437 CURVE SMOOTH",
"208 437 OFFCURVE",
"250 408 OFFCURVE",
"250 348 CURVE SMOOTH",
"250 285 OFFCURVE",
"198 258 OFFCURVE",
"128 253 CURVE SMOOTH",
"77 249 LINE",
"77 241 LINE SMOOTH",
"77 112 OFFCURVE",
"165 19 OFFCURVE",
"324 19 CURVE SMOOTH"
);
}
);
width = 663;
},
{
anchors = (
{
name = bottom;
position = "{395, -28}";
},
{
name = top;
position = "{560, 662}";
}
);
layerId = "37631205-D7B2-4E6B-9DD1-7005090CBFCA";
paths = (
{
closed = 1;
nodes = (
"526 15 OFFCURVE",
"611 103 OFFCURVE",
"611 274 CURVE SMOOTH",
"611 521 LINE",
"707 521 LINE",
"707 622 LINE",
"-10 622 LINE",
"-10 521 LINE",
"477 521 LINE",
"477 264 LINE SMOOTH",
"477 172 OFFCURVE",
"439 125 OFFCURVE",
"355 125 CURVE SMOOTH",
"299 125 OFFCURVE",
"257 150 OFFCURVE",
"244 195 CURVE",
"318 213 OFFCURVE",
"367 262 OFFCURVE",
"367 337 CURVE SMOOTH",
"367 443 OFFCURVE",
"298 494 OFFCURVE",
"189 494 CURVE SMOOTH",
"155 494 OFFCURVE",
"114 486 OFFCURVE",
"88 477 CURVE",
"106 374 LINE",
"122 379 OFFCURVE",
"154 386 OFFCURVE",
"178 386 CURVE SMOOTH",
"214 386 OFFCURVE",
"233 369 OFFCURVE",
"233 337 CURVE SMOOTH",
"233 297 OFFCURVE",
"203 275 OFFCURVE",
"150 269 CURVE SMOOTH",
"96 263 LINE",
"96 240 LINE SMOOTH",
"96 98 OFFCURVE",
"202 15 OFFCURVE",
"355 15 CURVE SMOOTH"
);
}
);
width = 697;
}
);
rightKerningGroup = Na.GGondi;
unicode = 11D6D;
category = Letter;
userData = {
com.typemytype.robofont.mark = (
0.835,
1,
0.6,
1
);
};
},
{
color = 4;
glyphname = Ba.GGondi;
lastChange = "2021-10-18 08:30:41 +0000";
layers = (
{
anchors = (
{
name = bottom;
position = "{409, -28}";
},
{
name = top;
position = "{577, 656}";
}
);
background = {
anchors = (
{
name = bottom;
position = "{409, -28}";
},
{
name = top;
position = "{577, 656}";
}
);
paths = (
{
closed = 1;
nodes = (
"538 561 LINE",
"538 226 LINE SMOOTH",
"538 135 OFFCURVE",
"493 87 OFFCURVE",
"414 87 CURVE SMOOTH",
"322 87 OFFCURVE",
"284 136 OFFCURVE",
"282 191 CURVE",
"284 274 OFFCURVE",
"326 308 OFFCURVE",
"326 379 CURVE SMOOTH",
"326 450 OFFCURVE",
"269 497 OFFCURVE",
"191 497 CURVE SMOOTH",
"122 497 OFFCURVE",
"56 457 OFFCURVE",
"56 373 CURVE SMOOTH",
"56 310 OFFCURVE",
"99 263 OFFCURVE",
"170 255 CURVE",
"183 317 LINE",
"153 323 OFFCURVE",
"134 342 OFFCURVE",
"134 376 CURVE SMOOTH",
"134 404 OFFCURVE",
"154 431 OFFCURVE",
"192 431 CURVE SMOOTH",
"227 431 OFFCURVE",
"248 407 OFFCURVE",
"248 376 CURVE SMOOTH",
"248 320 OFFCURVE",
"202 273 OFFCURVE",
"202 190 CURVE SMOOTH",
"202 84 OFFCURVE",
"286 19 OFFCURVE",
"413 19 CURVE SMOOTH",
"539 20 OFFCURVE",
"616 88 OFFCURVE",
"616 225 CURVE SMOOTH",
"616 561 LINE",
"726 561 LINE",
"726 622 LINE",
"-10 622 LINE",
"-10 561 LINE"
);
}
);
};
layerId = "1D9335A4-69BC-4202-817B-D13DAA30F854";
paths = (
{
closed = 1;
nodes = (
"539 20 OFFCURVE",
"616 88 OFFCURVE",
"616 225 CURVE SMOOTH",
"616 561 LINE",
"726 561 LINE",
"726 622 LINE",
"-10 622 LINE",
"-10 561 LINE",
"538 561 LINE",
"538 226 LINE SMOOTH",
"538 135 OFFCURVE",
"493 87 OFFCURVE",
"414 87 CURVE SMOOTH",
"322 87 OFFCURVE",
"284 136 OFFCURVE",
"282 191 CURVE",
"284 274 OFFCURVE",
"326 308 OFFCURVE",
"326 379 CURVE SMOOTH",
"326 450 OFFCURVE",
"269 497 OFFCURVE",
"191 497 CURVE SMOOTH",
"122 497 OFFCURVE",
"56 457 OFFCURVE",
"56 373 CURVE SMOOTH",
"56 310 OFFCURVE",
"99 263 OFFCURVE",
"170 255 CURVE",
"183 317 LINE",
"153 323 OFFCURVE",
"134 342 OFFCURVE",
"134 376 CURVE SMOOTH",
"134 404 OFFCURVE",
"154 431 OFFCURVE",
"192 431 CURVE SMOOTH",
"227 431 OFFCURVE",
"248 407 OFFCURVE",
"248 376 CURVE SMOOTH",
"248 320 OFFCURVE",
"202 273 OFFCURVE",
"202 190 CURVE SMOOTH",
"202 84 OFFCURVE",
"286 19 OFFCURVE",
"413 19 CURVE SMOOTH"
);
}
);
width = 716;
},
{
anchors = (
{
name = bottom;
position = "{469, -28}";
},
{
name = top;
position = "{637, 662}";
}
);
layerId = "37631205-D7B2-4E6B-9DD1-7005090CBFCA";
paths = (
{
closed = 1;
nodes = (
"616 15 OFFCURVE",
"701 103 OFFCURVE",
"701 274 CURVE SMOOTH",
"701 521 LINE",
"797 521 LINE",
"797 622 LINE",
"-10 622 LINE",
"-8 521 LINE",
"567 521 LINE",
"567 264 LINE SMOOTH",
"567 172 OFFCURVE",
"529 125 OFFCURVE",
"465 125 CURVE SMOOTH",
"412 125 OFFCURVE",
"382 150 OFFCURVE",
"382 192 CURVE SMOOTH",
"382 241 OFFCURVE",
"414 288 OFFCURVE",
"414 345 CURVE SMOOTH",
"414 453 OFFCURVE",
"342 499 OFFCURVE",
"241 499 CURVE SMOOTH",
"138 499 OFFCURVE",
"65 434 OFFCURVE",
"65 342 CURVE SMOOTH",
"65 252 OFFCURVE",
"123 201 OFFCURVE",
"214 190 CURVE",
"239 293 LINE",
"216 296 OFFCURVE",
"199 315 OFFCURVE",
"199 342 CURVE SMOOTH",
"199 368 OFFCURVE",
"218 388 OFFCURVE",
"242 388 CURVE SMOOTH",
"271 388 OFFCURVE",
"284 367 OFFCURVE",
"284 345 CURVE SMOOTH",
"284 293 OFFCURVE",
"252 244 OFFCURVE",
"252 182 CURVE SMOOTH",
"252 82 OFFCURVE",
"330 15 OFFCURVE",
"465 15 CURVE SMOOTH"
);
}
);
width = 787;
}
);
rightKerningGroup = Na.GGondi;
unicode = 11D6E;
category = Letter;
userData = {
com.typemytype.robofont.mark = (
0.835,
1,
0.6,
1
);
};
},
{
color = 7;
glyphname = Bha.GGondi;
lastChange = "2021-10-18 08:30:41 +0000";
layers = (
{
anchors = (
{
name = bottom;
position = "{759, -28}";
},
{
name = top;
position = "{817, 656}";
}
);
background = {
anchors = (
{
name = bottom;
position = "{759, -28}";
},
{
name = top;
position = "{817, 656}";
}
);
paths = (
{
closed = 1;
nodes = (
"778 561 LINE",
"779 549 OFFCURVE",
"779 538 OFFCURVE",
"779 526 CURVE SMOOTH",
"779 473 OFFCURVE",
"771 418 OFFCURVE",
"760 374 CURVE",
"728 396 OFFCURVE",
"673 411 OFFCURVE",
"594 411 CURVE SMOOTH",
"450 411 LINE",
"450 347 LINE",
"480 323 OFFCURVE",
"508 276 OFFCURVE",
"508 212 CURVE SMOOTH",
"508 146 OFFCURVE",
"469 107 OFFCURVE",
"404 107 CURVE SMOOTH",
"346 107 OFFCURVE",
"302 141 OFFCURVE",
"302 203 CURVE SMOOTH",
"302 262 OFFCURVE",
"326 311 OFFCURVE",
"326 376 CURVE SMOOTH",
"326 449 OFFCURVE",
"267 497 OFFCURVE",
"187 497 CURVE SMOOTH",
"120 497 OFFCURVE",
"56 457 OFFCURVE",
"56 373 CURVE SMOOTH",
"56 310 OFFCURVE",
"99 263 OFFCURVE",
"170 255 CURVE",
"183 317 LINE",
"153 323 OFFCURVE",
"134 342 OFFCURVE",
"134 376 CURVE SMOOTH",
"134 404 OFFCURVE",
"153 431 OFFCURVE",
"188 431 CURVE SMOOTH",
"226 431 OFFCURVE",
"248 406 OFFCURVE",
"248 373 CURVE SMOOTH",
"248 322 OFFCURVE",
"222 271 OFFCURVE",
"222 202 CURVE SMOOTH",
"222 99 OFFCURVE",
"298 39 OFFCURVE",
"406 39 CURVE SMOOTH",
"519 39 OFFCURVE",
"586 102 OFFCURVE",
"586 206 CURVE SMOOTH",
"586 268 OFFCURVE",
"569 313 OFFCURVE",
"540 343 CURVE",
"592 343 LINE SMOOTH",
"671 343 OFFCURVE",
"707 331 OFFCURVE",
"737 313 CURVE",
"714 244 OFFCURVE",
"697 193 OFFCURVE",
"697 143 CURVE SMOOTH",
"697 67 OFFCURVE",
"745 38 OFFCURVE",
"797 38 CURVE SMOOTH",
"858 38 OFFCURVE",
"897 75 OFFCURVE",
"897 151 CURVE SMOOTH",
"897 232 OFFCURVE",
"863 293 OFFCURVE",
"824 331 CURVE",
"841 377 OFFCURVE",
"858 458 OFFCURVE",
"858 530 CURVE SMOOTH",
"858 541 OFFCURVE",
"857 551 OFFCURVE",
"857 561 CURVE",
"999 561 LINE",
"999 622 LINE",
"-10 622 LINE",
"-10 561 LINE"
);
},
{
closed = 1;
nodes = (
"770 178 OFFCURVE",
"778 213 OFFCURVE",
"795 270 CURVE",
"813 245 OFFCURVE",
"825 205 OFFCURVE",
"825 153 CURVE SMOOTH",
"825 118 OFFCURVE",
"815 99 OFFCURVE",
"797 99 CURVE SMOOTH",
"780 99 OFFCURVE",
"770 114 OFFCURVE",
"770 145 CURVE SMOOTH"
);
}
);
};
layerId = "1D9335A4-69BC-4202-817B-D13DAA30F854";
paths = (
{
closed = 1;
nodes = (
"858 38 OFFCURVE",
"897 75 OFFCURVE",
"897 151 CURVE SMOOTH",
"897 232 OFFCURVE",
"863 293 OFFCURVE",
"824 331 CURVE",
"841 377 OFFCURVE",
"858 458 OFFCURVE",
"858 530 CURVE SMOOTH",
"858 541 OFFCURVE",
"857 551 OFFCURVE",
"857 561 CURVE",
"999 561 LINE",
"999 622 LINE",
"-10 622 LINE",
"-10 561 LINE",
"778 561 LINE",
"779 549 OFFCURVE",
"779 538 OFFCURVE",
"779 526 CURVE SMOOTH",
"779 473 OFFCURVE",
"771 418 OFFCURVE",
"760 374 CURVE",
"728 396 OFFCURVE",
"673 411 OFFCURVE",
"594 411 CURVE SMOOTH",
"450 411 LINE",
"450 347 LINE",
"480 323 OFFCURVE",
"508 276 OFFCURVE",
"508 212 CURVE SMOOTH",
"508 146 OFFCURVE",
"469 107 OFFCURVE",
"404 107 CURVE SMOOTH",
"346 107 OFFCURVE",
"302 141 OFFCURVE",
"302 203 CURVE SMOOTH",
"302 262 OFFCURVE",
"326 311 OFFCURVE",
"326 376 CURVE SMOOTH",
"326 449 OFFCURVE",
"267 497 OFFCURVE",
"187 497 CURVE SMOOTH",
"120 497 OFFCURVE",
"56 457 OFFCURVE",
"56 373 CURVE SMOOTH",
"56 310 OFFCURVE",
"99 263 OFFCURVE",
"170 255 CURVE",
"183 317 LINE",
"153 323 OFFCURVE",
"134 342 OFFCURVE",
"134 376 CURVE SMOOTH",
"134 404 OFFCURVE",
"153 431 OFFCURVE",
"188 431 CURVE SMOOTH",
"226 431 OFFCURVE",
"248 406 OFFCURVE",
"248 373 CURVE SMOOTH",
"248 322 OFFCURVE",
"222 271 OFFCURVE",
"222 202 CURVE SMOOTH",
"222 99 OFFCURVE",
"298 39 OFFCURVE",
"406 39 CURVE SMOOTH",
"519 39 OFFCURVE",
"586 102 OFFCURVE",
"586 206 CURVE SMOOTH",
"586 268 OFFCURVE",
"569 313 OFFCURVE",
"540 343 CURVE",
"592 343 LINE SMOOTH",
"671 343 OFFCURVE",
"707 331 OFFCURVE",
"737 313 CURVE",
"714 244 OFFCURVE",
"697 193 OFFCURVE",
"697 143 CURVE SMOOTH",
"697 67 OFFCURVE",
"745 38 OFFCURVE",
"797 38 CURVE SMOOTH"
);
},
{
closed = 1;
nodes = (
"780 99 OFFCURVE",
"770 114 OFFCURVE",
"770 145 CURVE SMOOTH",
"770 178 OFFCURVE",
"778 213 OFFCURVE",
"795 270 CURVE",
"813 245 OFFCURVE",
"825 205 OFFCURVE",
"825 153 CURVE SMOOTH",
"825 118 OFFCURVE",
"815 99 OFFCURVE",
"797 99 CURVE SMOOTH"
);
}
);
width = 989;
},
{
anchors = (
{
name = bottom;
position = "{749, -28}";
},
{
name = top;
position = "{804, 662}";
}
);
layerId = "37631205-D7B2-4E6B-9DD1-7005090CBFCA";
paths = (
{
closed = 1;
nodes = (
"920 38 OFFCURVE",
"990 83 OFFCURVE",
"990 182 CURVE SMOOTH",
"990 263 OFFCURVE",
"942 320 OFFCURVE",
"866 359 CURVE",
"881 403 OFFCURVE",
"888 444 OFFCURVE",
"888 490 CURVE SMOOTH",
"888 500 OFFCURVE",
"888 511 OFFCURVE",
"888 521 CURVE",
"1033 521 LINE",
"1033 622 LINE",
"-10 622 LINE",
"-10 521 LINE",
"759 521 LINE",
"759 509 OFFCURVE",
"759 498 OFFCURVE",
"759 486 CURVE SMOOTH",
"759 472 OFFCURVE",
"758 428 OFFCURVE",
"751 396 CURVE",
"717 407 OFFCURVE",
"673 413 OFFCURVE",
"597 413 CURVE SMOOTH",
"441 413 LINE",
"441 312 LINE",
"472 273 OFFCURVE",
"481 251 OFFCURVE",
"481 218 CURVE SMOOTH",
"481 174 OFFCURVE",
"455 149 OFFCURVE",
"423 149 CURVE SMOOTH",
"387 149 OFFCURVE",
"364 174 OFFCURVE",
"364 216 CURVE SMOOTH",
"364 255 OFFCURVE",
"387 298 OFFCURVE",
"387 345 CURVE SMOOTH",
"387 453 OFFCURVE",
"315 499 OFFCURVE",
"214 499 CURVE SMOOTH",
"111 499 OFFCURVE",
"41 436 OFFCURVE",
"41 344 CURVE SMOOTH",
"41 254 OFFCURVE",
"95 203 OFFCURVE",
"190 191 CURVE",
"215 294 LINE",
"192 298 OFFCURVE",
"172 317 OFFCURVE",
"172 344 CURVE SMOOTH",
"172 371 OFFCURVE",
"191 388 OFFCURVE",
"215 388 CURVE SMOOTH",
"244 388 OFFCURVE",
"257 367 OFFCURVE",
"257 345 CURVE SMOOTH",
"257 303 OFFCURVE",
"234 258 OFFCURVE",
"234 206 CURVE SMOOTH",
"234 105 OFFCURVE",
"302 39 OFFCURVE",
"423 39 CURVE SMOOTH",
"549 39 OFFCURVE",
"615 107 OFFCURVE",
"615 218 CURVE SMOOTH",
"615 262 OFFCURVE",
"600 288 OFFCURVE",
"578 313 CURVE",
"628 313 LINE SMOOTH",
"670 313 OFFCURVE",
"704 307 OFFCURVE",
"721 300 CURVE",
"687 258 OFFCURVE",
"667 222 OFFCURVE",
"667 176 CURVE SMOOTH",
"667 83 OFFCURVE",
"731 38 OFFCURVE",
"828 38 CURVE SMOOTH"
);
},
{
closed = 1;
nodes = (
"812 148 OFFCURVE",
"802 163 OFFCURVE",
"802 184 CURVE SMOOTH",
"802 204 OFFCURVE",
"812 231 OFFCURVE",
"827 247 CURVE",
"844 231 OFFCURVE",
"855 204 OFFCURVE",
"855 184 CURVE SMOOTH",
"855 163 OFFCURVE",
"847 148 OFFCURVE",
"828 148 CURVE SMOOTH"
);
}
);
width = 1023;
}
);
unicode = 11D6F;
category = Letter;
userData = {
com.typemytype.robofont.mark = (
0.835,
1,
0.6,
1
);
};
},
{
color = 9;
glyphname = Ma.GGondi;
lastChange = "2021-10-18 08:30:41 +0000";
layers = (
{
anchors = (
{
name = bottom;
position = "{502, -28}";
},
{
name = top;
position = "{696, 656}";
}
);
background = {
anchors = (
{
name = bottom;
position = "{502, -28}";
},
{
name = top;
position = "{696, 656}";
}
);
paths = (
{
closed = 1;
nodes = (
"280 561 LINE",
"281 480 OFFCURVE",
"298 434 OFFCURVE",
"313 400 CURVE",
"313 390 OFFCURVE",
"314 379 OFFCURVE",
"314 364 CURVE SMOOTH",
"314 313 OFFCURVE",
"279 265 OFFCURVE",
"217 265 CURVE SMOOTH",
"169 265 OFFCURVE",
"126 295 OFFCURVE",
"126 354 CURVE SMOOTH",
"126 405 OFFCURVE",
"161 438 OFFCURVE",
"208 438 CURVE SMOOTH",
"218 438 OFFCURVE",
"225 438 OFFCURVE",
"237 436 CURVE",
"243 501 LINE",
"233 503 OFFCURVE",
"220 504 OFFCURVE",
"204 504 CURVE SMOOTH",
"117 504 OFFCURVE",
"48 446 OFFCURVE",
"48 351 CURVE SMOOTH",
"48 254 OFFCURVE",
"127 199 OFFCURVE",
"210 199 CURVE SMOOTH",
"299 199 OFFCURVE",
"352 251 OFFCURVE",
"366 308 CURVE",
"389 277 OFFCURVE",
"417 251 OFFCURVE",
"448 227 CURVE",
"415 201 OFFCURVE",
"384 167 OFFCURVE",
"384 112 CURVE SMOOTH",
"384 45 OFFCURVE",
"438 3 OFFCURVE",
"514 3 CURVE SMOOTH",
"591 3 OFFCURVE",
"640 48 OFFCURVE",
"640 112 CURVE SMOOTH",
"640 161 OFFCURVE",
"607 203 OFFCURVE",
"572 228 CURVE",
"644 282 OFFCURVE",
"735 377 OFFCURVE",
"735 554 CURVE SMOOTH",
"735 561 LINE",
"828 561 LINE",
"828 622 LINE",
"-10 622 LINE",
"-10 561 LINE"
);
},
{
closed = 1;
nodes = (
"655 561 LINE",
"655 554 LINE SMOOTH",
"655 400 OFFCURVE",
"580 318 OFFCURVE",
"508 263 CURVE",
"443 315 OFFCURVE",
"357 394 OFFCURVE",
"360 561 CURVE"
);
},
{
closed = 1;
nodes = (
"464 150 OFFCURVE",
"483 171 OFFCURVE",
"510 195 CURVE",
"542 176 OFFCURVE",
"562 150 OFFCURVE",
"562 120 CURVE SMOOTH",
"562 93 OFFCURVE",
"543 71 OFFCURVE",
"513 71 CURVE SMOOTH",
"480 71 OFFCURVE",
"464 92 OFFCURVE",
"464 118 CURVE SMOOTH"
);
}
);
};
layerId = "1D9335A4-69BC-4202-817B-D13DAA30F854";
paths = (
{
closed = 1;
nodes = (
"591 3 OFFCURVE",
"640 48 OFFCURVE",
"640 112 CURVE SMOOTH",
"640 161 OFFCURVE",
"607 203 OFFCURVE",
"572 228 CURVE",
"644 282 OFFCURVE",
"735 377 OFFCURVE",
"735 554 CURVE SMOOTH",
"735 561 LINE",
"828 561 LINE",
"828 622 LINE",
"-10 622 LINE",
"-10 561 LINE",
"280 561 LINE",
"281 480 OFFCURVE",
"298 434 OFFCURVE",
"313 400 CURVE",
"313 390 OFFCURVE",
"314 379 OFFCURVE",
"314 364 CURVE SMOOTH",
"314 313 OFFCURVE",
"279 265 OFFCURVE",
"217 265 CURVE SMOOTH",
"169 265 OFFCURVE",
"126 295 OFFCURVE",
"126 354 CURVE SMOOTH",
"126 405 OFFCURVE",
"161 438 OFFCURVE",
"208 438 CURVE SMOOTH",
"218 438 OFFCURVE",
"225 438 OFFCURVE",
"237 436 CURVE",
"243 501 LINE",
"233 503 OFFCURVE",
"220 504 OFFCURVE",
"204 504 CURVE SMOOTH",
"117 504 OFFCURVE",
"48 446 OFFCURVE",
"48 351 CURVE SMOOTH",
"48 254 OFFCURVE",
"127 199 OFFCURVE",
"210 199 CURVE SMOOTH",
"299 199 OFFCURVE",
"352 251 OFFCURVE",
"366 308 CURVE",
"389 277 OFFCURVE",
"417 251 OFFCURVE",
"448 227 CURVE",
"415 201 OFFCURVE",
"384 167 OFFCURVE",
"384 112 CURVE SMOOTH",
"384 45 OFFCURVE",
"438 3 OFFCURVE",
"514 3 CURVE SMOOTH"
);
},
{
closed = 1;
nodes = (
"480 71 OFFCURVE",
"464 92 OFFCURVE",
"464 118 CURVE SMOOTH",
"464 150 OFFCURVE",
"483 171 OFFCURVE",
"510 195 CURVE",
"542 176 OFFCURVE",
"562 150 OFFCURVE",
"562 120 CURVE SMOOTH",
"562 93 OFFCURVE",
"543 71 OFFCURVE",
"513 71 CURVE SMOOTH"
);
},
{
closed = 1;
nodes = (
"443 315 OFFCURVE",
"357 394 OFFCURVE",
"360 561 CURVE",
"655 561 LINE",
"655 554 LINE SMOOTH",
"655 400 OFFCURVE",
"580 318 OFFCURVE",
"508 263 CURVE"
);
}
);
width = 798;
},
{
anchors = (
{
name = bottom;
position = "{522, -28}";
},
{
name = top;
position = "{696, 662}";
}
);
layerId = "37631205-D7B2-4E6B-9DD1-7005090CBFCA";
paths = (
{
closed = 1;
nodes = (
"626 3 OFFCURVE",
"685 54 OFFCURVE",
"685 122 CURVE SMOOTH",
"685 175 OFFCURVE",
"654 210 OFFCURVE",
"619 231 CURVE",
"701 299 OFFCURVE",
"747 392 OFFCURVE",
"747 514 CURVE SMOOTH",
"747 521 LINE",
"844 521 LINE",
"844 622 LINE",
"-10 622 LINE",
"-10 521 LINE",
"287 521 LINE",
"287 475 OFFCURVE",
"291 429 OFFCURVE",
"307 383 CURVE",
"308 378 OFFCURVE",
"308 373 OFFCURVE",
"308 368 CURVE SMOOTH",
"308 313 OFFCURVE",
"271 294 OFFCURVE",
"240 294 CURVE SMOOTH",
"204 294 OFFCURVE",
"184 313 OFFCURVE",
"184 342 CURVE SMOOTH",
"184 367 OFFCURVE",
"201 387 OFFCURVE",
"227 387 CURVE SMOOTH",
"237 387 OFFCURVE",
"251 385 OFFCURVE",
"259 382 CURVE",
"266 490 LINE",
"253 494 OFFCURVE",
"232 495 OFFCURVE",
"218 495 CURVE SMOOTH",
"118 495 OFFCURVE",
"50 434 OFFCURVE",
"50 342 CURVE SMOOTH",
"50 272 OFFCURVE",
"93 184 OFFCURVE",
"230 184 CURVE SMOOTH",
"306 184 OFFCURVE",
"350 225 OFFCURVE",
"370 275 CURVE",
"385 258 OFFCURVE",
"402 243 OFFCURVE",
"426 228 CURVE",
"383 202 OFFCURVE",
"362 169 OFFCURVE",
"362 123 CURVE SMOOTH",
"362 55 OFFCURVE",
"417 3 OFFCURVE",
"521 3 CURVE SMOOTH"
);
},
{
closed = 1;
nodes = (
"507 102 OFFCURVE",
"497 117 OFFCURVE",
"497 138 CURVE SMOOTH",
"497 154 OFFCURVE",
"507 177 OFFCURVE",
"522 193 CURVE",
"539 177 OFFCURVE",
"550 154 OFFCURVE",
"550 138 CURVE SMOOTH",
"550 117 OFFCURVE",
"542 102 OFFCURVE",
"523 102 CURVE SMOOTH"
);
},
{
closed = 1;
nodes = (
"443 342 OFFCURVE",
"410 417 OFFCURVE",
"410 521 CURVE",
"624 521 LINE",
"624 514 LINE",
"624 417 OFFCURVE",
"591 342 OFFCURVE",
"517 285 CURVE"
);
}
);
width = 834;
},
{
associatedMasterId = "37631205-D7B2-4E6B-9DD1-7005090CBFCA";
layerId = "A66A7CB8-A369-410A-972E-EC081524D940";
name = "12 Oct 21, 16:42";
paths = (
{
closed = 1;
nodes = (
"493 94 OFFCURVE",
"482 113 OFFCURVE",
"482 132 CURVE SMOOTH",
"482 160 OFFCURVE",
"495 183 OFFCURVE",
"515 203 CURVE",
"535 183 OFFCURVE",
"548 160 OFFCURVE",
"548 132 CURVE SMOOTH",
"548 113 OFFCURVE",
"537 94 OFFCURVE",
"515 94 CURVE SMOOTH"
);
},
{
closed = 1;
nodes = (
"443 315 OFFCURVE",
"357 394 OFFCURVE",
"360 561 CURVE",
"628 561 LINE",
"628 554 LINE SMOOTH",
"628 400 OFFCURVE",
"580 318 OFFCURVE",
"508 263 CURVE"
);
},
{
closed = 1;
nodes = (
"280 561 LINE",
"282 404 OFFCURVE",
"350 303 OFFCURVE",
"418 227 CURVE",
"385 201 OFFCURVE",
"352 167 OFFCURVE",
"352 112 CURVE SMOOTH",
"352 45 OFFCURVE",
"438 3 OFFCURVE",
"514 3 CURVE SMOOTH",
"591 3 OFFCURVE",
"678 48 OFFCURVE",
"678 112 CURVE SMOOTH",
"678 161 OFFCURVE",
"637 203 OFFCURVE",
"602 228 CURVE",
"644 282 OFFCURVE",
"763 377 OFFCURVE",
"763 554 CURVE SMOOTH",
"763 561 LINE",
"828 561 LINE",
"828 622 LINE",
"-10 622 LINE",
"-10 561 LINE"
);
},
{
closed = 1;
nodes = (
"297 199 OFFCURVE",
"350 249 OFFCURVE",
"365 305 CURVE",
"314 376 LINE",
"314 372 OFFCURVE",
"314 368 OFFCURVE",
"314 364 CURVE SMOOTH",
"314 313 OFFCURVE",
"279 265 OFFCURVE",
"217 265 CURVE SMOOTH",
"169 265 OFFCURVE",
"126 295 OFFCURVE",
"126 354 CURVE SMOOTH",
"126 405 OFFCURVE",
"161 438 OFFCURVE",
"208 438 CURVE SMOOTH",
"218 438 OFFCURVE",
"225 438 OFFCURVE",
"237 436 CURVE",
"243 501 LINE",
"233 503 OFFCURVE",
"220 504 OFFCURVE",
"204 504 CURVE SMOOTH",
"117 504 OFFCURVE",
"48 446 OFFCURVE",
"48 351 CURVE SMOOTH",
"48 254 OFFCURVE",
"127 199 OFFCURVE",
"210 199 CURVE SMOOTH"
);
}
);
width = 600;
}
);
rightKerningGroup = Ya.GGondi;
unicode = 11D70;
category = Letter;
userData = {
com.typemytype.robofont.mark = (
0.835,
1,
0.6,
1
);
};
},
{
color = 7;
glyphname = Ka.GGondi;
lastChange = "2021-10-18 08:30:41 +0000";
layers = (
{
anchors = (
{
name = bottom;
position = "{678, -28}";
},
{
name = top;
position = "{736, 656}";
}
);
background = {
anchors = (
{
name = bottom;
position = "{678, -28}";
},
{
name = top;
position = "{736, 656}";
}
);
paths = (
{
closed = 1;
nodes = (
"448 561 LINE",
"450 550 OFFCURVE",
"452 537 OFFCURVE",
"452 522 CURVE SMOOTH",
"452 508 OFFCURVE",
"451 496 OFFCURVE",
"449 483 CURVE",
"424 487 OFFCURVE",
"396 489 OFFCURVE",
"369 489 CURVE SMOOTH",
"188 489 OFFCURVE",
"60 396 OFFCURVE",
"60 222 CURVE SMOOTH",
"60 69 OFFCURVE",
"164 -9 OFFCURVE",
"301 -9 CURVE SMOOTH",
"436 -9 OFFCURVE",
"497 59 OFFCURVE",
"497 148 CURVE SMOOTH",
"497 228 OFFCURVE",
"434 276 OFFCURVE",
"373 284 CURVE",
"424 296 OFFCURVE",
"481 346 OFFCURVE",
"502 398 CURVE",
"562 381 OFFCURVE",
"626 342 OFFCURVE",
"657 309 CURVE",
"628 239 OFFCURVE",
"616 186 OFFCURVE",
"616 138 CURVE SMOOTH",
"616 66 OFFCURVE",
"664 38 OFFCURVE",
"716 38 CURVE SMOOTH",
"777 38 OFFCURVE",
"816 73 OFFCURVE",
"816 146 CURVE SMOOTH",
"816 217 OFFCURVE",
"781 277 OFFCURVE",
"743 318 CURVE",
"761 364 OFFCURVE",
"777 444 OFFCURVE",
"777 518 CURVE SMOOTH",
"777 532 OFFCURVE",
"776 547 OFFCURVE",
"776 561 CURVE",
"918 561 LINE",
"918 622 LINE",
"504 622 LINE",
"469 708 OFFCURVE",
"379 756 OFFCURVE",
"269 756 CURVE SMOOTH",
"205 756 OFFCURVE",
"140 738 OFFCURVE",
"100 711 CURVE",
"129 653 LINE",
"164 674 OFFCURVE",
"215 693 OFFCURVE",
"271 693 CURVE SMOOTH",
"331 693 OFFCURVE",
"393 673 OFFCURVE",
"425 622 CURVE",
"-10 622 LINE",
"-10 561 LINE"
);
},
{
closed = 1;
nodes = (
"138 354 OFFCURVE",
"226 421 OFFCURVE",
"374 421 CURVE SMOOTH",
"385 421 OFFCURVE",
"408 420 OFFCURVE",
"429 416 CURVE",
"401 350 OFFCURVE",
"342 311 OFFCURVE",
"257 311 CURVE",
"257 250 LINE",
"273 250 LINE SMOOTH",
"369 250 OFFCURVE",
"420 223 OFFCURVE",
"420 153 CURVE SMOOTH",
"420 105 OFFCURVE",
"386 55 OFFCURVE",
"298 55 CURVE SMOOTH",
"210 55 OFFCURVE",
"138 114 OFFCURVE",
"138 222 CURVE SMOOTH"
);
},
{
closed = 1;
nodes = (
"526 480 OFFCURVE",
"528 497 OFFCURVE",
"528 519 CURVE SMOOTH",
"528 535 OFFCURVE",
"527 547 OFFCURVE",
"524 561 CURVE",
"697 561 LINE",
"698 545 OFFCURVE",
"698 530 OFFCURVE",
"698 514 CURVE SMOOTH",
"698 467 OFFCURVE",
"692 418 OFFCURVE",
"683 377 CURVE",
"646 410 OFFCURVE",
"581 446 OFFCURVE",
"522 464 CURVE"
);
},
{
closed = 1;
nodes = (
"689 175 OFFCURVE",
"696 206 OFFCURVE",
"713 258 CURVE",
"732 231 OFFCURVE",
"744 191 OFFCURVE",
"744 148 CURVE SMOOTH",
"744 116 OFFCURVE",
"734 99 OFFCURVE",
"716 99 CURVE SMOOTH",
"699 99 OFFCURVE",
"689 112 OFFCURVE",
"689 140 CURVE SMOOTH"
);
}
);
};
guideLines = (
{
angle = 90;
position = "{880, 608}";
}
);
layerId = "1D9335A4-69BC-4202-817B-D13DAA30F854";
paths = (
{
closed = 1;
nodes = (
"436 -9 OFFCURVE",
"497 59 OFFCURVE",
"497 148 CURVE SMOOTH",
"497 228 OFFCURVE",
"434 276 OFFCURVE",
"373 284 CURVE",
"424 296 OFFCURVE",
"481 346 OFFCURVE",
"502 398 CURVE",
"562 381 OFFCURVE",
"626 342 OFFCURVE",
"657 309 CURVE",
"628 239 OFFCURVE",
"616 186 OFFCURVE",
"616 138 CURVE SMOOTH",
"616 66 OFFCURVE",
"664 38 OFFCURVE",
"716 38 CURVE SMOOTH",
"777 38 OFFCURVE",
"816 73 OFFCURVE",
"816 146 CURVE SMOOTH",
"816 217 OFFCURVE",
"781 277 OFFCURVE",
"743 318 CURVE",
"761 364 OFFCURVE",
"777 444 OFFCURVE",
"777 518 CURVE SMOOTH",
"777 532 OFFCURVE",
"776 547 OFFCURVE",
"776 561 CURVE",
"918 561 LINE",
"918 622 LINE",
"504 622 LINE",
"469 708 OFFCURVE",
"379 756 OFFCURVE",
"269 756 CURVE SMOOTH",
"205 756 OFFCURVE",
"140 738 OFFCURVE",
"100 711 CURVE",
"129 653 LINE",
"164 674 OFFCURVE",
"215 693 OFFCURVE",
"271 693 CURVE SMOOTH",
"331 693 OFFCURVE",
"393 673 OFFCURVE",
"425 622 CURVE",
"-10 622 LINE",
"-10 561 LINE",
"448 561 LINE",
"450 550 OFFCURVE",
"452 537 OFFCURVE",
"452 522 CURVE SMOOTH",
"452 508 OFFCURVE",
"451 496 OFFCURVE",
"449 483 CURVE",
"424 487 OFFCURVE",
"396 489 OFFCURVE",
"369 489 CURVE SMOOTH",
"188 489 OFFCURVE",
"60 396 OFFCURVE",
"60 222 CURVE SMOOTH",
"60 69 OFFCURVE",
"164 -9 OFFCURVE",
"301 -9 CURVE SMOOTH"
);
},
{
closed = 1;
nodes = (
"210 55 OFFCURVE",
"138 114 OFFCURVE",
"138 222 CURVE SMOOTH",
"138 354 OFFCURVE",
"226 421 OFFCURVE",
"374 421 CURVE SMOOTH",
"385 421 OFFCURVE",
"408 420 OFFCURVE",
"429 416 CURVE",
"401 350 OFFCURVE",
"342 311 OFFCURVE",
"257 311 CURVE",
"257 250 LINE",
"273 250 LINE SMOOTH",
"369 250 OFFCURVE",
"420 223 OFFCURVE",
"420 153 CURVE SMOOTH",
"420 105 OFFCURVE",
"386 55 OFFCURVE",
"298 55 CURVE SMOOTH"
);
},
{
closed = 1;
nodes = (
"699 99 OFFCURVE",
"689 112 OFFCURVE",
"689 140 CURVE SMOOTH",
"689 175 OFFCURVE",
"696 206 OFFCURVE",
"713 258 CURVE",
"732 231 OFFCURVE",
"744 191 OFFCURVE",
"744 148 CURVE SMOOTH",
"744 116 OFFCURVE",
"734 99 OFFCURVE",
"716 99 CURVE SMOOTH"
);
},
{
closed = 1;
nodes = (
"646 410 OFFCURVE",
"581 446 OFFCURVE",
"522 464 CURVE",
"526 480 OFFCURVE",
"528 497 OFFCURVE",
"528 519 CURVE SMOOTH",
"528 535 OFFCURVE",
"527 547 OFFCURVE",
"524 561 CURVE",
"697 561 LINE",
"698 545 OFFCURVE",
"698 530 OFFCURVE",
"698 514 CURVE SMOOTH",
"698 467 OFFCURVE",
"692 418 OFFCURVE",
"683 377 CURVE"
);
}
);
width = 908;
},
{
anchors = (
{
name = bottom;
position = "{678, -28}";
},
{
name = top;
position = "{732, 662}";
}
);
layerId = "37631205-D7B2-4E6B-9DD1-7005090CBFCA";
paths = (
{
closed = 1;
nodes = (
"399 -9 OFFCURVE",
"476 57 OFFCURVE",
"476 154 CURVE SMOOTH",
"476 230 OFFCURVE",
"429 265 OFFCURVE",
"392 274 CURVE",
"433 287 OFFCURVE",
"463 298 OFFCURVE",
"503 354 CURVE",
"543 344 OFFCURVE",
"577 330 OFFCURVE",
"599 316 CURVE",
"562 272 OFFCURVE",
"541 220 OFFCURVE",
"541 174 CURVE SMOOTH",
"541 81 OFFCURVE",
"605 36 OFFCURVE",
"702 36 CURVE SMOOTH",
"794 36 OFFCURVE",
"864 81 OFFCURVE",
"864 180 CURVE SMOOTH",
"864 261 OFFCURVE",
"816 318 OFFCURVE",
"755 362 CURVE",
"768 393 OFFCURVE",
"781 437 OFFCURVE",
"781 482 CURVE SMOOTH",
"781 495 OFFCURVE",
"781 508 OFFCURVE",
"781 521 CURVE",
"912 521 LINE",
"912 622 LINE",
"530 622 LINE",
"471 759 OFFCURVE",
"365 780 OFFCURVE",
"270 780 CURVE SMOOTH",
"191 780 OFFCURVE",
"122 750 OFFCURVE",
"83 726 CURVE",
"126 636 LINE",
"161 653 OFFCURVE",
"211 670 OFFCURVE",
"272 670 CURVE SMOOTH",
"335 670 OFFCURVE",
"369 648 OFFCURVE",
"387 622 CURVE",
"-10 622 LINE",
"-10 521 LINE",
"410 521 LINE",
"410 515 OFFCURVE",
"410 509 OFFCURVE",
"410 503 CURVE SMOOTH",
"410 497 OFFCURVE",
"410 490 OFFCURVE",
"409 484 CURVE",
"384 487 OFFCURVE",
"366 489 OFFCURVE",
"339 489 CURVE SMOOTH",
"158 489 OFFCURVE",
"35 396 OFFCURVE",
"35 231 CURVE SMOOTH",
"35 68 OFFCURVE",
"161 -9 OFFCURVE",
"284 -9 CURVE SMOOTH"
);
},
{
closed = 1;
nodes = (
"223 101 OFFCURVE",
"170 152 OFFCURVE",
"170 231 CURVE SMOOTH",
"170 321 OFFCURVE",
"223 381 OFFCURVE",
"341 379 CURVE SMOOTH",
"352 379 OFFCURVE",
"376 378 OFFCURVE",
"383 377 CURVE",
"351 334 OFFCURVE",
"313 320 OFFCURVE",
"257 320 CURVE",
"257 220 LINE",
"273 220 LINE SMOOTH",
"319 220 OFFCURVE",
"341 193 OFFCURVE",
"341 159 CURVE SMOOTH",
"341 120 OFFCURVE",
"320 101 OFFCURVE",
"281 101 CURVE SMOOTH"
);
},
{
closed = 1;
nodes = (
"686 146 OFFCURVE",
"676 161 OFFCURVE",
"676 182 CURVE SMOOTH",
"676 202 OFFCURVE",
"686 229 OFFCURVE",
"701 245 CURVE",
"718 229 OFFCURVE",
"729 202 OFFCURVE",
"729 182 CURVE SMOOTH",
"729 161 OFFCURVE",
"721 146 OFFCURVE",
"702 146 CURVE SMOOTH"
);
},
{
closed = 1;
nodes = (
"616 437 OFFCURVE",
"578 449 OFFCURVE",
"536 459 CURVE",
"538 474 OFFCURVE",
"539 488 OFFCURVE",
"539 500 CURVE SMOOTH",
"539 507 OFFCURVE",
"539 514 OFFCURVE",
"539 521 CURVE",
"652 521 LINE",
"652 510 OFFCURVE",
"652 498 OFFCURVE",
"652 487 CURVE SMOOTH",
"652 463 OFFCURVE",
"649 442 OFFCURVE",
"647 422 CURVE"
);
}
);
width = 902;
}
);
unicode = 11D71;
category = Letter;
userData = {
com.typemytype.robofont.guides = (
{
angle = 0;
isGlobal = 0;
magnetic = 5;
x = 0;
y = -22;
},
{
angle = 0;
isGlobal = 0;
magnetic = 5;
name = danda;
x = 0;
y = 75;
}
);
com.typemytype.robofont.mark = (
1,
0.6,
0.6,
1
);
};
},
{
color = 7;
glyphname = Kha.GGondi;
lastChange = "2021-10-18 08:30:41 +0000";
layers = (
{
anchors = (
{
name = bottom;
position = "{617, -28}";
},
{
name = top;
position = "{675, 656}";
}
);
background = {
anchors = (
{
name = bottom;
position = "{617, -28}";
},
{
name = top;
position = "{675, 656}";
}
);
paths = (
{
closed = 1;
nodes = (
"637 561 LINE",
"637 534 LINE SMOOTH",
"639 476 OFFCURVE",
"627 408 OFFCURVE",
"603 330 CURVE",
"579 337 OFFCURVE",
"551 340 OFFCURVE",
"520 340 CURVE SMOOTH",
"437 340 LINE",
"422 469 OFFCURVE",
"326 518 OFFCURVE",
"237 518 CURVE SMOOTH",
"137 518 OFFCURVE",
"87 470 OFFCURVE",
"87 398 CURVE SMOOTH",
"87 343 OFFCURVE",
"131 288 OFFCURVE",
"226 288 CURVE SMOOTH",
"256 288 OFFCURVE",
"294 296 OFFCURVE",
"311 306 CURVE",
"290 366 LINE",
"274 359 OFFCURVE",
"251 354 OFFCURVE",
"231 354 CURVE SMOOTH",
"182 354 OFFCURVE",
"165 374 OFFCURVE",
"165 400 CURVE SMOOTH",
"165 430 OFFCURVE",
"192 452 OFFCURVE",
"237 452 CURVE SMOOTH",
"295 452 OFFCURVE",
"359 414 OFFCURVE",
"359 309 CURVE SMOOTH",
"359 244 OFFCURVE",
"330 196 OFFCURVE",
"299 170 CURVE",
"260 216 OFFCURVE",
"216 242 OFFCURVE",
"161 242 CURVE SMOOTH",
"114 242 OFFCURVE",
"67 220 OFFCURVE",
"67 159 CURVE SMOOTH",
"67 107 OFFCURVE",
"115 67 OFFCURVE",
"199 67 CURVE SMOOTH",
"237 67 OFFCURVE",
"264 74 OFFCURVE",
"286 83 CURVE",
"363 -52 LINE",
"430 -15 LINE",
"344 111 LINE",
"383 138 OFFCURVE",
"427 196 OFFCURVE",
"437 272 CURVE",
"520 272 LINE SMOOTH",
"545 272 OFFCURVE",
"564 271 OFFCURVE",
"578 268 CURVE",
"565 231 OFFCURVE",
"555 189 OFFCURVE",
"555 148 CURVE SMOOTH",
"555 69 OFFCURVE",
"603 38 OFFCURVE",
"656 38 CURVE SMOOTH",
"716 38 OFFCURVE",
"755 73 OFFCURVE",
"755 146 CURVE SMOOTH",
"755 216 OFFCURVE",
"718 270 OFFCURVE",
"670 303 CURVE",
"701 381 OFFCURVE",
"716 463 OFFCURVE",
"716 538 CURVE",
"715 561 LINE",
"857 561 LINE",
"857 622 LINE",
"-10 622 LINE",
"-10 561 LINE"
);
},
{
closed = 1;
nodes = (
"145 170 OFFCURVE",
"155 176 OFFCURVE",
"168 176 CURVE SMOOTH",
"194 176 OFFCURVE",
"217 165 OFFCURVE",
"245 141 CURVE",
"230 137 OFFCURVE",
"215 134 OFFCURVE",
"197 134 CURVE SMOOTH",
"167 134 OFFCURVE",
"145 141 OFFCURVE",
"145 157 CURVE SMOOTH"
);
},
{
closed = 1;
nodes = (
"628 180 OFFCURVE",
"634 212 OFFCURVE",
"645 242 CURVE",
"667 226 OFFCURVE",
"683 193 OFFCURVE",
"683 148 CURVE SMOOTH",
"683 116 OFFCURVE",
"673 99 OFFCURVE",
"656 99 CURVE SMOOTH",
"638 99 OFFCURVE",
"628 115 OFFCURVE",
"628 150 CURVE SMOOTH"
);
}
);
};
layerId = "1D9335A4-69BC-4202-817B-D13DAA30F854";
paths = (
{
closed = 1;
nodes = (
"430 -15 LINE",
"344 111 LINE",
"383 138 OFFCURVE",
"427 196 OFFCURVE",
"437 272 CURVE",
"520 272 LINE SMOOTH",
"545 272 OFFCURVE",
"564 271 OFFCURVE",
"578 268 CURVE",
"565 231 OFFCURVE",
"555 189 OFFCURVE",
"555 148 CURVE SMOOTH",
"555 69 OFFCURVE",
"603 38 OFFCURVE",
"656 38 CURVE SMOOTH",
"716 38 OFFCURVE",
"755 73 OFFCURVE",
"755 146 CURVE SMOOTH",
"755 216 OFFCURVE",
"718 270 OFFCURVE",
"670 303 CURVE",
"701 381 OFFCURVE",
"716 463 OFFCURVE",
"716 538 CURVE",
"715 561 LINE",
"857 561 LINE",
"857 622 LINE",
"-10 622 LINE",
"-10 561 LINE",
"637 561 LINE",
"637 534 LINE SMOOTH",
"637 476 OFFCURVE",
"627 408 OFFCURVE",
"603 330 CURVE",
"579 337 OFFCURVE",
"551 340 OFFCURVE",
"520 340 CURVE SMOOTH",
"437 340 LINE",
"422 469 OFFCURVE",
"326 518 OFFCURVE",
"237 518 CURVE SMOOTH",
"137 518 OFFCURVE",
"87 470 OFFCURVE",
"87 398 CURVE SMOOTH",
"87 343 OFFCURVE",
"131 288 OFFCURVE",
"226 288 CURVE SMOOTH",
"256 288 OFFCURVE",
"294 296 OFFCURVE",
"311 306 CURVE",
"290 366 LINE",
"274 359 OFFCURVE",
"251 354 OFFCURVE",
"231 354 CURVE SMOOTH",
"182 354 OFFCURVE",
"165 374 OFFCURVE",
"165 400 CURVE SMOOTH",
"165 430 OFFCURVE",
"192 452 OFFCURVE",
"237 452 CURVE SMOOTH",
"295 452 OFFCURVE",
"359 414 OFFCURVE",
"359 309 CURVE SMOOTH",
"359 244 OFFCURVE",
"330 196 OFFCURVE",
"299 170 CURVE",
"260 216 OFFCURVE",
"216 242 OFFCURVE",
"161 242 CURVE SMOOTH",
"114 242 OFFCURVE",
"67 220 OFFCURVE",
"67 159 CURVE SMOOTH",
"67 107 OFFCURVE",
"115 67 OFFCURVE",
"199 67 CURVE SMOOTH",
"237 67 OFFCURVE",
"264 74 OFFCURVE",
"286 83 CURVE",
"363 -52 LINE"
);
},
{
closed = 1;
nodes = (
"167 134 OFFCURVE",
"145 141 OFFCURVE",
"145 157 CURVE SMOOTH",
"145 170 OFFCURVE",
"155 176 OFFCURVE",
"168 176 CURVE SMOOTH",
"194 176 OFFCURVE",
"217 165 OFFCURVE",
"245 141 CURVE",
"230 137 OFFCURVE",
"215 134 OFFCURVE",
"197 134 CURVE SMOOTH"
);
},
{
closed = 1;
nodes = (
"638 99 OFFCURVE",
"628 115 OFFCURVE",
"628 150 CURVE SMOOTH",
"628 180 OFFCURVE",
"634 212 OFFCURVE",
"645 242 CURVE",
"667 226 OFFCURVE",
"683 193 OFFCURVE",
"683 148 CURVE SMOOTH",
"683 116 OFFCURVE",
"673 99 OFFCURVE",
"656 99 CURVE SMOOTH"
);
}
);
width = 847;
},
{
anchors = (
{
name = bottom;
position = "{656, -28}";
},
{
name = top;
position = "{711, 662}";
}
);
layerId = "37631205-D7B2-4E6B-9DD1-7005090CBFCA";
paths = (
{
closed = 1;
nodes = (
"532 15 LINE",
"453 110 LINE",
"479 144 OFFCURVE",
"498 190 OFFCURVE",
"506 247 CURVE",
"548 247 LINE SMOOTH",
"560 247 OFFCURVE",
"573 247 OFFCURVE",
"581 246 CURVE",
"549 210 OFFCURVE",
"537 174 OFFCURVE",
"537 138 CURVE SMOOTH",
"537 45 OFFCURVE",
"601 0 OFFCURVE",
"698 0 CURVE SMOOTH",
"790 0 OFFCURVE",
"860 45 OFFCURVE",
"860 144 CURVE SMOOTH",
"860 225 OFFCURVE",
"812 284 OFFCURVE",
"741 317 CURVE",
"764 369 OFFCURVE",
"771 416 OFFCURVE",
"771 462 CURVE SMOOTH",
"771 521 LINE",
"903 521 LINE",
"903 622 LINE",
"-10 622 LINE",
"-10 521 LINE",
"642 521 LINE",
"642 458 LINE SMOOTH",
"642 444 OFFCURVE",
"642 393 OFFCURVE",
"625 343 CURVE",
"599 345 OFFCURVE",
"574 347 OFFCURVE",
"548 347 CURVE SMOOTH",
"500 347 LINE",
"466 470 OFFCURVE",
"383 512 OFFCURVE",
"280 512 CURVE SMOOTH",
"159 512 OFFCURVE",
"107 460 OFFCURVE",
"107 383 CURVE SMOOTH",
"107 318 OFFCURVE",
"156 261 OFFCURVE",
"268 261 CURVE SMOOTH",
"297 261 OFFCURVE",
"331 270 OFFCURVE",
"348 279 CURVE",
"325 371 LINE",
"309 366 OFFCURVE",
"298 364 OFFCURVE",
"281 364 CURVE SMOOTH",
"261 364 OFFCURVE",
"246 372 OFFCURVE",
"246 385 CURVE SMOOTH",
"246 398 OFFCURVE",
"255 406 OFFCURVE",
"280 406 CURVE SMOOTH",
"349 406 OFFCURVE",
"379 353 OFFCURVE",
"379 282 CURVE SMOOTH",
"379 253 OFFCURVE",
"375 229 OFFCURVE",
"366 205 CURVE",
"325 237 OFFCURVE",
"270 252 OFFCURVE",
"211 252 CURVE SMOOTH",
"132 252 OFFCURVE",
"68 210 OFFCURVE",
"68 129 CURVE SMOOTH",
"68 47 OFFCURVE",
"130 -7 OFFCURVE",
"236 -7 CURVE SMOOTH",
"298 -7 OFFCURVE",
"345 20 OFFCURVE",
"369 39 CURVE",
"434 -51 LINE"
);
},
{
closed = 1;
nodes = (
"201 136 OFFCURVE",
"213 145 OFFCURVE",
"240 145 CURVE SMOOTH",
"274 145 OFFCURVE",
"295 132 OFFCURVE",
"308 122 CURVE",
"289 107 OFFCURVE",
"266 99 OFFCURVE",
"242 99 CURVE SMOOTH",
"215 99 OFFCURVE",
"201 110 OFFCURVE",
"201 123 CURVE SMOOTH"
);
},
{
closed = 1;
nodes = (
"672 166 OFFCURVE",
"682 193 OFFCURVE",
"697 209 CURVE",
"714 193 OFFCURVE",
"725 166 OFFCURVE",
"725 146 CURVE SMOOTH",
"725 125 OFFCURVE",
"717 110 OFFCURVE",
"698 110 CURVE SMOOTH",
"682 110 OFFCURVE",
"672 125 OFFCURVE",
"672 146 CURVE SMOOTH"
);
}
);
width = 893;
}
);
unicode = 11D72;
category = Letter;
userData = {
com.typemytype.robofont.mark = (
1,
0.6,
0.6,
1
);
};
},
{
color = 7;
glyphname = Ta.GGondi;
lastChange = "2021-10-18 08:30:41 +0000";
layers = (
{
anchors = (
{
name = bottom;
position = "{426, -28}";
},
{
name = top;
position = "{483, 656}";
}
);
background = {
anchors = (
{
name = bottom;
position = "{426, -28}";
},
{
name = top;
position = "{483, 656}";
}
);
paths = (
{
closed = 1;
nodes = (
"445 561 LINE",
"445 546 LINE SMOOTH",
"445 507 OFFCURVE",
"439 455 OFFCURVE",
"431 411 CURVE",
"401 426 OFFCURVE",
"353 441 OFFCURVE",
"301 441 CURVE SMOOTH",
"175 441 OFFCURVE",
"66 372 OFFCURVE",
"66 217 CURVE SMOOTH",
"66 116 OFFCURVE",
"105 39 OFFCURVE",
"136 -5 CURVE",
"203 24 LINE",
"182 61 OFFCURVE",
"146 132 OFFCURVE",
"146 214 CURVE SMOOTH",
"146 318 OFFCURVE",
"218 373 OFFCURVE",
"303 373 CURVE SMOOTH",
"346 373 OFFCURVE",
"384 363 OFFCURVE",
"410 350 CURVE",
"409 348 LINE",
"384 272 OFFCURVE",
"364 217 OFFCURVE",
"364 163 CURVE SMOOTH",
"364 87 OFFCURVE",
"412 58 OFFCURVE",
"464 58 CURVE SMOOTH",
"525 58 OFFCURVE",
"564 95 OFFCURVE",
"564 171 CURVE SMOOTH",
"564 252 OFFCURVE",
"532 315 OFFCURVE",
"494 355 CURVE",
"512 406 OFFCURVE",
"524 479 OFFCURVE",
"524 550 CURVE",
"524 561 LINE",
"665 561 LINE",
"665 622 LINE",
"-10 622 LINE",
"-10 561 LINE"
);
},
{
closed = 1;
nodes = (
"437 199 OFFCURVE",
"446 234 OFFCURVE",
"463 295 CURVE",
"481 267 OFFCURVE",
"492 226 OFFCURVE",
"492 173 CURVE SMOOTH",
"492 138 OFFCURVE",
"482 119 OFFCURVE",
"464 119 CURVE SMOOTH",
"447 119 OFFCURVE",
"437 134 OFFCURVE",
"437 165 CURVE SMOOTH"
);
}
);
};
layerId = "1D9335A4-69BC-4202-817B-D13DAA30F854";
paths = (
{
closed = 1;
nodes = (
"203 24 LINE",
"182 61 OFFCURVE",
"146 132 OFFCURVE",
"146 214 CURVE SMOOTH",
"146 318 OFFCURVE",
"218 373 OFFCURVE",
"303 373 CURVE SMOOTH",
"346 373 OFFCURVE",
"384 363 OFFCURVE",
"410 350 CURVE",
"409 348 LINE",
"384 272 OFFCURVE",
"364 217 OFFCURVE",
"364 163 CURVE SMOOTH",
"364 87 OFFCURVE",
"412 58 OFFCURVE",
"464 58 CURVE SMOOTH",
"525 58 OFFCURVE",
"564 95 OFFCURVE",
"564 171 CURVE SMOOTH",
"564 252 OFFCURVE",
"532 315 OFFCURVE",
"494 355 CURVE",
"512 406 OFFCURVE",
"524 479 OFFCURVE",
"524 550 CURVE",
"524 561 LINE",
"665 561 LINE",
"665 622 LINE",
"-10 622 LINE",
"-10 561 LINE",
"445 561 LINE",
"445 546 LINE SMOOTH",
"445 507 OFFCURVE",
"439 455 OFFCURVE",
"431 411 CURVE",
"401 426 OFFCURVE",
"353 441 OFFCURVE",
"301 441 CURVE SMOOTH",
"175 441 OFFCURVE",
"66 372 OFFCURVE",
"66 217 CURVE SMOOTH",
"66 116 OFFCURVE",
"105 39 OFFCURVE",
"136 -5 CURVE"
);
},
{
closed = 1;
nodes = (
"447 119 OFFCURVE",
"437 134 OFFCURVE",
"437 165 CURVE SMOOTH",
"437 199 OFFCURVE",
"446 234 OFFCURVE",
"463 295 CURVE",
"481 267 OFFCURVE",
"492 226 OFFCURVE",
"492 173 CURVE SMOOTH",
"492 138 OFFCURVE",
"482 119 OFFCURVE",
"464 119 CURVE SMOOTH"
);
}
);
width = 655;
},
{
anchors = (
{
name = bottom;
position = "{476, -28}";
},
{
name = top;
position = "{533, 662}";
}
);
layerId = "37631205-D7B2-4E6B-9DD1-7005090CBFCA";
paths = (
{
closed = 1;
nodes = (
"273 57 LINE",
"243 101 OFFCURVE",
"205 164 OFFCURVE",
"205 226 CURVE SMOOTH",
"205 318 OFFCURVE",
"262 345 OFFCURVE",
"314 345 CURVE SMOOTH",
"346 345 OFFCURVE",
"384 338 OFFCURVE",
"407 328 CURVE",
"404 324 LINE SMOOTH",
"382 295 OFFCURVE",
"359 242 OFFCURVE",
"359 196 CURVE SMOOTH",
"359 103 OFFCURVE",
"423 58 OFFCURVE",
"520 58 CURVE SMOOTH",
"612 58 OFFCURVE",
"682 103 OFFCURVE",
"682 202 CURVE SMOOTH",
"682 287 OFFCURVE",
"634 342 OFFCURVE",
"564 380 CURVE",
"575 401 OFFCURVE",
"591 449 OFFCURVE",
"591 504 CURVE SMOOTH",
"591 521 LINE",
"722 521 LINE",
"722 622 LINE",
"-10 622 LINE",
"-10 521 LINE",
"462 521 LINE",
"462 509 LINE SMOOTH",
"462 473 OFFCURVE",
"457 449 OFFCURVE",
"453 427 CURVE",
"422 440 OFFCURVE",
"373 455 OFFCURVE",
"307 455 CURVE SMOOTH",
"113 455 OFFCURVE",
"70 325 OFFCURVE",
"70 226 CURVE SMOOTH",
"70 139 OFFCURVE",
"110 57 OFFCURVE",
"163 0 CURVE"
);
},
{
closed = 1;
nodes = (
"504 168 OFFCURVE",
"494 183 OFFCURVE",
"494 204 CURVE SMOOTH",
"494 224 OFFCURVE",
"504 251 OFFCURVE",
"519 267 CURVE",
"536 251 OFFCURVE",
"547 224 OFFCURVE",
"547 204 CURVE SMOOTH",
"547 183 OFFCURVE",
"539 168 OFFCURVE",
"520 168 CURVE SMOOTH"
);
}
);
width = 712;
}
);
unicode = 11D73;
category = Letter;
userData = {
com.typemytype.robofont.guides = (
{
angle = 0;
isGlobal = 0;
magnetic = 5;
x = 0;
y = 444;
}
);
com.typemytype.robofont.mark = (
1,
0.6,
0.6,
1
);
};
},
{
color = 7;
glyphname = Tha.GGondi;
lastChange = "2021-10-18 08:30:41 +0000";
layers = (
{
anchors = (
{
name = bottom;
position = "{684, -28}";
},
{
name = top;
position = "{742, 656}";
}
);
background = {
anchors = (
{
name = bottom;
position = "{684, -28}";
},
{
name = top;
position = "{742, 656}";
}
);
paths = (
{
closed = 1;
nodes = (
"71 459 OFFCURVE",
"119 410 OFFCURVE",
"195 401 CURVE",
"208 463 LINE",
"172 469 OFFCURVE",
"149 490 OFFCURVE",
"149 528 CURVE SMOOTH",
"149 563 OFFCURVE",
"174 590 OFFCURVE",
"213 590 CURVE SMOOTH",
"257 590 OFFCURVE",
"288 558 OFFCURVE",
"288 496 CURVE SMOOTH",
"288 391 OFFCURVE",
"201 339 OFFCURVE",
"83 323 CURVE",
"83 292 LINE SMOOTH",
"83 129 OFFCURVE",
"171 42 OFFCURVE",
"313 42 CURVE SMOOTH",
"453 42 OFFCURVE",
"521 124 OFFCURVE",
"521 230 CURVE SMOOTH",
"521 270 OFFCURVE",
"512 301 OFFCURVE",
"497 329 CURVE",
"527 329 LINE SMOOTH",
"595 329 OFFCURVE",
"632 320 OFFCURVE",
"660 306 CURVE",
"638 241 OFFCURVE",
"622 192 OFFCURVE",
"622 143 CURVE SMOOTH",
"622 67 OFFCURVE",
"670 38 OFFCURVE",
"722 38 CURVE SMOOTH",
"783 38 OFFCURVE",
"822 75 OFFCURVE",
"822 151 CURVE SMOOTH",
"822 232 OFFCURVE",
"788 293 OFFCURVE",
"749 331 CURVE",
"766 377 OFFCURVE",
"783 458 OFFCURVE",
"783 530 CURVE SMOOTH",
"783 541 OFFCURVE",
"782 551 OFFCURVE",
"782 561 CURVE",
"924 561 LINE",
"924 622 LINE",
"425 622 LINE",
"425 561 LINE",
"703 561 LINE",
"704 549 OFFCURVE",
"704 538 OFFCURVE",
"704 526 CURVE SMOOTH",
"706 470 OFFCURVE",
"695 411 OFFCURVE",
"683 366 CURVE",
"651 383 OFFCURVE",
"599 397 OFFCURVE",
"529 397 CURVE SMOOTH",
"412 397 LINE",
"412 343 LINE",
"433 312 OFFCURVE",
"443 277 OFFCURVE",
"443 237 CURVE SMOOTH",
"443 161 OFFCURVE",
"395 110 OFFCURVE",
"313 110 CURVE SMOOTH",
"220 110 OFFCURVE",
"173 169 OFFCURVE",
"168 265 CURVE",
"286 291 OFFCURVE",
"366 390 OFFCURVE",
"366 496 CURVE SMOOTH",
"366 593 OFFCURVE",
"301 656 OFFCURVE",
"212 656 CURVE SMOOTH",
"137 656 OFFCURVE",
"71 613 OFFCURVE",
"71 525 CURVE SMOOTH"
);
},
{
closed = 1;
nodes = (
"695 178 OFFCURVE",
"703 213 OFFCURVE",
"720 270 CURVE",
"738 245 OFFCURVE",
"750 205 OFFCURVE",
"750 153 CURVE SMOOTH",
"750 118 OFFCURVE",
"740 99 OFFCURVE",
"722 99 CURVE SMOOTH",
"705 99 OFFCURVE",
"695 114 OFFCURVE",
"695 145 CURVE SMOOTH"
);
}
);
};
layerId = "1D9335A4-69BC-4202-817B-D13DAA30F854";
paths = (
{
closed = 1;
nodes = (
"783 38 OFFCURVE",
"822 75 OFFCURVE",
"822 151 CURVE SMOOTH",
"822 232 OFFCURVE",
"788 293 OFFCURVE",
"749 331 CURVE",
"766 377 OFFCURVE",
"783 458 OFFCURVE",
"783 530 CURVE SMOOTH",
"783 541 OFFCURVE",
"782 551 OFFCURVE",
"782 561 CURVE",
"924 561 LINE",
"924 622 LINE",
"425 622 LINE",
"425 561 LINE",
"703 561 LINE",
"704 549 OFFCURVE",
"704 538 OFFCURVE",
"704 526 CURVE SMOOTH",
"706 470 OFFCURVE",
"695 411 OFFCURVE",
"683 366 CURVE",
"651 383 OFFCURVE",
"599 397 OFFCURVE",
"529 397 CURVE SMOOTH",
"412 397 LINE",
"412 343 LINE",
"433 312 OFFCURVE",
"443 277 OFFCURVE",
"443 237 CURVE SMOOTH",
"443 161 OFFCURVE",
"395 110 OFFCURVE",
"313 110 CURVE SMOOTH",
"220 110 OFFCURVE",
"173 169 OFFCURVE",
"168 265 CURVE",
"286 291 OFFCURVE",
"366 390 OFFCURVE",
"366 496 CURVE SMOOTH",
"366 593 OFFCURVE",
"301 656 OFFCURVE",
"212 656 CURVE SMOOTH",
"137 656 OFFCURVE",
"71 613 OFFCURVE",
"71 525 CURVE SMOOTH",
"71 459 OFFCURVE",
"119 410 OFFCURVE",
"195 401 CURVE",
"208 463 LINE",
"172 469 OFFCURVE",
"149 490 OFFCURVE",
"149 528 CURVE SMOOTH",
"149 563 OFFCURVE",
"174 590 OFFCURVE",
"213 590 CURVE SMOOTH",
"257 590 OFFCURVE",
"288 558 OFFCURVE",
"288 496 CURVE SMOOTH",
"288 391 OFFCURVE",
"201 339 OFFCURVE",
"83 323 CURVE",
"83 292 LINE SMOOTH",
"83 129 OFFCURVE",
"171 42 OFFCURVE",
"313 42 CURVE SMOOTH",
"453 42 OFFCURVE",
"521 124 OFFCURVE",
"521 230 CURVE SMOOTH",
"521 270 OFFCURVE",
"512 301 OFFCURVE",
"497 329 CURVE",
"527 329 LINE SMOOTH",
"595 329 OFFCURVE",
"632 320 OFFCURVE",
"660 306 CURVE",
"638 241 OFFCURVE",
"622 192 OFFCURVE",
"622 143 CURVE SMOOTH",
"622 67 OFFCURVE",
"670 38 OFFCURVE",
"722 38 CURVE SMOOTH"
);
},
{
closed = 1;
nodes = (
"705 99 OFFCURVE",
"695 114 OFFCURVE",
"695 145 CURVE SMOOTH",
"695 178 OFFCURVE",
"703 213 OFFCURVE",
"720 270 CURVE",
"738 245 OFFCURVE",
"750 205 OFFCURVE",
"750 153 CURVE SMOOTH",
"750 118 OFFCURVE",
"740 99 OFFCURVE",
"722 99 CURVE SMOOTH"
);
}
);
width = 914;
},
{
anchors = (
{
name = bottom;
position = "{744, -28}";
},
{
name = top;
position = "{802, 656}";
}
);
layerId = "37631205-D7B2-4E6B-9DD1-7005090CBFCA";
paths = (
{
closed = 1;
nodes = (
"901 38 OFFCURVE",
"971 83 OFFCURVE",
"971 182 CURVE SMOOTH",
"971 263 OFFCURVE",
"924 322 OFFCURVE",
"855 357 CURVE",
"873 403 OFFCURVE",
"880 444 OFFCURVE",
"880 490 CURVE SMOOTH",
"880 500 OFFCURVE",
"880 511 OFFCURVE",
"880 521 CURVE",
"1014 521 LINE",
"1014 622 LINE",
"451 622 LINE",
"451 521 LINE",
"751 521 LINE",
"751 509 OFFCURVE",
"751 498 OFFCURVE",
"751 486 CURVE SMOOTH",
"751 472 OFFCURVE",
"749 429 OFFCURVE",
"740 399 CURVE",
"698 410 OFFCURVE",
"654 413 OFFCURVE",
"578 413 CURVE SMOOTH",
"422 413 LINE",
"422 312 LINE",
"453 273 OFFCURVE",
"462 251 OFFCURVE",
"462 218 CURVE SMOOTH",
"462 174 OFFCURVE",
"436 149 OFFCURVE",
"374 149 CURVE SMOOTH",
"312 149 OFFCURVE",
"263 169 OFFCURVE",
"237 221 CURVE",
"351 264 OFFCURVE",
"405 360 OFFCURVE",
"405 468 CURVE SMOOTH",
"405 606 OFFCURVE",
"327 652 OFFCURVE",
"228 652 CURVE SMOOTH",
"125 652 OFFCURVE",
"55 589 OFFCURVE",
"55 497 CURVE SMOOTH",
"55 407 OFFCURVE",
"109 356 OFFCURVE",
"204 344 CURVE",
"229 447 LINE",
"206 451 OFFCURVE",
"186 470 OFFCURVE",
"186 497 CURVE SMOOTH",
"186 524 OFFCURVE",
"205 541 OFFCURVE",
"229 541 CURVE SMOOTH",
"258 541 OFFCURVE",
"275 520 OFFCURVE",
"275 468 CURVE SMOOTH",
"275 350 OFFCURVE",
"216 304 OFFCURVE",
"87 284 CURVE",
"87 270 LINE SMOOTH",
"87 127 OFFCURVE",
"217 39 OFFCURVE",
"374 39 CURVE SMOOTH",
"530 39 OFFCURVE",
"596 107 OFFCURVE",
"596 218 CURVE SMOOTH",
"596 262 OFFCURVE",
"581 288 OFFCURVE",
"559 313 CURVE",
"609 313 LINE SMOOTH",
"651 313 OFFCURVE",
"678 309 OFFCURVE",
"695 302 CURVE",
"657 251 OFFCURVE",
"648 212 OFFCURVE",
"648 176 CURVE SMOOTH",
"648 83 OFFCURVE",
"708 38 OFFCURVE",
"809 38 CURVE SMOOTH"
);
},
{
closed = 1;
nodes = (
"793 148 OFFCURVE",
"783 163 OFFCURVE",
"783 184 CURVE SMOOTH",
"783 204 OFFCURVE",
"793 231 OFFCURVE",
"808 247 CURVE",
"825 231 OFFCURVE",
"836 204 OFFCURVE",
"836 184 CURVE SMOOTH",
"836 163 OFFCURVE",
"828 148 OFFCURVE",
"809 148 CURVE SMOOTH"
);
}
);
width = 1004;
}
);
unicode = 11D74;
category = Letter;
userData = {
com.typemytype.robofont.mark = (
1,
0.6,
0.6,
1
);
};
},
{
color = 7;
glyphname = La.GGondi;
lastChange = "2021-10-18 08:30:41 +0000";
layers = (
{
anchors = (
{
name = bottom;
position = "{486, -28}";
},
{
name = top;
position = "{543, 656}";
}
);
background = {
anchors = (
{
name = bottom;
position = "{486, -28}";
},
{
name = top;
position = "{543, 656}";
}
);
paths = (
{
closed = 1;
nodes = (
"505 561 LINE",
"505 546 LINE SMOOTH",
"506 504 OFFCURVE",
"499 446 OFFCURVE",
"489 401 CURVE",
"456 422 OFFCURVE",
"409 441 OFFCURVE",
"329 441 CURVE SMOOTH",
"196 441 OFFCURVE",
"61 366 OFFCURVE",
"61 192 CURVE SMOOTH",
"61 72 OFFCURVE",
"133 0 OFFCURVE",
"223 0 CURVE SMOOTH",
"299 0 OFFCURVE",
"348 41 OFFCURVE",
"348 114 CURVE SMOOTH",
"348 186 OFFCURVE",
"293 227 OFFCURVE",
"239 227 CURVE SMOOTH",
"192 227 OFFCURVE",
"160 205 OFFCURVE",
"142 175 CURVE",
"141 198 LINE",
"141 313 OFFCURVE",
"231 373 OFFCURVE",
"337 373 CURVE SMOOTH",
"396 373 OFFCURVE",
"437 357 OFFCURVE",
"466 338 CURVE",
"442 267 OFFCURVE",
"424 215 OFFCURVE",
"424 163 CURVE SMOOTH",
"424 87 OFFCURVE",
"472 58 OFFCURVE",
"524 58 CURVE SMOOTH",
"585 58 OFFCURVE",
"624 95 OFFCURVE",
"624 171 CURVE SMOOTH",
"624 252 OFFCURVE",
"592 315 OFFCURVE",
"554 355 CURVE",
"572 406 OFFCURVE",
"584 479 OFFCURVE",
"584 550 CURVE",
"584 561 LINE",
"726 561 LINE",
"726 622 LINE",
"-10 622 LINE",
"-10 561 LINE"
);
},
{
closed = 1;
nodes = (
"172 145 OFFCURVE",
"198 160 OFFCURVE",
"221 161 CURVE SMOOTH",
"248 162 OFFCURVE",
"272 144 OFFCURVE",
"272 113 CURVE SMOOTH",
"272 85 OFFCURVE",
"252 66 OFFCURVE",
"221 66 CURVE SMOOTH",
"194 66 OFFCURVE",
"174 78 OFFCURVE",
"160 99 CURVE"
);
},
{
closed = 1;
nodes = (
"497 199 OFFCURVE",
"506 234 OFFCURVE",
"523 295 CURVE",
"541 267 OFFCURVE",
"552 226 OFFCURVE",
"552 173 CURVE SMOOTH",
"552 138 OFFCURVE",
"542 119 OFFCURVE",
"524 119 CURVE SMOOTH",
"507 119 OFFCURVE",
"497 134 OFFCURVE",
"497 165 CURVE SMOOTH"
);
}
);
};
layerId = "1D9335A4-69BC-4202-817B-D13DAA30F854";
paths = (
{
closed = 1;
nodes = (
"299 0 OFFCURVE",
"348 41 OFFCURVE",
"348 114 CURVE SMOOTH",
"348 186 OFFCURVE",
"293 227 OFFCURVE",
"239 227 CURVE SMOOTH",
"192 227 OFFCURVE",
"160 205 OFFCURVE",
"142 175 CURVE",
"141 198 LINE",
"141 313 OFFCURVE",
"231 373 OFFCURVE",
"337 373 CURVE SMOOTH",
"396 373 OFFCURVE",
"437 357 OFFCURVE",
"466 338 CURVE",
"442 267 OFFCURVE",
"424 215 OFFCURVE",
"424 163 CURVE SMOOTH",
"424 87 OFFCURVE",
"472 58 OFFCURVE",
"524 58 CURVE SMOOTH",
"585 58 OFFCURVE",
"624 95 OFFCURVE",
"624 171 CURVE SMOOTH",
"624 252 OFFCURVE",
"592 315 OFFCURVE",
"554 355 CURVE",
"572 406 OFFCURVE",
"584 479 OFFCURVE",
"584 550 CURVE",
"584 561 LINE",
"726 561 LINE",
"726 622 LINE",
"-10 622 LINE",
"-10 561 LINE",
"505 561 LINE",
"505 546 LINE SMOOTH",
"506 504 OFFCURVE",
"499 446 OFFCURVE",
"489 401 CURVE",
"456 422 OFFCURVE",
"409 441 OFFCURVE",
"329 441 CURVE SMOOTH",
"196 441 OFFCURVE",
"61 366 OFFCURVE",
"61 192 CURVE SMOOTH",
"61 72 OFFCURVE",
"133 0 OFFCURVE",
"223 0 CURVE SMOOTH"
);
},
{
closed = 1;
nodes = (
"194 66 OFFCURVE",
"174 78 OFFCURVE",
"160 99 CURVE",
"172 145 OFFCURVE",
"198 160 OFFCURVE",
"221 161 CURVE SMOOTH",
"248 162 OFFCURVE",
"272 144 OFFCURVE",
"272 113 CURVE SMOOTH",
"272 85 OFFCURVE",
"252 66 OFFCURVE",
"221 66 CURVE SMOOTH"
);
},
{
closed = 1;
nodes = (
"507 119 OFFCURVE",
"497 134 OFFCURVE",
"497 165 CURVE SMOOTH",
"497 199 OFFCURVE",
"506 234 OFFCURVE",
"523 295 CURVE",
"541 267 OFFCURVE",
"552 226 OFFCURVE",
"552 173 CURVE SMOOTH",
"552 138 OFFCURVE",
"542 119 OFFCURVE",
"524 119 CURVE SMOOTH"
);
}
);
width = 716;
},
{
anchors = (
{
name = bottom;
position = "{561, -28}";
},
{
name = top;
position = "{618, 662}";
}
);
layerId = "37631205-D7B2-4E6B-9DD1-7005090CBFCA";
paths = (
{
closed = 1;
nodes = (
"360 0 OFFCURVE",
"417 74 OFFCURVE",
"417 148 CURVE SMOOTH",
"417 224 OFFCURVE",
"365 277 OFFCURVE",
"302 277 CURVE SMOOTH",
"253 277 OFFCURVE",
"217 259 OFFCURVE",
"195 232 CURVE",
"195 233 LINE SMOOTH",
"195 292 OFFCURVE",
"254 367 OFFCURVE",
"380 367 CURVE SMOOTH",
"433 367 OFFCURVE",
"467 354 OFFCURVE",
"488 342 CURVE",
"453 295 OFFCURVE",
"433 242 OFFCURVE",
"433 196 CURVE SMOOTH",
"433 103 OFFCURVE",
"497 58 OFFCURVE",
"594 58 CURVE SMOOTH",
"686 58 OFFCURVE",
"756 103 OFFCURVE",
"756 202 CURVE SMOOTH",
"756 277 OFFCURVE",
"724 335 OFFCURVE",
"659 386 CURVE",
"675 415 OFFCURVE",
"687 459 OFFCURVE",
"687 504 CURVE SMOOTH",
"687 521 LINE",
"807 521 LINE",
"807 622 LINE",
"-10 622 LINE",
"-10 521 LINE",
"558 521 LINE",
"558 509 LINE SMOOTH",
"558 485 OFFCURVE",
"554 463 OFFCURVE",
"548 442 CURVE",
"497 463 OFFCURVE",
"445 474 OFFCURVE",
"380 474 CURVE SMOOTH",
"178 474 OFFCURVE",
"57 345 OFFCURVE",
"57 196 CURVE SMOOTH",
"57 92 OFFCURVE",
"117 0 OFFCURVE",
"248 0 CURVE SMOOTH"
);
},
{
closed = 1;
nodes = (
"216 162 OFFCURVE",
"234 177 OFFCURVE",
"254 177 CURVE SMOOTH",
"269 177 OFFCURVE",
"285 169 OFFCURVE",
"285 148 CURVE SMOOTH",
"285 124 OFFCURVE",
"273 111 OFFCURVE",
"248 111 CURVE SMOOTH",
"228 111 OFFCURVE",
"213.995 121.006 OFFCURVE",
"205 136 CURVE"
);
},
{
closed = 1;
nodes = (
"578 168 OFFCURVE",
"568 183 OFFCURVE",
"568 204 CURVE SMOOTH",
"568 224 OFFCURVE",
"578 251 OFFCURVE",
"593 267 CURVE",
"610 251 OFFCURVE",
"621 224 OFFCURVE",
"621 204 CURVE SMOOTH",
"621 183 OFFCURVE",
"613 168 OFFCURVE",
"594 168 CURVE SMOOTH"
);
}
);
width = 797;
}
);
unicode = 11D75;
category = Letter;
userData = {
com.typemytype.robofont.mark = (
1,
0.6,
0.6,
1
);
};
},
{
color = 9;
glyphname = Ga.GGondi;
lastChange = "2021-10-18 08:30:41 +0000";
layers = (
{
anchors = (
{
name = bottom;
position = "{465, -28}";
},
{
name = top;
position = "{659, 656}";
}
);
background = {
anchors = (
{
name = bottom;
position = "{465, -28}";
},
{
name = top;
position = "{659, 656}";
}
);
paths = (
{
closed = 1;
nodes = (
"618 561 LINE",
"618 554 LINE SMOOTH",
"618 401 OFFCURVE",
"543 318 OFFCURVE",
"472 263 CURVE",
"432 282 OFFCURVE",
"400 297 OFFCURVE",
"375 311 CURVE",
"410 332 OFFCURVE",
"432 369 OFFCURVE",
"432 407 CURVE SMOOTH",
"432 473 OFFCURVE",
"379 508 OFFCURVE",
"322 510 CURVE SMOOTH",
"258 512 OFFCURVE",
"209 475 OFFCURVE",
"209 411 CURVE SMOOTH",
"209 376 OFFCURVE",
"225 347 OFFCURVE",
"252 323 CURVE",
"138 269 LINE SMOOTH",
"73 238 OFFCURVE",
"33 206 OFFCURVE",
"33 147 CURVE SMOOTH",
"33 89 OFFCURVE",
"78 52 OFFCURVE",
"142 52 CURVE SMOOTH",
"200 52 OFFCURVE",
"245 88 OFFCURVE",
"245 144 CURVE SMOOTH",
"245 176 OFFCURVE",
"223 209 OFFCURVE",
"195 229 CURVE",
"301 280 LINE",
"309 275 OFFCURVE",
"319 271 OFFCURVE",
"327 266 CURVE SMOOTH",
"363 247 OFFCURVE",
"386 234 OFFCURVE",
"407 224 CURVE",
"375 198 OFFCURVE",
"347 165 OFFCURVE",
"347 112 CURVE SMOOTH",
"347 45 OFFCURVE",
"401 3 OFFCURVE",
"477 3 CURVE SMOOTH",
"554 3 OFFCURVE",
"603 48 OFFCURVE",
"603 112 CURVE SMOOTH",
"603 161 OFFCURVE",
"570 203 OFFCURVE",
"535 228 CURVE",
"607 282 OFFCURVE",
"698 377 OFFCURVE",
"698 554 CURVE SMOOTH",
"698 561 LINE",
"791 561 LINE",
"791 622 LINE",
"-20 622 LINE",
"-20 561 LINE"
);
},
{
closed = 1;
nodes = (
"106 171 OFFCURVE",
"118 188 OFFCURVE",
"143 202 CURVE",
"160 189 OFFCURVE",
"177 171 OFFCURVE",
"177 148 CURVE SMOOTH",
"177 127 OFFCURVE",
"162 113 OFFCURVE",
"142 113 CURVE SMOOTH",
"123 113 OFFCURVE",
"106 126 OFFCURVE",
"106 150 CURVE SMOOTH"
);
},
{
closed = 1;
nodes = (
"284 441 OFFCURVE",
"308 449 OFFCURVE",
"322 449 CURVE SMOOTH",
"342 449 OFFCURVE",
"361 437 OFFCURVE",
"361 406 CURVE SMOOTH",
"361 384 OFFCURVE",
"344 362 OFFCURVE",
"319 347 CURVE",
"291 369 OFFCURVE",
"284 387 OFFCURVE",
"284 408 CURVE SMOOTH"
);
},
{
closed = 1;
nodes = (
"427 150 OFFCURVE",
"446 171 OFFCURVE",
"473 195 CURVE",
"505 176 OFFCURVE",
"525 150 OFFCURVE",
"525 120 CURVE SMOOTH",
"525 93 OFFCURVE",
"506 71 OFFCURVE",
"476 71 CURVE SMOOTH",
"443 71 OFFCURVE",
"427 92 OFFCURVE",
"427 118 CURVE SMOOTH"
);
}
);
};
layerId = "1D9335A4-69BC-4202-817B-D13DAA30F854";
paths = (
{
closed = 1;
nodes = (
"554 3 OFFCURVE",
"603 48 OFFCURVE",
"603 112 CURVE SMOOTH",
"603 161 OFFCURVE",
"570 203 OFFCURVE",
"535 228 CURVE",
"607 282 OFFCURVE",
"698 377 OFFCURVE",
"698 554 CURVE SMOOTH",
"698 561 LINE",
"791 561 LINE",
"791 622 LINE",
"-20 622 LINE",
"-20 561 LINE",
"618 561 LINE",
"618 554 LINE SMOOTH",
"618 401 OFFCURVE",
"543 318 OFFCURVE",
"472 263 CURVE",
"432 282 OFFCURVE",
"400 297 OFFCURVE",
"375 311 CURVE",
"410 332 OFFCURVE",
"432 369 OFFCURVE",
"432 407 CURVE SMOOTH",
"432 473 OFFCURVE",
"379 508 OFFCURVE",
"322 510 CURVE SMOOTH",
"258 512 OFFCURVE",
"209 475 OFFCURVE",
"209 411 CURVE SMOOTH",
"209 376 OFFCURVE",
"225 347 OFFCURVE",
"252 323 CURVE",
"138 269 LINE SMOOTH",
"73 238 OFFCURVE",
"33 206 OFFCURVE",
"33 147 CURVE SMOOTH",
"33 89 OFFCURVE",
"78 52 OFFCURVE",
"142 52 CURVE SMOOTH",
"200 52 OFFCURVE",
"245 88 OFFCURVE",
"245 144 CURVE SMOOTH",
"245 176 OFFCURVE",
"223 209 OFFCURVE",
"195 229 CURVE",
"301 280 LINE",
"309 275 OFFCURVE",
"319 271 OFFCURVE",
"327 266 CURVE SMOOTH",
"363 247 OFFCURVE",
"386 234 OFFCURVE",
"407 224 CURVE",
"375 198 OFFCURVE",
"347 165 OFFCURVE",
"347 112 CURVE SMOOTH",
"347 45 OFFCURVE",
"401 3 OFFCURVE",
"477 3 CURVE SMOOTH"
);
},
{
closed = 1;
nodes = (
"123 113 OFFCURVE",
"106 126 OFFCURVE",
"106 150 CURVE SMOOTH",
"106 171 OFFCURVE",
"118 188 OFFCURVE",
"143 202 CURVE",
"160 189 OFFCURVE",
"177 171 OFFCURVE",
"177 148 CURVE SMOOTH",
"177 127 OFFCURVE",
"162 113 OFFCURVE",
"142 113 CURVE SMOOTH"
);
},
{
closed = 1;
nodes = (
"443 71 OFFCURVE",
"427 92 OFFCURVE",
"427 118 CURVE SMOOTH",
"427 150 OFFCURVE",
"446 171 OFFCURVE",
"473 195 CURVE",
"505 176 OFFCURVE",
"525 150 OFFCURVE",
"525 120 CURVE SMOOTH",
"525 93 OFFCURVE",
"506 71 OFFCURVE",
"476 71 CURVE SMOOTH"
);
},
{
closed = 1;
nodes = (
"291 369 OFFCURVE",
"284 387 OFFCURVE",
"284 408 CURVE SMOOTH",
"284 441 OFFCURVE",
"308 449 OFFCURVE",
"322 449 CURVE SMOOTH",
"342 449 OFFCURVE",
"361 437 OFFCURVE",
"361 406 CURVE SMOOTH",
"361 384 OFFCURVE",
"344 362 OFFCURVE",
"319 347 CURVE"
);
}
);
width = 761;
},
{
anchors = (
{
name = bottom;
position = "{495, -28}";
},
{
name = top;
position = "{689, 662}";
}
);
layerId = "37631205-D7B2-4E6B-9DD1-7005090CBFCA";
paths = (
{
closed = 1;
nodes = (
"631 3 OFFCURVE",
"690 54 OFFCURVE",
"690 122 CURVE SMOOTH",
"690 175 OFFCURVE",
"648 209 OFFCURVE",
"609 229 CURVE",
"692 298 OFFCURVE",
"748 392 OFFCURVE",
"748 514 CURVE SMOOTH",
"748 521 LINE",
"835 521 LINE",
"835 622 LINE",
"-10 622 LINE",
"-10 521 LINE",
"625 521 LINE",
"625 514 LINE SMOOTH",
"625 417 OFFCURVE",
"583 331 OFFCURVE",
"509 274 CURVE",
"490 280 OFFCURVE",
"471 286 OFFCURVE",
"441 297 CURVE",
"478 316 OFFCURVE",
"497 347 OFFCURVE",
"497 388 CURVE SMOOTH",
"497 456 OFFCURVE",
"444 502 OFFCURVE",
"356 502 CURVE SMOOTH",
"265 502 OFFCURVE",
"218 457 OFFCURVE",
"218 399 CURVE SMOOTH",
"218 357 OFFCURVE",
"243 323 OFFCURVE",
"269 308 CURVE",
"178 290 LINE SMOOTH",
"69 269 OFFCURVE",
"41 211 OFFCURVE",
"41 157 CURVE SMOOTH",
"41 95 OFFCURVE",
"86 45 OFFCURVE",
"181 45 CURVE SMOOTH",
"273 45 OFFCURVE",
"320 92 OFFCURVE",
"320 152 CURVE SMOOTH",
"320 189 OFFCURVE",
"300 216 OFFCURVE",
"275 233 CURVE",
"360 249 LINE",
"369 245 OFFCURVE",
"382 238 OFFCURVE",
"394 232 CURVE SMOOTH",
"406 226 OFFCURVE",
"419 222 OFFCURVE",
"438 214 CURVE",
"401 192 OFFCURVE",
"371 161 OFFCURVE",
"371 117 CURVE SMOOTH",
"371 54 OFFCURVE",
"427 3 OFFCURVE",
"531 3 CURVE SMOOTH"
);
},
{
closed = 1;
nodes = (
"165 130 OFFCURVE",
"156 144 OFFCURVE",
"156 163 CURVE SMOOTH",
"156 182 OFFCURVE",
"166 202 OFFCURVE",
"181 212 CURVE",
"196 202 OFFCURVE",
"205 182 OFFCURVE",
"205 163 CURVE SMOOTH",
"205 144 OFFCURVE",
"197 130 OFFCURVE",
"180 130 CURVE SMOOTH"
);
},
{
closed = 1;
nodes = (
"514 91 OFFCURVE",
"504 106 OFFCURVE",
"504 127 CURVE SMOOTH",
"504 147 OFFCURVE",
"515 169 OFFCURVE",
"531 180 CURVE",
"547 169 OFFCURVE",
"557 147 OFFCURVE",
"557 127 CURVE SMOOTH",
"557 106 OFFCURVE",
"549 91 OFFCURVE",
"530 91 CURVE SMOOTH"
);
},
{
closed = 1;
nodes = (
"342 342 OFFCURVE",
"333 365 OFFCURVE",
"333 383 CURVE SMOOTH",
"333 403 OFFCURVE",
"340 417 OFFCURVE",
"358 417 CURVE SMOOTH",
"373 417 OFFCURVE",
"382 403 OFFCURVE",
"382 383 CURVE SMOOTH",
"382 365 OFFCURVE",
"372 342 OFFCURVE",
"357 334 CURVE"
);
}
);
width = 825;
}
);
rightKerningGroup = Ya.GGondi;
unicode = 11D76;
category = Letter;
userData = {
com.typemytype.robofont.mark = (
0.835,
1,
0.6,
1
);
};
},
{
color = 7;
glyphname = Gha.GGondi;
lastChange = "2021-10-18 08:30:41 +0000";
layers = (
{
anchors = (
{
name = bottom;
position = "{596, -28}";
},
{
name = top;
position = "{653, 656}";
}
);
background = {
anchors = (
{
name = bottom;
position = "{596, -28}";
},
{
name = top;
position = "{653, 656}";
}
);
paths = (
{
closed = 1;
nodes = (
"65 561 LINE",
"59 545 OFFCURVE",
"56 528 OFFCURVE",
"56 508 CURVE SMOOTH",
"56 417 OFFCURVE",
"116 369 OFFCURVE",
"206 324 CURVE SMOOTH",
"282 286 LINE SMOOTH",
"310 272 OFFCURVE",
"323 254 OFFCURVE",
"323 230 CURVE SMOOTH",
"323 202 OFFCURVE",
"301 184 OFFCURVE",
"264 184 CURVE SMOOTH",
"115 184 LINE",
"115 120 LINE",
"262 120 LINE SMOOTH",
"295 120 OFFCURVE",
"324 101 OFFCURVE",
"324 63 CURVE SMOOTH",
"324 24 OFFCURVE",
"286 0 OFFCURVE",
"233 0 CURVE SMOOTH",
"179 0 OFFCURVE",
"141 14 OFFCURVE",
"101 38 CURVE",
"69 -22 LINE",
"107 -48 OFFCURVE",
"161 -68 OFFCURVE",
"234 -68 CURVE SMOOTH",
"341 -68 OFFCURVE",
"402 -17 OFFCURVE",
"402 54 CURVE SMOOTH",
"402 102 OFFCURVE",
"373 131 OFFCURVE",
"348 145 CURVE",
"376 158 OFFCURVE",
"401 185 OFFCURVE",
"401 230 CURVE SMOOTH",
"401 284 OFFCURVE",
"358 324 OFFCURVE",
"304 348 CURVE",
"322 348 OFFCURVE",
"340 347 OFFCURVE",
"349 347 CURVE SMOOTH",
"438 347 LINE SMOOTH",
"487 347 OFFCURVE",
"535 339 OFFCURVE",
"576 318 CURVE",
"552 247 OFFCURVE",
"534 195 OFFCURVE",
"534 143 CURVE SMOOTH",
"534 67 OFFCURVE",
"582 38 OFFCURVE",
"634 38 CURVE SMOOTH",
"695 38 OFFCURVE",
"734 75 OFFCURVE",
"734 151 CURVE SMOOTH",
"734 232 OFFCURVE",
"700 292 OFFCURVE",
"662 329 CURVE",
"681 380 OFFCURVE",
"694 454 OFFCURVE",
"694 530 CURVE SMOOTH",
"694 541 OFFCURVE",
"693 551 OFFCURVE",
"693 561 CURVE",
"836 561 LINE",
"836 622 LINE",
"331 622 LINE",
"309 643 OFFCURVE",
"273 656 OFFCURVE",
"226 656 CURVE SMOOTH",
"181 656 OFFCURVE",
"141 644 OFFCURVE",
"111 622 CURVE",
"-20 622 LINE",
"-20 561 LINE"
);
},
{
closed = 1;
nodes = (
"158 473 OFFCURVE",
"193 460 OFFCURVE",
"235 460 CURVE SMOOTH",
"315 460 OFFCURVE",
"358 498 OFFCURVE",
"358 558 CURVE",
"358 561 LINE",
"614 561 LINE",
"615 549 OFFCURVE",
"615 538 OFFCURVE",
"615 526 CURVE SMOOTH",
"616 482 OFFCURVE",
"608 420 OFFCURVE",
"597 374 CURVE",
"553 401 OFFCURVE",
"502 409 OFFCURVE",
"433 409 CURVE SMOOTH",
"284 409 LINE SMOOTH",
"257 409 OFFCURVE",
"232 407 OFFCURVE",
"199 405 CURVE",
"164 424 OFFCURVE",
"138 452 OFFCURVE",
"133 492 CURVE"
);
},
{
closed = 1;
nodes = (
"161 579 OFFCURVE",
"189 595 OFFCURVE",
"228 595 CURVE SMOOTH",
"253 595 OFFCURVE",
"280 584 OFFCURVE",
"280 557 CURVE SMOOTH",
"280 534 OFFCURVE",
"260 521 OFFCURVE",
"225 521 CURVE SMOOTH",
"207 521 OFFCURVE",
"170 529 OFFCURVE",
"143 554 CURVE"
);
},
{
closed = 1;
nodes = (
"607 178 OFFCURVE",
"615 213 OFFCURVE",
"632 270 CURVE",
"650 245 OFFCURVE",
"662 205 OFFCURVE",
"662 153 CURVE SMOOTH",
"662 118 OFFCURVE",
"652 99 OFFCURVE",
"634 99 CURVE SMOOTH",
"617 99 OFFCURVE",
"607 114 OFFCURVE",
"607 145 CURVE SMOOTH"
);
}
);
};
layerId = "1D9335A4-69BC-4202-817B-D13DAA30F854";
paths = (
{
closed = 1;
nodes = (
"341 -68 OFFCURVE",
"402 -17 OFFCURVE",
"402 54 CURVE SMOOTH",
"402 102 OFFCURVE",
"373 131 OFFCURVE",
"348 145 CURVE",
"376 158 OFFCURVE",
"401 185 OFFCURVE",
"401 230 CURVE SMOOTH",
"401 284 OFFCURVE",
"358 324 OFFCURVE",
"304 348 CURVE",
"322 348 OFFCURVE",
"340 347 OFFCURVE",
"349 347 CURVE SMOOTH",
"438 347 LINE SMOOTH",
"487 347 OFFCURVE",
"535 339 OFFCURVE",
"576 318 CURVE",
"552 247 OFFCURVE",
"534 195 OFFCURVE",
"534 143 CURVE SMOOTH",
"534 67 OFFCURVE",
"582 38 OFFCURVE",
"634 38 CURVE SMOOTH",
"695 38 OFFCURVE",
"734 75 OFFCURVE",
"734 151 CURVE SMOOTH",
"734 232 OFFCURVE",
"700 292 OFFCURVE",
"662 329 CURVE",
"681 380 OFFCURVE",
"694 454 OFFCURVE",
"694 530 CURVE SMOOTH",
"694 541 OFFCURVE",
"693 551 OFFCURVE",
"693 561 CURVE",
"836 561 LINE",
"836 622 LINE",
"331 622 LINE",
"309 643 OFFCURVE",
"273 656 OFFCURVE",
"226 656 CURVE SMOOTH",
"181 656 OFFCURVE",
"141 644 OFFCURVE",
"111 622 CURVE",
"-20 622 LINE",
"-20 561 LINE",
"65 561 LINE",
"59 545 OFFCURVE",
"56 528 OFFCURVE",
"56 508 CURVE SMOOTH",
"56 417 OFFCURVE",
"116 369 OFFCURVE",
"206 324 CURVE SMOOTH",
"282 286 LINE SMOOTH",
"310 272 OFFCURVE",
"323 254 OFFCURVE",
"323 230 CURVE SMOOTH",
"323 202 OFFCURVE",
"301 184 OFFCURVE",
"264 184 CURVE SMOOTH",
"115 184 LINE",
"115 120 LINE",
"262 120 LINE SMOOTH",
"295 120 OFFCURVE",
"324 101 OFFCURVE",
"324 63 CURVE SMOOTH",
"324 24 OFFCURVE",
"286 0 OFFCURVE",
"233 0 CURVE SMOOTH",
"179 0 OFFCURVE",
"141 14 OFFCURVE",
"101 38 CURVE",
"69 -22 LINE",
"107 -48 OFFCURVE",
"161 -68 OFFCURVE",
"234 -68 CURVE SMOOTH"
);
},
{
closed = 1;
nodes = (
"553 401 OFFCURVE",
"502 409 OFFCURVE",
"433 409 CURVE SMOOTH",
"284 409 LINE SMOOTH",
"257 409 OFFCURVE",
"232 407 OFFCURVE",
"199 405 CURVE",
"164 424 OFFCURVE",
"138 452 OFFCURVE",
"133 492 CURVE",
"158 473 OFFCURVE",
"193 460 OFFCURVE",
"235 460 CURVE SMOOTH",
"315 460 OFFCURVE",
"358 498 OFFCURVE",
"358 558 CURVE",
"358 561 LINE",
"614 561 LINE",
"615 549 OFFCURVE",
"615 538 OFFCURVE",
"615 526 CURVE SMOOTH",
"616 482 OFFCURVE",
"608 420 OFFCURVE",
"597 374 CURVE"
);
},
{
closed = 1;
nodes = (
"617 99 OFFCURVE",
"607 114 OFFCURVE",
"607 145 CURVE SMOOTH",
"607 178 OFFCURVE",
"615 213 OFFCURVE",
"632 270 CURVE",
"650 245 OFFCURVE",
"662 205 OFFCURVE",
"662 153 CURVE SMOOTH",
"662 118 OFFCURVE",
"652 99 OFFCURVE",
"634 99 CURVE SMOOTH"
);
},
{
closed = 1;
nodes = (
"207 521 OFFCURVE",
"170 529 OFFCURVE",
"143 554 CURVE",
"161 579 OFFCURVE",
"189 595 OFFCURVE",
"228 595 CURVE SMOOTH",
"253 595 OFFCURVE",
"280 584 OFFCURVE",
"280 557 CURVE SMOOTH",
"280 534 OFFCURVE",
"260 521 OFFCURVE",
"225 521 CURVE SMOOTH"
);
}
);
width = 826;
},
{
anchors = (
{
name = bottom;
position = "{743, -28}";
},
{
name = top;
position = "{790, 662}";
}
);
layerId = "37631205-D7B2-4E6B-9DD1-7005090CBFCA";
paths = (
{
closed = 1;
nodes = (
"393 -68 OFFCURVE",
"471 -20 OFFCURVE",
"471 68 CURVE SMOOTH",
"471 104 OFFCURVE",
"455 131 OFFCURVE",
"424 147 CURVE",
"463 164 OFFCURVE",
"486 188 OFFCURVE",
"486 226 CURVE SMOOTH",
"486 249 OFFCURVE",
"474 273 OFFCURVE",
"453 286 CURVE",
"470 284 OFFCURVE",
"494 283 OFFCURVE",
"514 283 CURVE SMOOTH",
"602 283 LINE SMOOTH",
"635 283 OFFCURVE",
"650 279 OFFCURVE",
"661 277 CURVE",
"646 251 OFFCURVE",
"626 205 OFFCURVE",
"626 156 CURVE SMOOTH",
"626 58 OFFCURVE",
"690 13 OFFCURVE",
"787 13 CURVE SMOOTH",
"879 13 OFFCURVE",
"949 58 OFFCURVE",
"949 162 CURVE SMOOTH",
"949 248 OFFCURVE",
"899 307 OFFCURVE",
"831 344 CURVE",
"851 392 OFFCURVE",
"860 434 OFFCURVE",
"860 480 CURVE SMOOTH",
"860 490 OFFCURVE",
"860 511 OFFCURVE",
"860 521 CURVE",
"992 521 LINE",
"992 622 LINE",
"390 622 LINE",
"359 645 OFFCURVE",
"330 659 OFFCURVE",
"273 659 CURVE SMOOTH",
"225 659 OFFCURVE",
"178 649 OFFCURVE",
"141 622 CURVE",
"-10 622 LINE",
"-10 521 LINE",
"81 521 LINE",
"80 513 OFFCURVE",
"79 505 OFFCURVE",
"79 496 CURVE SMOOTH",
"79 393 OFFCURVE",
"137 338 OFFCURVE",
"203 306 CURVE SMOOTH",
"328 246 LINE SMOOTH",
"341 240 OFFCURVE",
"352 235 OFFCURVE",
"352 225 CURVE SMOOTH",
"352 212 OFFCURVE",
"339 208 OFFCURVE",
"325 208 CURVE SMOOTH",
"150 208 LINE",
"150 108 LINE",
"311 108 LINE SMOOTH",
"325 108 OFFCURVE",
"344 103 OFFCURVE",
"344 79 CURVE SMOOTH",
"344 52 OFFCURVE",
"322 42 OFFCURVE",
"272 42 CURVE SMOOTH",
"207 42 OFFCURVE",
"159 61 OFFCURVE",
"142 70 CURVE",
"108 -27 LINE",
"130 -40 OFFCURVE",
"191 -68 OFFCURVE",
"277 -68 CURVE SMOOTH"
);
},
{
closed = 1;
nodes = (
"686 380 OFFCURVE",
"651 382 OFFCURVE",
"617 382 CURVE SMOOTH",
"414 383 LINE SMOOTH",
"386 383 OFFCURVE",
"359 383 OFFCURVE",
"315 379 CURVE",
"306 380 OFFCURVE",
"250 403 OFFCURVE",
"241 421 CURVE",
"255 411 OFFCURVE",
"277 407 OFFCURVE",
"306 407 CURVE SMOOTH",
"385 407 OFFCURVE",
"434 458 OFFCURVE",
"434 518 CURVE SMOOTH",
"434 521 LINE",
"731 521 LINE",
"731 509 OFFCURVE",
"731 488 OFFCURVE",
"731 476 CURVE SMOOTH",
"731 462 OFFCURVE",
"729 422 OFFCURVE",
"712 375 CURVE"
);
},
{
closed = 1;
nodes = (
"771 123 OFFCURVE",
"761 138 OFFCURVE",
"761 164 CURVE SMOOTH",
"761 189 OFFCURVE",
"771 215 OFFCURVE",
"786 237 CURVE",
"803 215 OFFCURVE",
"814 189 OFFCURVE",
"814 164 CURVE SMOOTH",
"814 138 OFFCURVE",
"806 123 OFFCURVE",
"787 123 CURVE SMOOTH"
);
},
{
closed = 1;
nodes = (
"258 493 OFFCURVE",
"232 504 OFFCURVE",
"213 530 CURVE",
"234 550 OFFCURVE",
"258 559 OFFCURVE",
"278 559 CURVE SMOOTH",
"303 559 OFFCURVE",
"323 549 OFFCURVE",
"323 527 CURVE SMOOTH",
"323 504 OFFCURVE",
"303 493 OFFCURVE",
"278 493 CURVE SMOOTH"
);
}
);
width = 982;
}
);
unicode = 11D77;
category = Letter;
userData = {
com.typemytype.robofont.mark = (
1,
0.6,
0.6,
1
);
};
},
{
color = 7;
glyphname = Da.GGondi;
lastChange = "2021-10-18 08:30:41 +0000";
layers = (
{
anchors = (
{
name = bottom;
position = "{588, -28}";
},
{
name = top;
position = "{636, 656}";
}
);
background = {
anchors = (
{
name = bottom;
position = "{588, -28}";
},
{
name = top;
position = "{636, 656}";
}
);
paths = (
{
closed = 1;
nodes = (
"596 561 LINE",
"598 542 OFFCURVE",
"598 530 OFFCURVE",
"598 519 CURVE SMOOTH",
"599 456 OFFCURVE",
"591 370 OFFCURVE",
"566 287 CURVE",
"544 292 OFFCURVE",
"519 295 OFFCURVE",
"491 295 CURVE SMOOTH",
"428 295 LINE",
"416 429 OFFCURVE",
"320 506 OFFCURVE",
"211 506 CURVE SMOOTH",
"127 506 OFFCURVE",
"72 453 OFFCURVE",
"72 386 CURVE SMOOTH",
"72 322 OFFCURVE",
"119 273 OFFCURVE",
"198 273 CURVE SMOOTH",
"259 273 OFFCURVE",
"314 308 OFFCURVE",
"319 379 CURVE",
"335 354 OFFCURVE",
"350 317 OFFCURVE",
"349 269 CURVE SMOOTH",
"347 164 OFFCURVE",
"304 84 OFFCURVE",
"194 84 CURVE SMOOTH",
"156 84 OFFCURVE",
"118 94 OFFCURVE",
"89 107 CURVE",
"64 44 LINE",
"103 25 OFFCURVE",
"152 16 OFFCURVE",
"197 16 CURVE SMOOTH",
"329 16 OFFCURVE",
"413 91 OFFCURVE",
"427 227 CURVE",
"491 227 LINE SMOOTH",
"512 227 OFFCURVE",
"529 226 OFFCURVE",
"542 225 CURVE",
"534 195 OFFCURVE",
"526 158 OFFCURVE",
"526 123 CURVE SMOOTH",
"526 44 OFFCURVE",
"574 13 OFFCURVE",
"627 13 CURVE SMOOTH",
"687 13 OFFCURVE",
"726 47 OFFCURVE",
"726 117 CURVE SMOOTH",
"726 184 OFFCURVE",
"685 233 OFFCURVE",
"633 264 CURVE",
"664 352 OFFCURVE",
"677 444 OFFCURVE",
"677 523 CURVE SMOOTH",
"677 537 OFFCURVE",
"676 549 OFFCURVE",
"675 561 CURVE",
"818 561 LINE",
"818 622 LINE",
"-10 622 LINE",
"-10 561 LINE"
);
},
{
closed = 1;
nodes = (
"150 417 OFFCURVE",
"175 438 OFFCURVE",
"215 438 CURVE SMOOTH",
"232 438 OFFCURVE",
"245 435 OFFCURVE",
"259 428 CURVE",
"270 358 OFFCURVE",
"231 338 OFFCURVE",
"204 338 CURVE SMOOTH",
"169 338 OFFCURVE",
"150 358 OFFCURVE",
"150 386 CURVE SMOOTH"
);
},
{
closed = 1;
nodes = (
"599 150 OFFCURVE",
"603 176 OFFCURVE",
"611 201 CURVE",
"636 189 OFFCURVE",
"654 160 OFFCURVE",
"654 119 CURVE SMOOTH",
"654 90 OFFCURVE",
"644 74 OFFCURVE",
"627 74 CURVE SMOOTH",
"609 74 OFFCURVE",
"599 90 OFFCURVE",
"599 125 CURVE SMOOTH"
);
}
);
};
layerId = "1D9335A4-69BC-4202-817B-D13DAA30F854";
paths = (
{
closed = 1;
nodes = (
"687 13 OFFCURVE",
"726 47 OFFCURVE",
"726 117 CURVE SMOOTH",
"726 184 OFFCURVE",
"685 233 OFFCURVE",
"633 264 CURVE",
"664 352 OFFCURVE",
"677 444 OFFCURVE",
"677 523 CURVE SMOOTH",
"677 537 OFFCURVE",
"676 549 OFFCURVE",
"675 561 CURVE",
"818 561 LINE",
"818 622 LINE",
"-10 622 LINE",
"-10 561 LINE",
"596 561 LINE",
"598 542 OFFCURVE",
"598 530 OFFCURVE",
"598 519 CURVE SMOOTH",
"599 456 OFFCURVE",
"591 370 OFFCURVE",
"566 287 CURVE",
"544 292 OFFCURVE",
"519 295 OFFCURVE",
"491 295 CURVE SMOOTH",
"428 295 LINE",
"416 429 OFFCURVE",
"320 506 OFFCURVE",
"211 506 CURVE SMOOTH",
"127 506 OFFCURVE",
"72 453 OFFCURVE",
"72 386 CURVE SMOOTH",
"72 322 OFFCURVE",
"119 273 OFFCURVE",
"198 273 CURVE SMOOTH",
"259 273 OFFCURVE",
"314 308 OFFCURVE",
"319 379 CURVE",
"335 354 OFFCURVE",
"350 317 OFFCURVE",
"349 269 CURVE SMOOTH",
"347 164 OFFCURVE",
"304 84 OFFCURVE",
"194 84 CURVE SMOOTH",
"156 84 OFFCURVE",
"118 94 OFFCURVE",
"89 107 CURVE",
"64 44 LINE",
"103 25 OFFCURVE",
"152 16 OFFCURVE",
"197 16 CURVE SMOOTH",
"329 16 OFFCURVE",
"413 91 OFFCURVE",
"427 227 CURVE",
"491 227 LINE SMOOTH",
"512 227 OFFCURVE",
"529 226 OFFCURVE",
"542 225 CURVE",
"534 195 OFFCURVE",
"526 158 OFFCURVE",
"526 123 CURVE SMOOTH",
"526 44 OFFCURVE",
"574 13 OFFCURVE",
"627 13 CURVE SMOOTH"
);
},
{
closed = 1;
nodes = (
"169 338 OFFCURVE",
"150 358 OFFCURVE",
"150 386 CURVE SMOOTH",
"150 417 OFFCURVE",
"175 438 OFFCURVE",
"215 438 CURVE SMOOTH",
"232 438 OFFCURVE",
"245 435 OFFCURVE",
"259 428 CURVE",
"270 358 OFFCURVE",
"231 338 OFFCURVE",
"204 338 CURVE SMOOTH"
);
},
{
closed = 1;
nodes = (
"609 74 OFFCURVE",
"599 90 OFFCURVE",
"599 125 CURVE SMOOTH",
"599 150 OFFCURVE",
"603 176 OFFCURVE",
"611 201 CURVE",
"636 189 OFFCURVE",
"654 160 OFFCURVE",
"654 119 CURVE SMOOTH",
"654 90 OFFCURVE",
"644 74 OFFCURVE",
"627 74 CURVE SMOOTH"
);
}
);
width = 808;
},
{
anchors = (
{
name = bottom;
position = "{636, -28}";
},
{
name = top;
position = "{684, 662}";
}
);
layerId = "37631205-D7B2-4E6B-9DD1-7005090CBFCA";
paths = (
{
closed = 1;
nodes = (
"768 12 OFFCURVE",
"838 57 OFFCURVE",
"838 156 CURVE SMOOTH",
"838 237 OFFCURVE",
"790 294 OFFCURVE",
"724 320 CURVE",
"750 379 OFFCURVE",
"757 454 OFFCURVE",
"757 500 CURVE SMOOTH",
"757 507 OFFCURVE",
"757 514 OFFCURVE",
"757 521 CURVE",
"881 521 LINE",
"881 622 LINE",
"-10 622 LINE",
"-10 521 LINE",
"628 521 LINE",
"628 513 OFFCURVE",
"628 504 OFFCURVE",
"628 496 CURVE SMOOTH",
"628 482 OFFCURVE",
"626 406 OFFCURVE",
"606 348 CURVE",
"575 351 OFFCURVE",
"552 352 OFFCURVE",
"526 352 CURVE SMOOTH",
"472 352 LINE",
"435 451 OFFCURVE",
"338 508 OFFCURVE",
"231 508 CURVE SMOOTH",
"118 508 OFFCURVE",
"60 434 OFFCURVE",
"60 352 CURVE SMOOTH",
"60 251 OFFCURVE",
"137 209 OFFCURVE",
"216 209 CURVE SMOOTH",
"266 209 OFFCURVE",
"328 235 OFFCURVE",
"352 300 CURVE",
"356 287 OFFCURVE",
"359 272 OFFCURVE",
"359 259 CURVE SMOOTH",
"359 175 OFFCURVE",
"317 122 OFFCURVE",
"228 122 CURVE SMOOTH",
"179 122 OFFCURVE",
"149 127 OFFCURVE",
"115 139 CURVE",
"81 42 LINE",
"127 24 OFFCURVE",
"176 16 OFFCURVE",
"228 16 CURVE SMOOTH",
"345 16 OFFCURVE",
"484 73 OFFCURVE",
"488 252 CURVE",
"526 252 LINE SMOOTH",
"538 252 OFFCURVE",
"548 251 OFFCURVE",
"554 250 CURVE",
"530 222 OFFCURVE",
"515 186 OFFCURVE",
"515 150 CURVE SMOOTH",
"515 57 OFFCURVE",
"575 12 OFFCURVE",
"676 12 CURVE SMOOTH"
);
},
{
closed = 1;
nodes = (
"215 316 OFFCURVE",
"193 329 OFFCURVE",
"193 358 CURVE SMOOTH",
"193 388 OFFCURVE",
"217 402 OFFCURVE",
"237 402 CURVE SMOOTH",
"256 402 OFFCURVE",
"274 395 OFFCURVE",
"290 381 CURVE",
"284 341 OFFCURVE",
"263 316 OFFCURVE",
"235 316 CURVE SMOOTH"
);
},
{
closed = 1;
nodes = (
"660 122 OFFCURVE",
"650 137 OFFCURVE",
"650 158 CURVE SMOOTH",
"650 178 OFFCURVE",
"660 205 OFFCURVE",
"675 221 CURVE",
"692 205 OFFCURVE",
"703 178 OFFCURVE",
"703 158 CURVE SMOOTH",
"703 137 OFFCURVE",
"695 122 OFFCURVE",
"676 122 CURVE SMOOTH"
);
}
);
width = 871;
}
);
unicode = 11D78;
category = Letter;
userData = {
com.typemytype.robofont.mark = (
1,
0.6,
0.6,
1
);
};
},
{
color = 9;
glyphname = Dha.GGondi;
lastChange = "2021-10-18 08:30:41 +0000";
layers = (
{
anchors = (
{
name = bottom;
position = "{517, -28}";
},
{
name = top;
position = "{711, 656}";
}
);
background = {
anchors = (
{
name = bottom;
position = "{517, -28}";
},
{
name = top;
position = "{711, 656}";
}
);
paths = (
{
closed = 1;
nodes = (
"297 561 LINE",
"298 487 OFFCURVE",
"311 448 OFFCURVE",
"324 416 CURVE",
"325 404 OFFCURVE",
"327 396 OFFCURVE",
"327 372 CURVE SMOOTH",
"327 338 OFFCURVE",
"316 309 OFFCURVE",
"296 288 CURVE",
"179 430 LINE",
"191 435 OFFCURVE",
"204 438 OFFCURVE",
"218 438 CURVE SMOOTH",
"228 438 OFFCURVE",
"235 438 OFFCURVE",
"247 436 CURVE",
"253 501 LINE",
"243 503 OFFCURVE",
"230 504 OFFCURVE",
"214 504 CURVE SMOOTH",
"121 504 OFFCURVE",
"48 444 OFFCURVE",
"48 345 CURVE SMOOTH",
"48 247 OFFCURVE",
"125 192 OFFCURVE",
"215 192 CURVE SMOOTH",
"312 192 OFFCURVE",
"364 250 OFFCURVE",
"379 311 CURVE",
"402 279 OFFCURVE",
"431 252 OFFCURVE",
"463 227 CURVE",
"430 201 OFFCURVE",
"399 167 OFFCURVE",
"399 112 CURVE SMOOTH",
"399 45 OFFCURVE",
"453 3 OFFCURVE",
"529 3 CURVE SMOOTH",
"606 3 OFFCURVE",
"655 48 OFFCURVE",
"655 112 CURVE SMOOTH",
"655 161 OFFCURVE",
"622 203 OFFCURVE",
"587 228 CURVE",
"659 282 OFFCURVE",
"750 377 OFFCURVE",
"750 554 CURVE SMOOTH",
"750 561 LINE",
"843 561 LINE",
"843 622 LINE",
"-10 622 LINE",
"-10 561 LINE"
);
},
{
closed = 1;
nodes = (
"126 371 OFFCURVE",
"133 391 OFFCURVE",
"146 406 CURVE",
"260 264 LINE",
"249 260 OFFCURVE",
"236 258 OFFCURVE",
"223 258 CURVE SMOOTH",
"168 258 OFFCURVE",
"126 288 OFFCURVE",
"126 348 CURVE SMOOTH"
);
},
{
closed = 1;
nodes = (
"670 561 LINE",
"670 554 LINE SMOOTH",
"670 400 OFFCURVE",
"595 318 OFFCURVE",
"523 263 CURVE",
"458 315 OFFCURVE",
"372 394 OFFCURVE",
"375 561 CURVE"
);
},
{
closed = 1;
nodes = (
"479 150 OFFCURVE",
"498 171 OFFCURVE",
"525 195 CURVE",
"557 176 OFFCURVE",
"577 150 OFFCURVE",
"577 120 CURVE SMOOTH",
"577 93 OFFCURVE",
"558 71 OFFCURVE",
"528 71 CURVE SMOOTH",
"495 71 OFFCURVE",
"479 92 OFFCURVE",
"479 118 CURVE SMOOTH"
);
}
);
};
layerId = "1D9335A4-69BC-4202-817B-D13DAA30F854";
paths = (
{
closed = 1;
nodes = (
"606 3 OFFCURVE",
"655 48 OFFCURVE",
"655 112 CURVE SMOOTH",
"655 161 OFFCURVE",
"622 203 OFFCURVE",
"587 228 CURVE",
"659 282 OFFCURVE",
"750 377 OFFCURVE",
"750 554 CURVE SMOOTH",
"750 561 LINE",
"843 561 LINE",
"843 622 LINE",
"-10 622 LINE",
"-10 561 LINE",
"297 561 LINE",
"298 487 OFFCURVE",
"311 448 OFFCURVE",
"324 416 CURVE",
"325 404 OFFCURVE",
"327 396 OFFCURVE",
"327 372 CURVE SMOOTH",
"327 338 OFFCURVE",
"316 309 OFFCURVE",
"296 288 CURVE",
"179 430 LINE",
"191 435 OFFCURVE",
"204 438 OFFCURVE",
"218 438 CURVE SMOOTH",
"228 438 OFFCURVE",
"235 438 OFFCURVE",
"247 436 CURVE",
"253 501 LINE",
"243 503 OFFCURVE",
"230 504 OFFCURVE",
"214 504 CURVE SMOOTH",
"121 504 OFFCURVE",
"48 444 OFFCURVE",
"48 345 CURVE SMOOTH",
"48 247 OFFCURVE",
"125 192 OFFCURVE",
"215 192 CURVE SMOOTH",
"312 192 OFFCURVE",
"364 250 OFFCURVE",
"379 311 CURVE",
"402 279 OFFCURVE",
"431 252 OFFCURVE",
"463 227 CURVE",
"430 201 OFFCURVE",
"399 167 OFFCURVE",
"399 112 CURVE SMOOTH",
"399 45 OFFCURVE",
"453 3 OFFCURVE",
"529 3 CURVE SMOOTH"
);
},
{
closed = 1;
nodes = (
"168 258 OFFCURVE",
"126 288 OFFCURVE",
"126 348 CURVE SMOOTH",
"126 371 OFFCURVE",
"133 391 OFFCURVE",
"146 406 CURVE",
"260 264 LINE",
"249 260 OFFCURVE",
"236 258 OFFCURVE",
"223 258 CURVE SMOOTH"
);
},
{
closed = 1;
nodes = (
"495 71 OFFCURVE",
"479 92 OFFCURVE",
"479 118 CURVE SMOOTH",
"479 150 OFFCURVE",
"498 171 OFFCURVE",
"525 195 CURVE",
"557 176 OFFCURVE",
"577 150 OFFCURVE",
"577 120 CURVE SMOOTH",
"577 93 OFFCURVE",
"558 71 OFFCURVE",
"528 71 CURVE SMOOTH"
);
},
{
closed = 1;
nodes = (
"458 315 OFFCURVE",
"372 394 OFFCURVE",
"375 561 CURVE",
"670 561 LINE",
"670 554 LINE SMOOTH",
"670 400 OFFCURVE",
"595 318 OFFCURVE",
"523 263 CURVE"
);
}
);
width = 833;
},
{
anchors = (
{
name = bottom;
position = "{522, -28}";
},
{
name = top;
position = "{696, 662}";
}
);
layerId = "37631205-D7B2-4E6B-9DD1-7005090CBFCA";
paths = (
{
closed = 1;
nodes = (
"626 3 OFFCURVE",
"685 54 OFFCURVE",
"685 122 CURVE SMOOTH",
"685 175 OFFCURVE",
"654 210 OFFCURVE",
"619 231 CURVE",
"701 299 OFFCURVE",
"747 392 OFFCURVE",
"747 514 CURVE SMOOTH",
"747 521 LINE",
"844 521 LINE",
"844 622 LINE",
"-10 622 LINE",
"-10 521 LINE",
"299 521 LINE",
"299 475 OFFCURVE",
"303 429 OFFCURVE",
"319 383 CURVE",
"320 378 OFFCURVE",
"320 373 OFFCURVE",
"320 368 CURVE SMOOTH",
"320 342 OFFCURVE",
"309 324 OFFCURVE",
"295 313 CURVE",
"238 388 LINE",
"240 388 OFFCURVE",
"242 388 OFFCURVE",
"245 388 CURVE SMOOTH",
"254 388 OFFCURVE",
"264 386 OFFCURVE",
"269 385 CURVE",
"276 490 LINE",
"263 494 OFFCURVE",
"232 495 OFFCURVE",
"218 495 CURVE SMOOTH",
"118 495 OFFCURVE",
"50 434 OFFCURVE",
"50 342 CURVE SMOOTH",
"50 272 OFFCURVE",
"93 184 OFFCURVE",
"230 184 CURVE SMOOTH",
"306 184 OFFCURVE",
"350 224 OFFCURVE",
"370 275 CURVE",
"385 258 OFFCURVE",
"402 243 OFFCURVE",
"426 228 CURVE",
"383 202 OFFCURVE",
"362 169 OFFCURVE",
"362 123 CURVE SMOOTH",
"362 55 OFFCURVE",
"417 3 OFFCURVE",
"521 3 CURVE SMOOTH"
);
},
{
closed = 1;
nodes = (
"204 291 OFFCURVE",
"179 309 OFFCURVE",
"179 338 CURVE SMOOTH",
"179 347 OFFCURVE",
"181 359 OFFCURVE",
"191 367 CURVE",
"246.931 294.3 LINE",
"245 293 OFFCURVE",
"242 291 OFFCURVE",
"231 291 CURVE SMOOTH"
);
},
{
closed = 1;
nodes = (
"507 103 OFFCURVE",
"497 118 OFFCURVE",
"497 139 CURVE SMOOTH",
"497 155 OFFCURVE",
"507 177 OFFCURVE",
"522 193 CURVE",
"539 177 OFFCURVE",
"550 155 OFFCURVE",
"550 139 CURVE SMOOTH",
"550 118 OFFCURVE",
"542 103 OFFCURVE",
"523 103 CURVE SMOOTH"
);
},
{
closed = 1;
nodes = (
"446 342 OFFCURVE",
"425 417 OFFCURVE",
"425 521 CURVE",
"624 521 LINE",
"624 514 LINE SMOOTH",
"624 417 OFFCURVE",
"591 342 OFFCURVE",
"517 285 CURVE"
);
}
);
width = 834;
}
);
rightKerningGroup = Ya.GGondi;
unicode = 11D79;
category = Letter;
userData = {
com.typemytype.robofont.mark = (
0.835,
1,
0.6,
1
);
};
},
{
color = 4;
glyphname = Na.GGondi;
lastChange = "2021-10-18 08:30:41 +0000";
layers = (
{
anchors = (
{
name = bottom;
position = "{320, -28}";
},
{
name = top;
position = "{511, 656}";
}
);
background = {
anchors = (
{
name = bottom;
position = "{320, -28}";
},
{
name = top;
position = "{511, 656}";
}
);
paths = (
{
closed = 1;
nodes = (
"100 561 LINE",
"100 224 LINE SMOOTH",
"100 85 OFFCURVE",
"199 15 OFFCURVE",
"326 15 CURVE SMOOTH",
"454 15 OFFCURVE",
"550 85 OFFCURVE",
"550 224 CURVE SMOOTH",
"550 561 LINE",
"660 561 LINE",
"660 622 LINE",
"-10 622 LINE",
"-10 561 LINE"
);
},
{
closed = 1;
nodes = (
"178 561 LINE",
"472 561 LINE",
"472 224 LINE SMOOTH",
"472 136 OFFCURVE",
"416 83 OFFCURVE",
"326 83 CURVE SMOOTH",
"236 83 OFFCURVE",
"178 135 OFFCURVE",
"178 224 CURVE SMOOTH"
);
},
{
closed = 1;
nodes = (
"275 304 OFFCURVE",
"298 286 OFFCURVE",
"327 286 CURVE SMOOTH",
"354 286 OFFCURVE",
"378 304 OFFCURVE",
"378 342 CURVE SMOOTH",
"378 381 OFFCURVE",
"354 398 OFFCURVE",
"327 398 CURVE SMOOTH",
"298 398 OFFCURVE",
"275 381 OFFCURVE",
"275 342 CURVE SMOOTH"
);
}
);
};
layerId = "1D9335A4-69BC-4202-817B-D13DAA30F854";
paths = (
{
closed = 1;
nodes = (
"454 15 OFFCURVE",
"550 85 OFFCURVE",
"550 224 CURVE SMOOTH",
"550 561 LINE",
"660 561 LINE",
"660 622 LINE",
"-10 622 LINE",
"-10 561 LINE",
"100 561 LINE",
"100 224 LINE SMOOTH",
"100 85 OFFCURVE",
"199 15 OFFCURVE",
"326 15 CURVE SMOOTH"
);
},
{
closed = 1;
nodes = (
"236 83 OFFCURVE",
"178 135 OFFCURVE",
"178 224 CURVE SMOOTH",
"178 561 LINE",
"472 561 LINE",
"472 224 LINE SMOOTH",
"472 136 OFFCURVE",
"416 83 OFFCURVE",
"326 83 CURVE SMOOTH"
);
},
{
closed = 1;
nodes = (
"354 286 OFFCURVE",
"378 304 OFFCURVE",
"378 342 CURVE SMOOTH",
"378 381 OFFCURVE",
"354 398 OFFCURVE",
"327 398 CURVE SMOOTH",
"298 398 OFFCURVE",
"275 381 OFFCURVE",
"275 342 CURVE SMOOTH",
"275 304 OFFCURVE",
"298 286 OFFCURVE",
"327 286 CURVE SMOOTH"
);
}
);
width = 650;
},
{
anchors = (
{
name = bottom;
position = "{342, -28}";
},
{
name = top;
position = "{543, 662}";
}
);
layerId = "37631205-D7B2-4E6B-9DD1-7005090CBFCA";
paths = (
{
closed = 1;
nodes = (
"474 15 OFFCURVE",
"610 75 OFFCURVE",
"610 264 CURVE SMOOTH",
"610 521 LINE",
"700 521 LINE",
"700 622 LINE",
"-10 622 LINE",
"-10 521 LINE",
"80 521 LINE",
"80 264 LINE SMOOTH",
"80 75 OFFCURVE",
"219 15 OFFCURVE",
"346 15 CURVE SMOOTH"
);
},
{
closed = 1;
nodes = (
"256 125 OFFCURVE",
"214 177 OFFCURVE",
"214 286 CURVE SMOOTH",
"214 521 LINE",
"476 521 LINE",
"476 286 LINE SMOOTH",
"476 178 OFFCURVE",
"436 125 OFFCURVE",
"346 125 CURVE SMOOTH"
);
},
{
closed = 1;
nodes = (
"382 275 OFFCURVE",
"412 296 OFFCURVE",
"412 346 CURVE SMOOTH",
"412 399 OFFCURVE",
"382 418 OFFCURVE",
"347 418 CURVE SMOOTH",
"310 418 OFFCURVE",
"281 399 OFFCURVE",
"281 346 CURVE SMOOTH",
"281 296 OFFCURVE",
"310 275 OFFCURVE",
"347 275 CURVE SMOOTH"
);
}
);
width = 690;
}
);
rightKerningGroup = Na.GGondi;
unicode = 11D7A;
category = Letter;
userData = {
com.typemytype.robofont.mark = (
0.835,
1,
0.6,
1
);
};
},
{
color = 9;
glyphname = Ca.GGondi;
lastChange = "2021-10-18 08:30:41 +0000";
layers = (
{
anchors = (
{
name = bottom;
position = "{356, -28}";
},
{
name = top;
position = "{550, 656}";
}
);
background = {
anchors = (
{
name = bottom;
position = "{356, -28}";
},
{
name = top;
position = "{550, 656}";
}
);
paths = (
{
closed = 1;
nodes = (
"509 561 LINE",
"509 554 LINE SMOOTH",
"509 400 OFFCURVE",
"433 318 OFFCURVE",
"362 263 CURVE",
"322 282 OFFCURVE",
"290 297 OFFCURVE",
"265 311 CURVE",
"300 332 OFFCURVE",
"322 369 OFFCURVE",
"322 407 CURVE SMOOTH",
"322 473 OFFCURVE",
"269 508 OFFCURVE",
"212 510 CURVE SMOOTH",
"148 512 OFFCURVE",
"99 475 OFFCURVE",
"99 411 CURVE SMOOTH",
"99 372 OFFCURVE",
"118 339 OFFCURVE",
"151 315 CURVE",
"96 288 OFFCURVE",
"40 236 OFFCURVE",
"15 167 CURVE",
"78 134 LINE",
"104 195 OFFCURVE",
"155 248 OFFCURVE",
"203 274 CURVE",
"217 266 LINE SMOOTH",
"253 246 OFFCURVE",
"276 234 OFFCURVE",
"297 223 CURVE",
"266 198 OFFCURVE",
"238 164 OFFCURVE",
"238 112 CURVE SMOOTH",
"238 45 OFFCURVE",
"292 3 OFFCURVE",
"368 3 CURVE SMOOTH",
"445 3 OFFCURVE",
"494 48 OFFCURVE",
"494 112 CURVE SMOOTH",
"494 161 OFFCURVE",
"461 203 OFFCURVE",
"426 228 CURVE",
"498 282 OFFCURVE",
"589 377 OFFCURVE",
"589 554 CURVE SMOOTH",
"589 561 LINE",
"682 561 LINE",
"682 622 LINE",
"-10 622 LINE",
"-10 561 LINE"
);
},
{
closed = 1;
nodes = (
"174 441 OFFCURVE",
"198 449 OFFCURVE",
"212 449 CURVE SMOOTH",
"232 449 OFFCURVE",
"251 437 OFFCURVE",
"251 406 CURVE SMOOTH",
"251 384 OFFCURVE",
"234 362 OFFCURVE",
"209 347 CURVE",
"181 369 OFFCURVE",
"174 387 OFFCURVE",
"174 408 CURVE SMOOTH"
);
},
{
closed = 1;
nodes = (
"318 150 OFFCURVE",
"337 171 OFFCURVE",
"364 195 CURVE",
"396 176 OFFCURVE",
"416 150 OFFCURVE",
"416 120 CURVE SMOOTH",
"416 93 OFFCURVE",
"397 71 OFFCURVE",
"367 71 CURVE SMOOTH",
"334 71 OFFCURVE",
"318 92 OFFCURVE",
"318 118 CURVE SMOOTH"
);
}
);
};
layerId = "1D9335A4-69BC-4202-817B-D13DAA30F854";
paths = (
{
closed = 1;
nodes = (
"445 3 OFFCURVE",
"494 48 OFFCURVE",
"494 112 CURVE SMOOTH",
"494 161 OFFCURVE",
"461 203 OFFCURVE",
"426 228 CURVE",
"498 282 OFFCURVE",
"589 377 OFFCURVE",
"589 554 CURVE SMOOTH",
"589 561 LINE",
"682 561 LINE",
"682 622 LINE",
"-10 622 LINE",
"-10 561 LINE",
"509 561 LINE",
"509 554 LINE SMOOTH",
"509 400 OFFCURVE",
"433 318 OFFCURVE",
"362 263 CURVE",
"322 282 OFFCURVE",
"290 297 OFFCURVE",
"265 311 CURVE",
"300 332 OFFCURVE",
"322 369 OFFCURVE",
"322 407 CURVE SMOOTH",
"322 473 OFFCURVE",
"269 508 OFFCURVE",
"212 510 CURVE SMOOTH",
"148 512 OFFCURVE",
"99 475 OFFCURVE",
"99 411 CURVE SMOOTH",
"99 372 OFFCURVE",
"118 339 OFFCURVE",
"151 315 CURVE",
"96 288 OFFCURVE",
"40 236 OFFCURVE",
"15 167 CURVE",
"78 134 LINE",
"104 195 OFFCURVE",
"155 248 OFFCURVE",
"203 274 CURVE",
"208 271 OFFCURVE",
"212 269 OFFCURVE",
"217 266 CURVE SMOOTH",
"253 246 OFFCURVE",
"276 234 OFFCURVE",
"297 223 CURVE",
"266 198 OFFCURVE",
"238 164 OFFCURVE",
"238 112 CURVE SMOOTH",
"238 45 OFFCURVE",
"292 3 OFFCURVE",
"368 3 CURVE SMOOTH"
);
},
{
closed = 1;
nodes = (
"334 71 OFFCURVE",
"318 92 OFFCURVE",
"318 118 CURVE SMOOTH",
"318 150 OFFCURVE",
"337 171 OFFCURVE",
"364 195 CURVE",
"396 176 OFFCURVE",
"416 150 OFFCURVE",
"416 120 CURVE SMOOTH",
"416 93 OFFCURVE",
"397 71 OFFCURVE",
"367 71 CURVE SMOOTH"
);
},
{
closed = 1;
nodes = (
"181 369 OFFCURVE",
"174 387 OFFCURVE",
"174 408 CURVE SMOOTH",
"174 441 OFFCURVE",
"198 449 OFFCURVE",
"212 449 CURVE SMOOTH",
"232 449 OFFCURVE",
"251 437 OFFCURVE",
"251 406 CURVE SMOOTH",
"251 384 OFFCURVE",
"234 362 OFFCURVE",
"209 347 CURVE"
);
}
);
width = 652;
},
{
anchors = (
{
name = bottom;
position = "{364, -28}";
},
{
name = top;
position = "{558, 656}";
}
);
layerId = "37631205-D7B2-4E6B-9DD1-7005090CBFCA";
paths = (
{
closed = 1;
nodes = (
"499 3 OFFCURVE",
"558 54 OFFCURVE",
"558 122 CURVE SMOOTH",
"558 175 OFFCURVE",
"516 209 OFFCURVE",
"480 231 CURVE",
"560 298 OFFCURVE",
"616 392 OFFCURVE",
"616 514 CURVE SMOOTH",
"616 521 LINE",
"703 521 LINE",
"703 622 LINE",
"-10 622 LINE",
"-10 521 LINE",
"493 521 LINE",
"493 514 LINE SMOOTH",
"493 417 OFFCURVE",
"451 331 OFFCURVE",
"377 274 CURVE",
"363 281 OFFCURVE",
"356 284 OFFCURVE",
"339 293 CURVE",
"375 313 OFFCURVE",
"393 348 OFFCURVE",
"393 386 CURVE SMOOTH",
"393 454 OFFCURVE",
"340 500 OFFCURVE",
"252 500 CURVE SMOOTH",
"161 500 OFFCURVE",
"114 456 OFFCURVE",
"114 391 CURVE SMOOTH",
"114 360 OFFCURVE",
"130 314 OFFCURVE",
"174 292 CURVE",
"120 263 OFFCURVE",
"72 216 OFFCURVE",
"40 164 CURVE",
"137 109 LINE",
"164 160 OFFCURVE",
"215 206 OFFCURVE",
"268 236 CURVE",
"274 232 OFFCURVE",
"283 227 OFFCURVE",
"287 225 CURVE SMOOTH",
"290 224 OFFCURVE",
"297 220 OFFCURVE",
"301 218 CURVE",
"271 193 OFFCURVE",
"239 161 OFFCURVE",
"239 117 CURVE SMOOTH",
"239 54 OFFCURVE",
"295 3 OFFCURVE",
"399 3 CURVE SMOOTH"
);
},
{
closed = 1;
nodes = (
"382 91 OFFCURVE",
"372 106 OFFCURVE",
"372 127 CURVE SMOOTH",
"372 147 OFFCURVE",
"383 169 OFFCURVE",
"399 180 CURVE",
"415 169 OFFCURVE",
"425 147 OFFCURVE",
"425 127 CURVE SMOOTH",
"425 106 OFFCURVE",
"417 91 OFFCURVE",
"398 91 CURVE SMOOTH"
);
},
{
closed = 1;
nodes = (
"238 340 OFFCURVE",
"229 363 OFFCURVE",
"229 381 CURVE SMOOTH",
"229 401 OFFCURVE",
"236 415 OFFCURVE",
"254 415 CURVE SMOOTH",
"269 415 OFFCURVE",
"278 401 OFFCURVE",
"278 381 CURVE SMOOTH",
"278 363 OFFCURVE",
"268 340 OFFCURVE",
"253 332 CURVE"
);
}
);
width = 693;
}
);
rightKerningGroup = Ya.GGondi;
unicode = 11D7B;
category = Letter;
userData = {
com.typemytype.robofont.mark = (
0.835,
1,
0.6,
1
);
};
},
{
color = 4;
glyphname = Cha.GGondi;
lastChange = "2021-10-18 08:30:41 +0000";
layers = (
{
anchors = (
{
name = bottom;
position = "{370, -28}";
},
{
name = top;
position = "{564, 656}";
}
);
background = {
anchors = (
{
name = bottom;
position = "{370, -28}";
},
{
name = top;
position = "{564, 656}";
}
);
paths = (
{
closed = 1;
nodes = (
"525 561 LINE",
"525 245 LINE SMOOTH",
"525 141 OFFCURVE",
"464 87 OFFCURVE",
"374 87 CURVE SMOOTH",
"321 87 OFFCURVE",
"279 103 OFFCURVE",
"248 136 CURVE",
"309 189 OFFCURVE",
"368 265 OFFCURVE",
"368 373 CURVE SMOOTH",
"368 453 OFFCURVE",
"318 497 OFFCURVE",
"249 497 CURVE SMOOTH",
"169 497 OFFCURVE",
"114 441 OFFCURVE",
"114 310 CURVE SMOOTH",
"116 243 OFFCURVE",
"130 193 OFFCURVE",
"153 150 CURVE",
"113 119 OFFCURVE",
"60 85 OFFCURVE",
"26 62 CURVE",
"69 0 LINE",
"101 22 OFFCURVE",
"152 58 OFFCURVE",
"191 91 CURVE",
"235 44 OFFCURVE",
"296 20 OFFCURVE",
"373 19 CURVE SMOOTH",
"509 20 OFFCURVE",
"603 89 OFFCURVE",
"603 244 CURVE SMOOTH",
"603 561 LINE",
"713 561 LINE",
"713 622 LINE",
"-10 622 LINE",
"-10 561 LINE"
);
},
{
closed = 1;
nodes = (
"192 397 OFFCURVE",
"215 429 OFFCURVE",
"248 429 CURVE SMOOTH",
"274 429 OFFCURVE",
"290 408 OFFCURVE",
"290 374 CURVE SMOOTH",
"290 318 OFFCURVE",
"264 253 OFFCURVE",
"211 197 CURVE",
"199 227 OFFCURVE",
"192 261 OFFCURVE",
"192 310 CURVE SMOOTH"
);
}
);
};
layerId = "1D9335A4-69BC-4202-817B-D13DAA30F854";
paths = (
{
closed = 1;
nodes = (
"101 22 OFFCURVE",
"152 58 OFFCURVE",
"191 91 CURVE",
"235 44 OFFCURVE",
"296 20 OFFCURVE",
"373 19 CURVE SMOOTH",
"509 20 OFFCURVE",
"603 89 OFFCURVE",
"603 244 CURVE SMOOTH",
"603 561 LINE",
"713 561 LINE",
"713 622 LINE",
"-10 622 LINE",
"-10 561 LINE",
"525 561 LINE",
"525 245 LINE SMOOTH",
"525 141 OFFCURVE",
"464 87 OFFCURVE",
"374 87 CURVE SMOOTH",
"321 87 OFFCURVE",
"279 103 OFFCURVE",
"248 136 CURVE",
"309 189 OFFCURVE",
"368 265 OFFCURVE",
"368 373 CURVE SMOOTH",
"368 453 OFFCURVE",
"318 497 OFFCURVE",
"249 497 CURVE SMOOTH",
"169 497 OFFCURVE",
"114 441 OFFCURVE",
"114 310 CURVE SMOOTH",
"116 243 OFFCURVE",
"130 193 OFFCURVE",
"153 150 CURVE",
"113 119 OFFCURVE",
"60 85 OFFCURVE",
"26 62 CURVE",
"69 0 LINE"
);
},
{
closed = 1;
nodes = (
"199 227 OFFCURVE",
"192 261 OFFCURVE",
"192 310 CURVE SMOOTH",
"192 397 OFFCURVE",
"215 429 OFFCURVE",
"248 429 CURVE SMOOTH",
"274 429 OFFCURVE",
"290 408 OFFCURVE",
"290 374 CURVE SMOOTH",
"290 318 OFFCURVE",
"264 253 OFFCURVE",
"211 197 CURVE"
);
}
);
width = 703;
},
{
anchors = (
{
name = bottom;
position = "{363, -28}";
},
{
name = top;
position = "{562, 662}";
}
);
layerId = "37631205-D7B2-4E6B-9DD1-7005090CBFCA";
paths = (
{
closed = 1;
nodes = (
"117 20 OFFCURVE",
"155 42 OFFCURVE",
"190 62 CURVE",
"240 31 OFFCURVE",
"302 15 OFFCURVE",
"373 15 CURVE SMOOTH",
"524 15 OFFCURVE",
"621 91 OFFCURVE",
"621 252 CURVE SMOOTH",
"621 521 LINE",
"717 521 LINE",
"717 622 LINE",
"-10 622 LINE",
"-10 521 LINE",
"487 521 LINE",
"487 242 LINE SMOOTH",
"487 172 OFFCURVE",
"449 125 OFFCURVE",
"374 125 CURVE SMOOTH",
"346 125 OFFCURVE",
"326 129 OFFCURVE",
"305 137 CURVE",
"375 196 OFFCURVE",
"416 265 OFFCURVE",
"416 357 CURVE SMOOTH",
"416 448 OFFCURVE",
"370 506 OFFCURVE",
"267 506 CURVE SMOOTH",
"156 506 OFFCURVE",
"74 432 OFFCURVE",
"74 301 CURVE SMOOTH",
"74 230 OFFCURVE",
"90 178 OFFCURVE",
"120 140 CURVE",
"88 125 OFFCURVE",
"59 108 OFFCURVE",
"27 93 CURVE",
"75 0 LINE"
);
},
{
closed = 1;
nodes = (
"215 232 OFFCURVE",
"209 263 OFFCURVE",
"209 301 CURVE SMOOTH",
"209 371 OFFCURVE",
"230 396 OFFCURVE",
"259 396 CURVE SMOOTH",
"277 396 OFFCURVE",
"289 382 OFFCURVE",
"289 357 CURVE SMOOTH",
"289 295 OFFCURVE",
"264 246 OFFCURVE",
"224 206 CURVE"
);
}
);
width = 707;
}
);
rightKerningGroup = Na.GGondi;
unicode = 11D7C;
category = Letter;
userData = {
com.typemytype.robofont.mark = (
0.835,
1,
0.6,
1
);
};
},
{
color = 7;
glyphname = Tta.GGondi;
lastChange = "2021-10-18 08:30:41 +0000";
layers = (
{
anchors = (
{
name = bottom;
position = "{640, -28}";
},
{
name = top;
position = "{688, 656}";
}
);
background = {
anchors = (
{
name = bottom;
position = "{640, -28}";
},
{
name = top;
position = "{688, 656}";
}
);
paths = (
{
closed = 1;
nodes = (
"649 561 LINE",
"650 545 OFFCURVE",
"650 533 OFFCURVE",
"650 519 CURVE SMOOTH",
"650 456 OFFCURVE",
"643 370 OFFCURVE",
"618 287 CURVE",
"596 292 OFFCURVE",
"571 295 OFFCURVE",
"543 295 CURVE SMOOTH",
"479 295 LINE",
"468 413 OFFCURVE",
"403 506 OFFCURVE",
"275 506 CURVE SMOOTH",
"157 506 OFFCURVE",
"70 425 OFFCURVE",
"70 261 CURVE SMOOTH",
"70 109 OFFCURVE",
"143 15 OFFCURVE",
"271 15 CURVE SMOOTH",
"384 15 OFFCURVE",
"469 86 OFFCURVE",
"480 227 CURVE",
"543 227 LINE SMOOTH",
"564 227 OFFCURVE",
"581 226 OFFCURVE",
"594 225 CURVE",
"586 195 OFFCURVE",
"578 158 OFFCURVE",
"578 123 CURVE SMOOTH",
"578 44 OFFCURVE",
"626 13 OFFCURVE",
"679 13 CURVE SMOOTH",
"739 13 OFFCURVE",
"778 47 OFFCURVE",
"778 117 CURVE SMOOTH",
"778 184 OFFCURVE",
"737 233 OFFCURVE",
"685 264 CURVE",
"716 352 OFFCURVE",
"729 444 OFFCURVE",
"729 523 CURVE SMOOTH",
"729 537 OFFCURVE",
"728 549 OFFCURVE",
"728 561 CURVE",
"870 561 LINE",
"870 622 LINE",
"-10 622 LINE",
"-10 561 LINE"
);
},
{
closed = 1;
nodes = (
"150 346 OFFCURVE",
"174 436 OFFCURVE",
"273 436 CURVE SMOOTH",
"357 436 OFFCURVE",
"401 370 OFFCURVE",
"401 260 CURVE SMOOTH",
"401 150 OFFCURVE",
"357 85 OFFCURVE",
"278 85 CURVE SMOOTH",
"195 85 OFFCURVE",
"150 150 OFFCURVE",
"150 262 CURVE SMOOTH"
);
},
{
closed = 1;
nodes = (
"651 150 OFFCURVE",
"655 176 OFFCURVE",
"663 201 CURVE",
"688 189 OFFCURVE",
"706 160 OFFCURVE",
"706 119 CURVE SMOOTH",
"706 90 OFFCURVE",
"696 74 OFFCURVE",
"679 74 CURVE SMOOTH",
"661 74 OFFCURVE",
"651 90 OFFCURVE",
"651 125 CURVE SMOOTH"
);
}
);
};
layerId = "1D9335A4-69BC-4202-817B-D13DAA30F854";
paths = (
{
closed = 1;
nodes = (
"739 13 OFFCURVE",
"778 47 OFFCURVE",
"778 117 CURVE SMOOTH",
"778 184 OFFCURVE",
"737 233 OFFCURVE",
"685 264 CURVE",
"716 352 OFFCURVE",
"729 444 OFFCURVE",
"729 523 CURVE SMOOTH",
"729 537 OFFCURVE",
"728 549 OFFCURVE",
"728 561 CURVE",
"870 561 LINE",
"870 622 LINE",
"-10 622 LINE",
"-10 561 LINE",
"649 561 LINE",
"650 545 OFFCURVE",
"650 533 OFFCURVE",
"650 519 CURVE SMOOTH",
"650 456 OFFCURVE",
"643 370 OFFCURVE",
"618 287 CURVE",
"596 292 OFFCURVE",
"571 295 OFFCURVE",
"543 295 CURVE SMOOTH",
"479 295 LINE",
"468 413 OFFCURVE",
"403 506 OFFCURVE",
"275 506 CURVE SMOOTH",
"157 506 OFFCURVE",
"70 425 OFFCURVE",
"70 261 CURVE SMOOTH",
"70 109 OFFCURVE",
"143 15 OFFCURVE",
"271 15 CURVE SMOOTH",
"384 15 OFFCURVE",
"469 86 OFFCURVE",
"480 227 CURVE",
"543 227 LINE SMOOTH",
"564 227 OFFCURVE",
"581 226 OFFCURVE",
"594 225 CURVE",
"586 195 OFFCURVE",
"578 158 OFFCURVE",
"578 123 CURVE SMOOTH",
"578 44 OFFCURVE",
"626 13 OFFCURVE",
"679 13 CURVE SMOOTH"
);
},
{
closed = 1;
nodes = (
"195 85 OFFCURVE",
"150 150 OFFCURVE",
"150 262 CURVE SMOOTH",
"150 346 OFFCURVE",
"174 436 OFFCURVE",
"273 436 CURVE SMOOTH",
"357 436 OFFCURVE",
"401 370 OFFCURVE",
"401 260 CURVE SMOOTH",
"401 150 OFFCURVE",
"357 85 OFFCURVE",
"278 85 CURVE SMOOTH"
);
},
{
closed = 1;
nodes = (
"661 74 OFFCURVE",
"651 90 OFFCURVE",
"651 125 CURVE SMOOTH",
"651 150 OFFCURVE",
"655 176 OFFCURVE",
"663 201 CURVE",
"688 189 OFFCURVE",
"706 160 OFFCURVE",
"706 119 CURVE SMOOTH",
"706 90 OFFCURVE",
"696 74 OFFCURVE",
"679 74 CURVE SMOOTH"
);
}
);
width = 860;
},
{
anchors = (
{
name = bottom;
position = "{670, -28}";
},
{
name = top;
position = "{718, 656}";
}
);
layerId = "37631205-D7B2-4E6B-9DD1-7005090CBFCA";
paths = (
{
closed = 1;
nodes = (
"800 12 OFFCURVE",
"870 57 OFFCURVE",
"870 156 CURVE SMOOTH",
"870 237 OFFCURVE",
"822 296 OFFCURVE",
"765 322 CURVE",
"788 381 OFFCURVE",
"793 454 OFFCURVE",
"793 500 CURVE SMOOTH",
"793 507 OFFCURVE",
"793 514 OFFCURVE",
"793 521 CURVE",
"913 521 LINE",
"913 622 LINE",
"-10 622 LINE",
"-10 521 LINE",
"666 521 LINE",
"666 513 OFFCURVE",
"666 504 OFFCURVE",
"666 496 CURVE SMOOTH",
"666 482 OFFCURVE",
"664 406 OFFCURVE",
"644 349 CURVE",
"607 351 OFFCURVE",
"584 352 OFFCURVE",
"558 352 CURVE SMOOTH",
"496 352 LINE",
"465 459 OFFCURVE",
"378 506 OFFCURVE",
"275 506 CURVE SMOOTH",
"157 506 OFFCURVE",
"42 445 OFFCURVE",
"42 261 CURVE SMOOTH",
"42 89 OFFCURVE",
"143 15 OFFCURVE",
"271 15 CURVE SMOOTH",
"382 15 OFFCURVE",
"504 64 OFFCURVE",
"508 252 CURVE",
"558 252 LINE SMOOTH",
"570 252 OFFCURVE",
"580 251 OFFCURVE",
"588 250 CURVE",
"564 222 OFFCURVE",
"547 186 OFFCURVE",
"547 150 CURVE SMOOTH",
"547 57 OFFCURVE",
"615 12 OFFCURVE",
"708 12 CURVE SMOOTH"
);
},
{
closed = 1;
nodes = (
"213 125 OFFCURVE",
"177 181 OFFCURVE",
"177 262 CURVE SMOOTH",
"177 346 OFFCURVE",
"210 396 OFFCURVE",
"273 396 CURVE SMOOTH",
"339 396 OFFCURVE",
"373 338 OFFCURVE",
"373 260 CURVE SMOOTH",
"373 181 OFFCURVE",
"339 125 OFFCURVE",
"278 125 CURVE SMOOTH"
);
},
{
closed = 1;
nodes = (
"692 122 OFFCURVE",
"682 137 OFFCURVE",
"682 158 CURVE SMOOTH",
"682 178 OFFCURVE",
"692 205 OFFCURVE",
"707 221 CURVE",
"724 205 OFFCURVE",
"735 178 OFFCURVE",
"735 158 CURVE SMOOTH",
"735 137 OFFCURVE",
"727 122 OFFCURVE",
"708 122 CURVE SMOOTH"
);
}
);
width = 903;
}
);
unicode = 11D7D;
category = Letter;
userData = {
com.typemytype.robofont.mark = (
1,
0.6,
0.6,
1
);
};
},
{
color = 7;
glyphname = Ttha.GGondi;
lastChange = "2021-10-18 08:30:41 +0000";
layers = (
{
anchors = (
{
name = bottom;
position = "{640, -28}";
},
{
name = top;
position = "{688, 656}";
}
);
background = {
anchors = (
{
name = bottom;
position = "{640, -28}";
}
);
components = (
{
name = Tta.GGondi;
}
);
paths = (
{
closed = 1;
nodes = (
"423 235 LINE",
"423 296 LINE",
"110 296 LINE",
"110 235 LINE"
);
}
);
};
layerId = "1D9335A4-69BC-4202-817B-D13DAA30F854";
paths = (
{
closed = 1;
nodes = (
"423 235 LINE",
"423 296 LINE",
"110 296 LINE",
"110 235 LINE"
);
},
{
closed = 1;
nodes = (
"739 13 OFFCURVE",
"778 47 OFFCURVE",
"778 117 CURVE SMOOTH",
"778 184 OFFCURVE",
"737 233 OFFCURVE",
"685 264 CURVE",
"716 352 OFFCURVE",
"729 444 OFFCURVE",
"729 523 CURVE SMOOTH",
"729 537 OFFCURVE",
"728 549 OFFCURVE",
"728 561 CURVE",
"870 561 LINE",
"870 622 LINE",
"-10 622 LINE",
"-10 561 LINE",
"649 561 LINE",
"650 545 OFFCURVE",
"650 533 OFFCURVE",
"650 519 CURVE SMOOTH",
"650 456 OFFCURVE",
"643 370 OFFCURVE",
"618 287 CURVE",
"596 292 OFFCURVE",
"571 295 OFFCURVE",
"543 295 CURVE SMOOTH",
"479 295 LINE",
"468 413 OFFCURVE",
"403 506 OFFCURVE",
"275 506 CURVE SMOOTH",
"157 506 OFFCURVE",
"70 425 OFFCURVE",
"70 261 CURVE SMOOTH",
"70 109 OFFCURVE",
"143 15 OFFCURVE",
"271 15 CURVE SMOOTH",
"384 15 OFFCURVE",
"469 86 OFFCURVE",
"480 227 CURVE",
"543 227 LINE SMOOTH",
"564 227 OFFCURVE",
"581 226 OFFCURVE",
"594 225 CURVE",
"586 195 OFFCURVE",
"578 158 OFFCURVE",
"578 123 CURVE SMOOTH",
"578 44 OFFCURVE",
"626 13 OFFCURVE",
"679 13 CURVE SMOOTH"
);
},
{
closed = 1;
nodes = (
"195 85 OFFCURVE",
"150 150 OFFCURVE",
"150 262 CURVE SMOOTH",
"150 346 OFFCURVE",
"174 436 OFFCURVE",
"273 436 CURVE SMOOTH",
"357 436 OFFCURVE",
"401 370 OFFCURVE",
"401 260 CURVE SMOOTH",
"401 150 OFFCURVE",
"357 85 OFFCURVE",
"278 85 CURVE SMOOTH"
);
},
{
closed = 1;
nodes = (
"661 74 OFFCURVE",
"651 90 OFFCURVE",
"651 125 CURVE SMOOTH",
"651 150 OFFCURVE",
"655 176 OFFCURVE",
"663 201 CURVE",
"688 189 OFFCURVE",
"706 160 OFFCURVE",
"706 119 CURVE SMOOTH",
"706 90 OFFCURVE",
"696 74 OFFCURVE",
"679 74 CURVE SMOOTH"
);
}
);
width = 860;
},
{
anchors = (
{
name = bottom;
position = "{640, -28}";
},
{
name = top;
position = "{718, 656}";
}
);
layerId = "37631205-D7B2-4E6B-9DD1-7005090CBFCA";
paths = (
{
closed = 1;
nodes = (
"423 211 LINE",
"423 311 LINE",
"110 311 LINE",
"110 211 LINE"
);
},
{
closed = 1;
nodes = (
"800 12 OFFCURVE",
"870 57 OFFCURVE",
"870 156 CURVE SMOOTH",
"870 237 OFFCURVE",
"822 296 OFFCURVE",
"765 322 CURVE",
"788 381 OFFCURVE",
"793 454 OFFCURVE",
"793 500 CURVE SMOOTH",
"793 507 OFFCURVE",
"793 514 OFFCURVE",
"793 521 CURVE",
"913 521 LINE",
"913 622 LINE",
"-10 622 LINE",
"-10 521 LINE",
"666 521 LINE",
"666 513 OFFCURVE",
"666 504 OFFCURVE",
"666 496 CURVE SMOOTH",
"666 482 OFFCURVE",
"664 406 OFFCURVE",
"644 349 CURVE",
"607 351 OFFCURVE",
"584 352 OFFCURVE",
"558 352 CURVE SMOOTH",
"496 352 LINE",
"465 459 OFFCURVE",
"378 506 OFFCURVE",
"275 506 CURVE SMOOTH",
"157 506 OFFCURVE",
"42 445 OFFCURVE",
"42 261 CURVE SMOOTH",
"42 89 OFFCURVE",
"143 15 OFFCURVE",
"271 15 CURVE SMOOTH",
"382 15 OFFCURVE",
"504 64 OFFCURVE",
"508 252 CURVE",
"558 252 LINE SMOOTH",
"570 252 OFFCURVE",
"580 251 OFFCURVE",
"588 250 CURVE",
"564 222 OFFCURVE",
"547 186 OFFCURVE",
"547 150 CURVE SMOOTH",
"547 57 OFFCURVE",
"615 12 OFFCURVE",
"708 12 CURVE SMOOTH"
);
},
{
closed = 1;
nodes = (
"213 125 OFFCURVE",
"177 181 OFFCURVE",
"177 262 CURVE SMOOTH",
"177 346 OFFCURVE",
"210 396 OFFCURVE",
"273 396 CURVE SMOOTH",
"339 396 OFFCURVE",
"373 338 OFFCURVE",
"373 260 CURVE SMOOTH",
"373 181 OFFCURVE",
"339 125 OFFCURVE",
"278 125 CURVE SMOOTH"
);
},
{
closed = 1;
nodes = (
"692 122 OFFCURVE",
"682 137 OFFCURVE",
"682 158 CURVE SMOOTH",
"682 178 OFFCURVE",
"692 205 OFFCURVE",
"707 221 CURVE",
"724 205 OFFCURVE",
"735 178 OFFCURVE",
"735 158 CURVE SMOOTH",
"735 137 OFFCURVE",
"727 122 OFFCURVE",
"708 122 CURVE SMOOTH"
);
}
);
width = 903;
}
);
unicode = 11D7E;
category = Letter;
userData = {
com.typemytype.robofont.mark = (
1,
0.6,
0.6,
1
);
};
},
{
color = 9;
glyphname = Lla.GGondi;
lastChange = "2021-10-18 08:30:41 +0000";
layers = (
{
anchors = (
{
name = bottom;
position = "{302, -28}";
},
{
name = top;
position = "{496, 656}";
}
);
background = {
anchors = (
{
name = bottom;
position = "{302, -28}";
},
{
name = top;
position = "{496, 656}";
}
);
paths = (
{
closed = 1;
nodes = (
"455 561 LINE",
"455 554 LINE SMOOTH",
"455 401 OFFCURVE",
"380 318 OFFCURVE",
"309 263 CURVE",
"269 282 OFFCURVE",
"237 297 OFFCURVE",
"212 311 CURVE",
"247 332 OFFCURVE",
"269 369 OFFCURVE",
"269 407 CURVE SMOOTH",
"269 473 OFFCURVE",
"216 508 OFFCURVE",
"159 510 CURVE",
"95 510 OFFCURVE",
"46 475 OFFCURVE",
"46 411 CURVE SMOOTH",
"46 345 OFFCURVE",
"100 301 OFFCURVE",
"164 266 CURVE SMOOTH",
"200 246 OFFCURVE",
"223 234 OFFCURVE",
"244 224 CURVE",
"212 198 OFFCURVE",
"184 165 OFFCURVE",
"184 112 CURVE SMOOTH",
"184 45 OFFCURVE",
"238 3 OFFCURVE",
"314 3 CURVE SMOOTH",
"391 3 OFFCURVE",
"440 48 OFFCURVE",
"440 112 CURVE SMOOTH",
"440 160 OFFCURVE",
"407 202 OFFCURVE",
"373 228 CURVE",
"445 279 OFFCURVE",
"535 376 OFFCURVE",
"535 554 CURVE SMOOTH",
"535 561 LINE",
"628 561 LINE",
"628 622 LINE",
"-30 622 LINE",
"-30 561 LINE"
);
},
{
closed = 1;
nodes = (
"120 441 OFFCURVE",
"145 449 OFFCURVE",
"159 449 CURVE SMOOTH",
"179 449 OFFCURVE",
"198 437 OFFCURVE",
"198 406 CURVE SMOOTH",
"198 384 OFFCURVE",
"181 362 OFFCURVE",
"156 347 CURVE",
"128 369 OFFCURVE",
"121 387 OFFCURVE",
"121 408 CURVE"
);
},
{
closed = 1;
nodes = (
"264 150 OFFCURVE",
"283 171 OFFCURVE",
"310 195 CURVE",
"342 176 OFFCURVE",
"362 150 OFFCURVE",
"362 120 CURVE SMOOTH",
"362 93 OFFCURVE",
"343 71 OFFCURVE",
"313 71 CURVE SMOOTH",
"280 71 OFFCURVE",
"264 92 OFFCURVE",
"264 118 CURVE SMOOTH"
);
}
);
};
layerId = "1D9335A4-69BC-4202-817B-D13DAA30F854";
paths = (
{
closed = 1;
nodes = (
"391 3 OFFCURVE",
"440 48 OFFCURVE",
"440 112 CURVE SMOOTH",
"440 160 OFFCURVE",
"407 202 OFFCURVE",
"373 228 CURVE",
"445 279 OFFCURVE",
"535 376 OFFCURVE",
"535 554 CURVE SMOOTH",
"535 561 LINE",
"628 561 LINE",
"628 622 LINE",
"-30 622 LINE",
"-30 561 LINE",
"455 561 LINE",
"455 554 LINE SMOOTH",
"455 401 OFFCURVE",
"380 318 OFFCURVE",
"309 263 CURVE",
"269 282 OFFCURVE",
"237 297 OFFCURVE",
"212 311 CURVE",
"247 332 OFFCURVE",
"269 369 OFFCURVE",
"269 407 CURVE SMOOTH",
"269 473 OFFCURVE",
"216 508 OFFCURVE",
"159 510 CURVE",
"95 510 OFFCURVE",
"46 475 OFFCURVE",
"46 411 CURVE SMOOTH",
"46 345 OFFCURVE",
"100 301 OFFCURVE",
"164 266 CURVE SMOOTH",
"200 246 OFFCURVE",
"223 234 OFFCURVE",
"244 224 CURVE",
"212 198 OFFCURVE",
"184 165 OFFCURVE",
"184 112 CURVE SMOOTH",
"184 45 OFFCURVE",
"238 3 OFFCURVE",
"314 3 CURVE SMOOTH"
);
},
{
closed = 1;
nodes = (
"280 71 OFFCURVE",
"264 92 OFFCURVE",
"264 118 CURVE SMOOTH",
"264 150 OFFCURVE",
"283 171 OFFCURVE",
"310 195 CURVE",
"342 176 OFFCURVE",
"362 150 OFFCURVE",
"362 120 CURVE SMOOTH",
"362 93 OFFCURVE",
"343 71 OFFCURVE",
"313 71 CURVE SMOOTH"
);
},
{
closed = 1;
nodes = (
"128 369 OFFCURVE",
"121 387 OFFCURVE",
"121 408 CURVE",
"120 441 OFFCURVE",
"145 449 OFFCURVE",
"159 449 CURVE SMOOTH",
"179 449 OFFCURVE",
"198 437 OFFCURVE",
"198 406 CURVE SMOOTH",
"198 384 OFFCURVE",
"181 362 OFFCURVE",
"156 347 CURVE"
);
}
);
width = 598;
},
{
anchors = (
{
name = bottom;
position = "{308, -28}";
},
{
name = top;
position = "{502, 662}";
}
);
layerId = "37631205-D7B2-4E6B-9DD1-7005090CBFCA";
paths = (
{
closed = 1;
nodes = (
"445 3 OFFCURVE",
"504 54 OFFCURVE",
"504 122 CURVE SMOOTH",
"504 175 OFFCURVE",
"462 209 OFFCURVE",
"426 231 CURVE",
"506 298 OFFCURVE",
"562 392 OFFCURVE",
"562 514 CURVE SMOOTH",
"562 521 LINE",
"632 521 LINE",
"632 622 LINE",
"-10 622 LINE",
"-10 521 LINE",
"439 521 LINE",
"439 514 LINE SMOOTH",
"439 417 OFFCURVE",
"397 331 OFFCURVE",
"323 274 CURVE",
"309 281 OFFCURVE",
"302 284 OFFCURVE",
"285 292 CURVE",
"321 313 OFFCURVE",
"339 348 OFFCURVE",
"339 386 CURVE SMOOTH",
"339 454 OFFCURVE",
"286 500 OFFCURVE",
"198 500 CURVE SMOOTH",
"107 500 OFFCURVE",
"60 455 OFFCURVE",
"60 386 CURVE SMOOTH",
"60 343 OFFCURVE",
"76 304 OFFCURVE",
"152 266 CURVE SMOOTH",
"220 232 OFFCURVE",
"243 220 OFFCURVE",
"247 218 CURVE",
"217 193 OFFCURVE",
"185 161 OFFCURVE",
"185 117 CURVE SMOOTH",
"185 54 OFFCURVE",
"241 3 OFFCURVE",
"345 3 CURVE SMOOTH"
);
},
{
closed = 1;
nodes = (
"328 91 OFFCURVE",
"318 106 OFFCURVE",
"318 127 CURVE SMOOTH",
"318 147 OFFCURVE",
"329 169 OFFCURVE",
"345 180 CURVE",
"361 169 OFFCURVE",
"371 147 OFFCURVE",
"371 127 CURVE SMOOTH",
"371 106 OFFCURVE",
"363 91 OFFCURVE",
"344 91 CURVE SMOOTH"
);
},
{
closed = 1;
nodes = (
"184 340 OFFCURVE",
"175 363 OFFCURVE",
"175 381 CURVE SMOOTH",
"175 401 OFFCURVE",
"182 415 OFFCURVE",
"200 415 CURVE SMOOTH",
"215 415 OFFCURVE",
"224 401 OFFCURVE",
"224 381 CURVE SMOOTH",
"224 363 OFFCURVE",
"214 340 OFFCURVE",
"199 332 CURVE"
);
}
);
width = 622;
}
);
rightKerningGroup = Ya.GGondi;
unicode = 11D7F;
category = Letter;
userData = {
com.typemytype.robofont.mark = (
0.835,
1,
0.6,
1
);
};
},
{
color = 7;
glyphname = Ja.GGondi;
lastChange = "2021-10-18 08:30:41 +0000";
layers = (
{
anchors = (
{
name = bottom;
position = "{599, -28}";
},
{
name = top;
position = "{657, 656}";
}
);
background = {
anchors = (
{
name = bottom;
position = "{599, -28}";
},
{
name = top;
position = "{657, 656}";
}
);
paths = (
{
closed = 1;
nodes = (
"105 561 LINE",
"82 525 OFFCURVE",
"68 479 OFFCURVE",
"68 422 CURVE SMOOTH",
"68 288 OFFCURVE",
"154 223 OFFCURVE",
"205 205 CURVE",
"169 197 OFFCURVE",
"110 160 OFFCURVE",
"110 76 CURVE SMOOTH",
"110 -20 OFFCURVE",
"191 -68 OFFCURVE",
"295 -68 CURVE SMOOTH",
"370 -68 OFFCURVE",
"416 -42 OFFCURVE",
"441 -22 CURVE",
"404 33 LINE",
"379 15 OFFCURVE",
"342 0 OFFCURVE",
"295 0 CURVE SMOOTH",
"228 0 OFFCURVE",
"188 30 OFFCURVE",
"188 84 CURVE SMOOTH",
"188 142 OFFCURVE",
"229 169 OFFCURVE",
"300 169 CURVE SMOOTH",
"389 169 LINE",
"389 233 LINE",
"329 233 LINE SMOOTH",
"254 233 OFFCURVE",
"180 268 OFFCURVE",
"153 349 CURVE",
"178 346 OFFCURVE",
"221 344 OFFCURVE",
"242 344 CURVE SMOOTH",
"464 344 LINE SMOOTH",
"502 344 OFFCURVE",
"541 339 OFFCURVE",
"575 327 CURVE",
"553 261 OFFCURVE",
"537 212 OFFCURVE",
"537 163 CURVE SMOOTH",
"537 87 OFFCURVE",
"585 58 OFFCURVE",
"637 58 CURVE SMOOTH",
"698 58 OFFCURVE",
"737 95 OFFCURVE",
"737 171 CURVE SMOOTH",
"737 251 OFFCURVE",
"703 312 OFFCURVE",
"665 349 CURVE",
"685 400 OFFCURVE",
"698 476 OFFCURVE",
"698 550 CURVE",
"698 561 LINE",
"839 561 LINE",
"839 622 LINE",
"395 622 LINE",
"372 642 OFFCURVE",
"336 656 OFFCURVE",
"286 656 CURVE SMOOTH",
"245 656 OFFCURVE",
"203 645 OFFCURVE",
"167 622 CURVE",
"-10 622 LINE",
"-10 561 LINE"
);
},
{
closed = 1;
nodes = (
"143 461 OFFCURVE",
"154 497 OFFCURVE",
"172 522 CURVE",
"201 485 OFFCURVE",
"250 460 OFFCURVE",
"304 460 CURVE SMOOTH",
"376 460 OFFCURVE",
"424 499 OFFCURVE",
"424 558 CURVE",
"424 561 LINE",
"619 561 LINE",
"619 546 LINE SMOOTH",
"620 498 OFFCURVE",
"609 429 OFFCURVE",
"597 382 CURVE",
"559 398 OFFCURVE",
"517 406 OFFCURVE",
"464 406 CURVE SMOOTH",
"237 406 LINE SMOOTH",
"207 406 OFFCURVE",
"181 405 OFFCURVE",
"143 403 CURVE",
"143 417 LINE"
);
},
{
closed = 1;
nodes = (
"235 587 OFFCURVE",
"264 595 OFFCURVE",
"292 595 CURVE SMOOTH",
"326 595 OFFCURVE",
"353 582 OFFCURVE",
"353 557 CURVE SMOOTH",
"353 536 OFFCURVE",
"337 521 OFFCURVE",
"298 521 CURVE SMOOTH",
"270 521 OFFCURVE",
"239 535 OFFCURVE",
"213 568 CURVE"
);
},
{
closed = 1;
nodes = (
"610 198 OFFCURVE",
"618 233 OFFCURVE",
"635 290 CURVE",
"653 265 OFFCURVE",
"665 225 OFFCURVE",
"665 173 CURVE SMOOTH",
"665 138 OFFCURVE",
"655 119 OFFCURVE",
"637 119 CURVE SMOOTH",
"620 119 OFFCURVE",
"610 134 OFFCURVE",
"610 165 CURVE SMOOTH"
);
}
);
};
layerId = "1D9335A4-69BC-4202-817B-D13DAA30F854";
paths = (
{
closed = 1;
nodes = (
"370 -68 OFFCURVE",
"416 -42 OFFCURVE",
"441 -22 CURVE",
"404 33 LINE",
"379 15 OFFCURVE",
"342 0 OFFCURVE",
"295 0 CURVE SMOOTH",
"228 0 OFFCURVE",
"188 30 OFFCURVE",
"188 84 CURVE SMOOTH",
"188 142 OFFCURVE",
"229 169 OFFCURVE",
"300 169 CURVE SMOOTH",
"389 169 LINE",
"389 233 LINE",
"329 233 LINE SMOOTH",
"254 233 OFFCURVE",
"180 268 OFFCURVE",
"153 349 CURVE",
"178 346 OFFCURVE",
"221 344 OFFCURVE",
"242 344 CURVE SMOOTH",
"464 344 LINE SMOOTH",
"502 344 OFFCURVE",
"541 339 OFFCURVE",
"575 327 CURVE",
"553 261 OFFCURVE",
"537 212 OFFCURVE",
"537 163 CURVE SMOOTH",
"537 87 OFFCURVE",
"585 58 OFFCURVE",
"637 58 CURVE SMOOTH",
"698 58 OFFCURVE",
"737 95 OFFCURVE",
"737 171 CURVE SMOOTH",
"737 251 OFFCURVE",
"703 312 OFFCURVE",
"665 349 CURVE",
"685 400 OFFCURVE",
"698 476 OFFCURVE",
"698 550 CURVE",
"698 561 LINE",
"839 561 LINE",
"839 622 LINE",
"395 622 LINE",
"372 642 OFFCURVE",
"336 656 OFFCURVE",
"286 656 CURVE SMOOTH",
"245 656 OFFCURVE",
"203 645 OFFCURVE",
"167 622 CURVE",
"-10 622 LINE",
"-10 561 LINE",
"105 561 LINE",
"82 525 OFFCURVE",
"68 479 OFFCURVE",
"68 422 CURVE SMOOTH",
"68 288 OFFCURVE",
"154 223 OFFCURVE",
"205 205 CURVE",
"169 197 OFFCURVE",
"110 160 OFFCURVE",
"110 76 CURVE SMOOTH",
"110 -20 OFFCURVE",
"191 -68 OFFCURVE",
"295 -68 CURVE SMOOTH"
);
},
{
closed = 1;
nodes = (
"270 521 OFFCURVE",
"239 535 OFFCURVE",
"213 568 CURVE",
"235 587 OFFCURVE",
"264 595 OFFCURVE",
"292 595 CURVE SMOOTH",
"326 595 OFFCURVE",
"353 582 OFFCURVE",
"353 557 CURVE SMOOTH",
"353 536 OFFCURVE",
"337 521 OFFCURVE",
"298 521 CURVE SMOOTH"
);
},
{
closed = 1;
nodes = (
"559 398 OFFCURVE",
"517 406 OFFCURVE",
"464 406 CURVE SMOOTH",
"237 406 LINE SMOOTH",
"207 406 OFFCURVE",
"181 405 OFFCURVE",
"143 403 CURVE",
"143 417 LINE",
"143 461 OFFCURVE",
"154 497 OFFCURVE",
"172 522 CURVE",
"201 485 OFFCURVE",
"250 460 OFFCURVE",
"304 460 CURVE SMOOTH",
"376 460 OFFCURVE",
"424 499 OFFCURVE",
"424 558 CURVE",
"424 561 LINE",
"619 561 LINE",
"619 546 LINE SMOOTH",
"620 498 OFFCURVE",
"609 429 OFFCURVE",
"597 382 CURVE"
);
},
{
closed = 1;
nodes = (
"620 119 OFFCURVE",
"610 134 OFFCURVE",
"610 165 CURVE SMOOTH",
"610 198 OFFCURVE",
"618 233 OFFCURVE",
"635 290 CURVE",
"653 265 OFFCURVE",
"665 225 OFFCURVE",
"665 173 CURVE SMOOTH",
"665 138 OFFCURVE",
"655 119 OFFCURVE",
"637 119 CURVE SMOOTH"
);
}
);
width = 829;
},
{
anchors = (
{
name = bottom;
position = "{599, -28}";
},
{
name = top;
position = "{657, 662}";
}
);
layerId = "37631205-D7B2-4E6B-9DD1-7005090CBFCA";
paths = (
{
closed = 1;
nodes = (
"349 -68 OFFCURVE",
"410 -40 OFFCURVE",
"432 -27 CURVE",
"398 70 LINE",
"381 61 OFFCURVE",
"333 42 OFFCURVE",
"268 42 CURVE SMOOTH",
"217 42 OFFCURVE",
"196 59 OFFCURVE",
"196 87 CURVE SMOOTH",
"196 110 OFFCURVE",
"210 119 OFFCURVE",
"235 119 CURVE SMOOTH",
"390 119 LINE",
"390 219 LINE",
"274 219 LINE SMOOTH",
"221 219 OFFCURVE",
"189 247 OFFCURVE",
"184 285 CURVE",
"210 281 OFFCURVE",
"237 280 OFFCURVE",
"263 280 CURVE SMOOTH",
"500 280 LINE SMOOTH",
"512 280 OFFCURVE",
"525 279 OFFCURVE",
"535 278 CURVE",
"511 247 OFFCURVE",
"490 204 OFFCURVE",
"490 160 CURVE SMOOTH",
"490 62 OFFCURVE",
"554 17 OFFCURVE",
"651 17 CURVE SMOOTH",
"743 17 OFFCURVE",
"813 62 OFFCURVE",
"813 166 CURVE SMOOTH",
"813 252 OFFCURVE",
"763 311 OFFCURVE",
"695 348 CURVE",
"710 394 OFFCURVE",
"717 444 OFFCURVE",
"717 490 CURVE SMOOTH",
"717 521 LINE",
"862 521 LINE",
"862 622 LINE",
"380 622 LINE",
"349 645 OFFCURVE",
"320 659 OFFCURVE",
"263 659 CURVE SMOOTH",
"215 659 OFFCURVE",
"168 649 OFFCURVE",
"131 622 CURVE",
"-10 622 LINE",
"-10 521 LINE",
"71 521 LINE",
"49 470 OFFCURVE",
"39 421 OFFCURVE",
"39 359 CURVE SMOOTH",
"39 266 OFFCURVE",
"77 210 OFFCURVE",
"127 184 CURVE",
"89 155 OFFCURVE",
"69 115 OFFCURVE",
"69 70 CURVE SMOOTH",
"69 -21 OFFCURVE",
"146 -68 OFFCURVE",
"263 -68 CURVE SMOOTH"
);
},
{
closed = 1;
nodes = (
"247 493 OFFCURVE",
"221 504 OFFCURVE",
"202 530 CURVE",
"223 550 OFFCURVE",
"247 559 OFFCURVE",
"267 559 CURVE SMOOTH",
"292 559 OFFCURVE",
"312 549 OFFCURVE",
"312 527 CURVE SMOOTH",
"312 504 OFFCURVE",
"292 493 OFFCURVE",
"267 493 CURVE SMOOTH"
);
},
{
closed = 1;
nodes = (
"547 379 OFFCURVE",
"522 380 OFFCURVE",
"496 380 CURVE SMOOTH",
"253 380 LINE SMOOTH",
"227 380 OFFCURVE",
"200 379 OFFCURVE",
"174 376 CURVE",
"174 385 LINE",
"175 408 OFFCURVE",
"179 424 OFFCURVE",
"185 447 CURVE",
"209 421 OFFCURVE",
"251 407 OFFCURVE",
"291 407 CURVE SMOOTH",
"369 407 OFFCURVE",
"424 458 OFFCURVE",
"424 518 CURVE SMOOTH",
"424 521 LINE",
"588 521 LINE",
"588 486 LINE SMOOTH",
"588 472 OFFCURVE",
"586 416 OFFCURVE",
"577 375 CURVE"
);
},
{
closed = 1;
nodes = (
"635 127 OFFCURVE",
"625 142 OFFCURVE",
"625 168 CURVE SMOOTH",
"625 193 OFFCURVE",
"635 219 OFFCURVE",
"650 241 CURVE",
"667 219 OFFCURVE",
"678 193 OFFCURVE",
"678 168 CURVE SMOOTH",
"678 142 OFFCURVE",
"670 127 OFFCURVE",
"651 127 CURVE SMOOTH"
);
}
);
width = 852;
}
);
unicode = 11D80;
category = Letter;
userData = {
com.typemytype.robofont.mark = (
0.835,
1,
0.6,
1
);
};
},
{
color = 7;
glyphname = Jha.GGondi;
lastChange = "2021-10-18 08:30:41 +0000";
layers = (
{
anchors = (
{
name = bottom;
position = "{639, -28}";
},
{
name = top;
position = "{697, 656}";
}
);
background = {
anchors = (
{
name = bottom;
position = "{639, -28}";
},
{
name = top;
position = "{697, 656}";
}
);
paths = (
{
closed = 1;
nodes = (
"74 561 LINE",
"75 337 LINE SMOOTH",
"75 213 OFFCURVE",
"169 161 OFFCURVE",
"262 161 CURVE SMOOTH",
"318 161 OFFCURVE",
"355 176 OFFCURVE",
"378 200 CURVE",
"378 151 LINE SMOOTH",
"378 73 OFFCURVE",
"332 40 OFFCURVE",
"265 40 CURVE SMOOTH",
"207 40 OFFCURVE",
"163 71 OFFCURVE",
"129 113 CURVE",
"74 64 LINE",
"114 4 OFFCURVE",
"180 -28 OFFCURVE",
"265 -28 CURVE SMOOTH",
"385 -28 OFFCURVE",
"456 37 OFFCURVE",
"456 149 CURVE SMOOTH",
"456 317 LINE",
"387 317 LINE",
"377 279 OFFCURVE",
"347 232 OFFCURVE",
"274 229 CURVE SMOOTH",
"206 227 OFFCURVE",
"155 264 OFFCURVE",
"155 333 CURVE SMOOTH",
"155 400 LINE",
"426 400 LINE SMOOTH",
"511 400 OFFCURVE",
"578 374 OFFCURVE",
"619 338 CURVE",
"589 260 OFFCURVE",
"577 201 OFFCURVE",
"577 147 CURVE SMOOTH",
"577 75 OFFCURVE",
"625 47 OFFCURVE",
"677 47 CURVE SMOOTH",
"738 47 OFFCURVE",
"777 82 OFFCURVE",
"777 155 CURVE SMOOTH",
"777 233 OFFCURVE",
"742 301 OFFCURVE",
"703 346 CURVE",
"722 392 OFFCURVE",
"738 473 OFFCURVE",
"738 547 CURVE",
"738 561 LINE",
"879 561 LINE",
"879 622 LINE",
"-30 622 LINE",
"-30 561 LINE"
);
},
{
closed = 1;
nodes = (
"155 561 LINE",
"659 561 LINE",
"659 543 LINE SMOOTH",
"660 493 OFFCURVE",
"652 441 OFFCURVE",
"642 398 CURVE",
"598 433 OFFCURVE",
"534 467 OFFCURVE",
"421 467 CURVE SMOOTH",
"155 467 LINE"
);
},
{
closed = 1;
nodes = (
"650 184 OFFCURVE",
"658 222 OFFCURVE",
"674 283 CURVE",
"693 252 OFFCURVE",
"705 206 OFFCURVE",
"705 157 CURVE SMOOTH",
"705 125 OFFCURVE",
"695 108 OFFCURVE",
"677 108 CURVE SMOOTH",
"660 108 OFFCURVE",
"650 121 OFFCURVE",
"650 149 CURVE SMOOTH"
);
}
);
};
layerId = "1D9335A4-69BC-4202-817B-D13DAA30F854";
paths = (
{
closed = 1;
nodes = (
"385 -28 OFFCURVE",
"456 37 OFFCURVE",
"456 149 CURVE SMOOTH",
"456 317 LINE",
"387 317 LINE",
"377 279 OFFCURVE",
"347 232 OFFCURVE",
"274 229 CURVE SMOOTH",
"206 227 OFFCURVE",
"155 264 OFFCURVE",
"155 333 CURVE SMOOTH",
"155 400 LINE",
"426 400 LINE SMOOTH",
"511 400 OFFCURVE",
"578 374 OFFCURVE",
"619 338 CURVE",
"589 260 OFFCURVE",
"577 201 OFFCURVE",
"577 147 CURVE SMOOTH",
"577 75 OFFCURVE",
"625 47 OFFCURVE",
"677 47 CURVE SMOOTH",
"738 47 OFFCURVE",
"777 82 OFFCURVE",
"777 155 CURVE SMOOTH",
"777 233 OFFCURVE",
"742 301 OFFCURVE",
"703 346 CURVE",
"722 392 OFFCURVE",
"738 473 OFFCURVE",
"738 547 CURVE",
"738 561 LINE",
"879 561 LINE",
"879 622 LINE",
"-30 622 LINE",
"-30 561 LINE",
"74 561 LINE",
"75 337 LINE SMOOTH",
"75 213 OFFCURVE",
"169 161 OFFCURVE",
"262 161 CURVE SMOOTH",
"318 161 OFFCURVE",
"355 176 OFFCURVE",
"378 200 CURVE",
"378 151 LINE SMOOTH",
"378 73 OFFCURVE",
"332 40 OFFCURVE",
"265 40 CURVE SMOOTH",
"207 40 OFFCURVE",
"163 71 OFFCURVE",
"129 113 CURVE",
"74 64 LINE",
"114 4 OFFCURVE",
"180 -28 OFFCURVE",
"265 -28 CURVE SMOOTH"
);
},
{
closed = 1;
nodes = (
"598 433 OFFCURVE",
"534 467 OFFCURVE",
"421 467 CURVE SMOOTH",
"155 467 LINE",
"155 561 LINE",
"659 561 LINE",
"659 543 LINE SMOOTH",
"660 493 OFFCURVE",
"652 441 OFFCURVE",
"642 398 CURVE"
);
},
{
closed = 1;
nodes = (
"660 108 OFFCURVE",
"650 121 OFFCURVE",
"650 149 CURVE SMOOTH",
"650 184 OFFCURVE",
"658 222 OFFCURVE",
"674 283 CURVE",
"693 252 OFFCURVE",
"705 206 OFFCURVE",
"705 157 CURVE SMOOTH",
"705 125 OFFCURVE",
"695 108 OFFCURVE",
"677 108 CURVE SMOOTH"
);
}
);
width = 869;
},
{
anchors = (
{
name = bottom;
position = "{649, -28}";
},
{
name = top;
position = "{707, 662}";
}
);
layerId = "37631205-D7B2-4E6B-9DD1-7005090CBFCA";
paths = (
{
closed = 1;
nodes = (
"403 -28 OFFCURVE",
"478 38 OFFCURVE",
"478 153 CURVE SMOOTH",
"478 320 LINE",
"354 320 LINE",
"346 277 OFFCURVE",
"316 255 OFFCURVE",
"274 255 CURVE SMOOTH",
"222 255 OFFCURVE",
"196 285 OFFCURVE",
"196 331 CURVE SMOOTH",
"196 355 LINE",
"463 355 LINE SMOOTH",
"538 355 OFFCURVE",
"582 338 OFFCURVE",
"604 322 CURVE",
"559 268 OFFCURVE",
"541 212 OFFCURVE",
"541 176 CURVE SMOOTH",
"541 83 OFFCURVE",
"606 38 OFFCURVE",
"707 38 CURVE SMOOTH",
"799 38 OFFCURVE",
"872 83 OFFCURVE",
"872 182 CURVE SMOOTH",
"872 263 OFFCURVE",
"821 320 OFFCURVE",
"745 362 CURVE",
"760 403 OFFCURVE",
"767 444 OFFCURVE",
"767 490 CURVE SMOOTH",
"767 521 LINE",
"912 521 LINE",
"912 622 LINE",
"-10 622 LINE",
"-10 521 LINE",
"62 521 LINE",
"62 337 LINE SMOOTH",
"62 218 OFFCURVE",
"121 145 OFFCURVE",
"247 145 CURVE SMOOTH",
"289 145 OFFCURVE",
"321 159 OFFCURVE",
"344 180 CURVE",
"344 153 LINE SMOOTH",
"344 110 OFFCURVE",
"319 82 OFFCURVE",
"262 82 CURVE SMOOTH",
"207 82 OFFCURVE",
"177 101 OFFCURVE",
"136 138 CURVE",
"62 62 LINE",
"90 20 OFFCURVE",
"174 -28 OFFCURVE",
"262 -28 CURVE SMOOTH"
);
},
{
closed = 1;
nodes = (
"587 439 OFFCURVE",
"550 455 OFFCURVE",
"463 455 CURVE SMOOTH",
"196 455 LINE",
"196 521 LINE",
"638 521 LINE",
"638 486 LINE SMOOTH",
"638 472 OFFCURVE",
"636 431 OFFCURVE",
"636 411 CURVE"
);
},
{
closed = 1;
nodes = (
"685 148 OFFCURVE",
"674 167 OFFCURVE",
"674 186 CURVE SMOOTH",
"674 200 OFFCURVE",
"677 227 OFFCURVE",
"700 257 CURVE",
"720 237 OFFCURVE",
"740 214 OFFCURVE",
"740 186 CURVE SMOOTH",
"740 167 OFFCURVE",
"729 148 OFFCURVE",
"707 148 CURVE SMOOTH"
);
}
);
width = 902;
}
);
unicode = 11D81;
category = Letter;
userData = {
com.typemytype.robofont.mark = (
0.835,
1,
0.6,
1
);
};
},
{
color = 7;
glyphname = Dda.GGondi;
lastChange = "2021-10-18 08:30:41 +0000";
layers = (
{
anchors = (
{
name = bottom;
position = "{517, -28}";
},
{
name = top;
position = "{565, 656}";
}
);
background = {
anchors = (
{
name = bottom;
position = "{517, -28}";
},
{
name = top;
position = "{565, 656}";
}
);
paths = (
{
closed = 1;
nodes = (
"37 541 OFFCURVE",
"80 506 OFFCURVE",
"130 496 CURVE",
"156 556 LINE",
"132 565 OFFCURVE",
"115 581 OFFCURVE",
"115 609 CURVE SMOOTH",
"115 643 OFFCURVE",
"142 661 OFFCURVE",
"171 661 CURVE SMOOTH",
"201 661 OFFCURVE",
"230 644 OFFCURVE",
"230 605 CURVE SMOOTH",
"230 540 OFFCURVE",
"116 482 OFFCURVE",
"116 377 CURVE SMOOTH",
"116 315 OFFCURVE",
"161 287 OFFCURVE",
"186 279 CURVE",
"155 268 OFFCURVE",
"111 229 OFFCURVE",
"111 155 CURVE SMOOTH",
"111 63 OFFCURVE",
"180 11 OFFCURVE",
"269 11 CURVE SMOOTH",
"330 11 OFFCURVE",
"367 32 OFFCURVE",
"385 51 CURVE",
"344 106 LINE",
"329 94 OFFCURVE",
"307 81 OFFCURVE",
"272 81 CURVE SMOOTH",
"221 81 OFFCURVE",
"189 113 OFFCURVE",
"189 161 CURVE SMOOTH",
"189 220 OFFCURVE",
"228 253 OFFCURVE",
"291 253 CURVE SMOOTH",
"410 253 LINE SMOOTH",
"440 253 OFFCURVE",
"462 252 OFFCURVE",
"477 248 CURVE",
"466 216 OFFCURVE",
"455 171 OFFCURVE",
"455 128 CURVE SMOOTH",
"455 49 OFFCURVE",
"503 18 OFFCURVE",
"556 18 CURVE SMOOTH",
"616 18 OFFCURVE",
"655 52 OFFCURVE",
"655 122 CURVE SMOOTH",
"655 192 OFFCURVE",
"617 245 OFFCURVE",
"566 280 CURVE",
"594 364 OFFCURVE",
"606 452 OFFCURVE",
"606 528 CURVE SMOOTH",
"606 540 OFFCURVE",
"606 550 OFFCURVE",
"605 561 CURVE",
"748 561 LINE",
"748 622 LINE",
"307 622 LINE",
"299 690 OFFCURVE",
"241 727 OFFCURVE",
"171 727 CURVE SMOOTH",
"101 727 OFFCURVE",
"37 687 OFFCURVE",
"37 604 CURVE SMOOTH"
);
},
{
closed = 1;
nodes = (
"194 443 OFFCURVE",
"277 484 OFFCURVE",
"301 561 CURVE",
"527 561 LINE",
"527 547 OFFCURVE",
"527 537 OFFCURVE",
"527 524 CURVE SMOOTH",
"528 465 OFFCURVE",
"521 385 OFFCURVE",
"500 309 CURVE",
"474 317 OFFCURVE",
"444 321 OFFCURVE",
"410 321 CURVE SMOOTH",
"263 321 LINE SMOOTH",
"217 321 OFFCURVE",
"194 342 OFFCURVE",
"194 377 CURVE SMOOTH"
);
},
{
closed = 1;
nodes = (
"528 159 OFFCURVE",
"534 189 OFFCURVE",
"543 218 CURVE",
"567 201 OFFCURVE",
"583 168 OFFCURVE",
"583 124 CURVE SMOOTH",
"583 95 OFFCURVE",
"573 79 OFFCURVE",
"556 79 CURVE SMOOTH",
"538 79 OFFCURVE",
"528 95 OFFCURVE",
"528 130 CURVE SMOOTH"
);
}
);
};
layerId = "1D9335A4-69BC-4202-817B-D13DAA30F854";
paths = (
{
closed = 1;
nodes = (
"330 11 OFFCURVE",
"367 32 OFFCURVE",
"385 51 CURVE",
"344 106 LINE",
"329 94 OFFCURVE",
"307 81 OFFCURVE",
"272 81 CURVE SMOOTH",
"221 81 OFFCURVE",
"189 113 OFFCURVE",
"189 161 CURVE SMOOTH",
"189 220 OFFCURVE",
"228 253 OFFCURVE",
"291 253 CURVE SMOOTH",
"410 253 LINE SMOOTH",
"440 253 OFFCURVE",
"462 252 OFFCURVE",
"477 248 CURVE",
"466 216 OFFCURVE",
"455 171 OFFCURVE",
"455 128 CURVE SMOOTH",
"455 49 OFFCURVE",
"503 18 OFFCURVE",
"556 18 CURVE SMOOTH",
"616 18 OFFCURVE",
"655 52 OFFCURVE",
"655 122 CURVE SMOOTH",
"655 192 OFFCURVE",
"617 245 OFFCURVE",
"566 280 CURVE",
"594 364 OFFCURVE",
"606 452 OFFCURVE",
"606 528 CURVE SMOOTH",
"606 540 OFFCURVE",
"606 550 OFFCURVE",
"605 561 CURVE",
"748 561 LINE",
"748 622 LINE",
"307 622 LINE",
"299 690 OFFCURVE",
"241 727 OFFCURVE",
"171 727 CURVE SMOOTH",
"101 727 OFFCURVE",
"37 687 OFFCURVE",
"37 604 CURVE SMOOTH",
"37 541 OFFCURVE",
"80 506 OFFCURVE",
"130 496 CURVE",
"156 556 LINE",
"132 565 OFFCURVE",
"115 581 OFFCURVE",
"115 609 CURVE SMOOTH",
"115 643 OFFCURVE",
"142 661 OFFCURVE",
"171 661 CURVE SMOOTH",
"201 661 OFFCURVE",
"230 644 OFFCURVE",
"230 605 CURVE SMOOTH",
"230 540 OFFCURVE",
"116 482 OFFCURVE",
"116 377 CURVE SMOOTH",
"116 315 OFFCURVE",
"161 287 OFFCURVE",
"186 279 CURVE",
"155 268 OFFCURVE",
"111 229 OFFCURVE",
"111 155 CURVE SMOOTH",
"111 63 OFFCURVE",
"180 11 OFFCURVE",
"269 11 CURVE SMOOTH"
);
},
{
closed = 1;
nodes = (
"538 79 OFFCURVE",
"528 95 OFFCURVE",
"528 130 CURVE SMOOTH",
"528 159 OFFCURVE",
"534 189 OFFCURVE",
"543 218 CURVE",
"567 201 OFFCURVE",
"583 168 OFFCURVE",
"583 124 CURVE SMOOTH",
"583 95 OFFCURVE",
"573 79 OFFCURVE",
"556 79 CURVE SMOOTH"
);
},
{
closed = 1;
nodes = (
"474 317 OFFCURVE",
"444 321 OFFCURVE",
"410 321 CURVE SMOOTH",
"263 321 LINE SMOOTH",
"217 321 OFFCURVE",
"194 342 OFFCURVE",
"194 377 CURVE SMOOTH",
"194 443 OFFCURVE",
"277 484 OFFCURVE",
"301 561 CURVE",
"527 561 LINE",
"527 547 OFFCURVE",
"527 537 OFFCURVE",
"527 524 CURVE SMOOTH",
"528 465 OFFCURVE",
"521 385 OFFCURVE",
"500 309 CURVE"
);
}
);
width = 738;
},
{
anchors = (
{
name = bottom;
position = "{621, -28}";
},
{
name = top;
position = "{669, 656}";
}
);
layerId = "37631205-D7B2-4E6B-9DD1-7005090CBFCA";
paths = (
{
closed = 1;
nodes = (
"383 12 OFFCURVE",
"444 40 OFFCURVE",
"466 53 CURVE",
"432 150 LINE",
"415 141 OFFCURVE",
"367 122 OFFCURVE",
"312 122 CURVE SMOOTH",
"262 122 OFFCURVE",
"232 157 OFFCURVE",
"232 199 CURVE SMOOTH",
"232 241 OFFCURVE",
"265 270 OFFCURVE",
"309 270 CURVE SMOOTH",
"519 270 LINE SMOOTH",
"531 270 OFFCURVE",
"544 270 OFFCURVE",
"554 269 CURVE",
"528 238 OFFCURVE",
"506 204 OFFCURVE",
"506 160 CURVE SMOOTH",
"506 57 OFFCURVE",
"580 12 OFFCURVE",
"671 12 CURVE SMOOTH",
"763 12 OFFCURVE",
"836 57 OFFCURVE",
"836 156 CURVE SMOOTH",
"836 237 OFFCURVE",
"785 294 OFFCURVE",
"709 333 CURVE",
"724 379 OFFCURVE",
"731 434 OFFCURVE",
"731 480 CURVE SMOOTH",
"731 494 OFFCURVE",
"731 507 OFFCURVE",
"731 521 CURVE",
"876 521 LINE",
"876 622 LINE",
"352 622 LINE",
"339 691 OFFCURVE",
"285 732 OFFCURVE",
"187 732 CURVE SMOOTH",
"73 732 OFFCURVE",
"20 662 OFFCURVE",
"20 586 CURVE SMOOTH",
"20 516 OFFCURVE",
"65 478 OFFCURVE",
"113 458 CURVE",
"170 551 LINE",
"160 559 OFFCURVE",
"149 567 OFFCURVE",
"149 586 CURVE SMOOTH",
"149 606 OFFCURVE",
"163 622 OFFCURVE",
"187 622 CURVE SMOOTH",
"211 622 OFFCURVE",
"225 606 OFFCURVE",
"225 584 CURVE SMOOTH",
"225 527 OFFCURVE",
"123 480 OFFCURVE",
"123 408 CURVE SMOOTH",
"123 373 OFFCURVE",
"138 332 OFFCURVE",
"190 319 CURVE",
"151 301 OFFCURVE",
"105 258 OFFCURVE",
"105 182 CURVE SMOOTH",
"105 63 OFFCURVE",
"192 12 OFFCURVE",
"307 12 CURVE SMOOTH"
);
},
{
closed = 1;
nodes = (
"649 122 OFFCURVE",
"638 141 OFFCURVE",
"638 160 CURVE SMOOTH",
"638 174 OFFCURVE",
"641 195 OFFCURVE",
"664 231 CURVE",
"684 211 OFFCURVE",
"704 188 OFFCURVE",
"704 160 CURVE SMOOTH",
"704 141 OFFCURVE",
"693 122 OFFCURVE",
"671 122 CURVE SMOOTH"
);
},
{
closed = 1;
nodes = (
"561 369 OFFCURVE",
"536 370 OFFCURVE",
"510 370 CURVE SMOOTH",
"309 370 LINE SMOOTH",
"268 370 OFFCURVE",
"258 389 OFFCURVE",
"258 408 CURVE SMOOTH",
"258 441 OFFCURVE",
"304 477 OFFCURVE",
"332 521 CURVE",
"602 521 LINE",
"602 506 OFFCURVE",
"602 491 OFFCURVE",
"602 476 CURVE SMOOTH",
"602 442 OFFCURVE",
"600 406 OFFCURVE",
"591 365 CURVE"
);
}
);
width = 866;
}
);
unicode = 11D82;
category = Letter;
userData = {
com.typemytype.robofont.mark = (
1,
0.6,
0.6,
1
);
};
},
{
color = 9;
glyphname = Ddha.GGondi;
lastChange = "2021-10-18 08:30:41 +0000";
layers = (
{
anchors = (
{
name = bottom;
position = "{551, -28}";
},
{
name = top;
position = "{745, 656}";
}
);
background = {
anchors = (
{
name = bottom;
position = "{551, -28}";
},
{
name = top;
position = "{745, 656}";
}
);
paths = (
{
closed = 1;
nodes = (
"80 561 LINE",
"80 422 LINE SMOOTH",
"80 307 OFFCURVE",
"162 260 OFFCURVE",
"252 260 CURVE SMOOTH",
"328 260 OFFCURVE",
"370 295 OFFCURVE",
"394 333 CURVE",
"424 289 OFFCURVE",
"462 254 OFFCURVE",
"497 227 CURVE",
"464 201 OFFCURVE",
"433 167 OFFCURVE",
"433 112 CURVE SMOOTH",
"433 45 OFFCURVE",
"487 3 OFFCURVE",
"563 3 CURVE SMOOTH",
"640 3 OFFCURVE",
"689 48 OFFCURVE",
"689 112 CURVE SMOOTH",
"689 160 OFFCURVE",
"656 202 OFFCURVE",
"622 228 CURVE",
"693 282 OFFCURVE",
"784 376 OFFCURVE",
"784 554 CURVE SMOOTH",
"784 561 LINE",
"878 561 LINE",
"878 622 LINE",
"-30 622 LINE",
"-30 561 LINE"
);
},
{
closed = 1;
nodes = (
"158 561 LINE",
"322 561 LINE",
"323 507 OFFCURVE",
"335 440 OFFCURVE",
"356 401 CURVE",
"356 399 LINE",
"158 559 LINE"
);
},
{
closed = 1;
nodes = (
"158 498 LINE",
"332 357 LINE",
"314 337 OFFCURVE",
"287 326 OFFCURVE",
"256 326 CURVE SMOOTH",
"196 326 OFFCURVE",
"158 358 OFFCURVE",
"158 422 CURVE SMOOTH"
);
},
{
closed = 1;
nodes = (
"704 561 LINE",
"704 554 LINE SMOOTH",
"704 400 OFFCURVE",
"629 318 OFFCURVE",
"559 263 CURVE",
"490 319 OFFCURVE",
"404 398 OFFCURVE",
"400 561 CURVE"
);
},
{
closed = 1;
nodes = (
"513 150 OFFCURVE",
"532 171 OFFCURVE",
"559 195 CURVE",
"591 176 OFFCURVE",
"611 150 OFFCURVE",
"611 120 CURVE SMOOTH",
"611 93 OFFCURVE",
"592 71 OFFCURVE",
"562 71 CURVE SMOOTH",
"529 71 OFFCURVE",
"513 92 OFFCURVE",
"513 118 CURVE SMOOTH"
);
}
);
};
layerId = "1D9335A4-69BC-4202-817B-D13DAA30F854";
paths = (
{
closed = 1;
nodes = (
"640 3 OFFCURVE",
"689 48 OFFCURVE",
"689 112 CURVE SMOOTH",
"689 160 OFFCURVE",
"656 202 OFFCURVE",
"622 228 CURVE",
"693 282 OFFCURVE",
"784 376 OFFCURVE",
"784 554 CURVE SMOOTH",
"784 561 LINE",
"878 561 LINE",
"878 622 LINE",
"-30 622 LINE",
"-30 561 LINE",
"80 561 LINE",
"80 422 LINE SMOOTH",
"80 307 OFFCURVE",
"162 260 OFFCURVE",
"252 260 CURVE SMOOTH",
"328 260 OFFCURVE",
"370 295 OFFCURVE",
"394 333 CURVE",
"424 289 OFFCURVE",
"462 254 OFFCURVE",
"497 227 CURVE",
"464 201 OFFCURVE",
"433 167 OFFCURVE",
"433 112 CURVE SMOOTH",
"433 45 OFFCURVE",
"487 3 OFFCURVE",
"563 3 CURVE SMOOTH"
);
},
{
closed = 1;
nodes = (
"196 326 OFFCURVE",
"158 358 OFFCURVE",
"158 422 CURVE SMOOTH",
"158 498 LINE",
"332 357 LINE",
"314 337 OFFCURVE",
"287 326 OFFCURVE",
"256 326 CURVE SMOOTH"
);
},
{
closed = 1;
nodes = (
"529 71 OFFCURVE",
"513 92 OFFCURVE",
"513 118 CURVE SMOOTH",
"513 150 OFFCURVE",
"532 171 OFFCURVE",
"559 195 CURVE",
"591 176 OFFCURVE",
"611 150 OFFCURVE",
"611 120 CURVE SMOOTH",
"611 93 OFFCURVE",
"592 71 OFFCURVE",
"562 71 CURVE SMOOTH"
);
},
{
closed = 1;
nodes = (
"158 559 LINE",
"158 561 LINE",
"322 561 LINE",
"323 507 OFFCURVE",
"335 440 OFFCURVE",
"356 401 CURVE",
"356 399 LINE"
);
},
{
closed = 1;
nodes = (
"490 319 OFFCURVE",
"404 398 OFFCURVE",
"400 561 CURVE",
"704 561 LINE",
"704 554 LINE SMOOTH",
"704 400 OFFCURVE",
"629 318 OFFCURVE",
"559 263 CURVE"
);
}
);
width = 848;
},
{
anchors = (
{
name = bottom;
position = "{548, -28}";
},
{
name = top;
position = "{742, 656}";
}
);
layerId = "37631205-D7B2-4E6B-9DD1-7005090CBFCA";
paths = (
{
closed = 1;
nodes = (
"673 3 OFFCURVE",
"732 54 OFFCURVE",
"732 122 CURVE SMOOTH",
"732 175 OFFCURVE",
"701 210 OFFCURVE",
"666 231 CURVE",
"748 299 OFFCURVE",
"794 392 OFFCURVE",
"794 514 CURVE SMOOTH",
"794 521 LINE",
"891 521 LINE",
"891 622 LINE",
"-10 622 LINE",
"-10 521 LINE",
"65 521 LINE",
"65 405 LINE SMOOTH",
"65 281 OFFCURVE",
"151 233 OFFCURVE",
"257 233 CURVE SMOOTH",
"328 233 OFFCURVE",
"380 250 OFFCURVE",
"409 290 CURVE",
"420 273 OFFCURVE",
"446 245 OFFCURVE",
"473 228 CURVE",
"430 202 OFFCURVE",
"409 169 OFFCURVE",
"409 123 CURVE SMOOTH",
"409 55 OFFCURVE",
"464 3 OFFCURVE",
"568 3 CURVE SMOOTH"
);
},
{
closed = 1;
nodes = (
"222 343 OFFCURVE",
"199 368 OFFCURVE",
"199 417 CURVE SMOOTH",
"199 462 LINE",
"329 351 LINE",
"318 345 OFFCURVE",
"306 343 OFFCURVE",
"282 343 CURVE SMOOTH"
);
},
{
closed = 1;
nodes = (
"554 103 OFFCURVE",
"544 118 OFFCURVE",
"544 139 CURVE SMOOTH",
"544 155 OFFCURVE",
"554 177 OFFCURVE",
"569 193 CURVE",
"586 177 OFFCURVE",
"597 155 OFFCURVE",
"597 139 CURVE SMOOTH",
"597 118 OFFCURVE",
"589 103 OFFCURVE",
"570 103 CURVE SMOOTH"
);
},
{
closed = 1;
nodes = (
"203 518 LINE",
"203 521 LINE",
"346 521 LINE",
"346 480 OFFCURVE",
"349 438 OFFCURVE",
"366 386 CURVE",
"364 384 LINE"
);
},
{
closed = 1;
nodes = (
"493 342 OFFCURVE",
"472 417 OFFCURVE",
"472 521 CURVE",
"671 521 LINE",
"671 514 LINE SMOOTH",
"671 417 OFFCURVE",
"638 342 OFFCURVE",
"564 285 CURVE"
);
}
);
width = 881;
}
);
rightKerningGroup = Ya.GGondi;
unicode = 11D83;
category = Letter;
userData = {
com.typemytype.robofont.mark = (
0.835,
1,
0.6,
1
);
};
},
{
color = 9;
glyphname = Nga.GGondi;
lastChange = "2021-10-18 08:30:41 +0000";
layers = (
{
anchors = (
{
name = bottom;
position = "{343, -28}";
},
{
name = top;
position = "{537, 656}";
}
);
background = {
anchors = (
{
name = bottom;
position = "{343, -28}";
},
{
name = top;
position = "{537, 656}";
}
);
paths = (
{
closed = 1;
nodes = (
"-10 536 OFFCURVE",
"47 500 OFFCURVE",
"113 500 CURVE",
"119 565 LINE",
"89 565 OFFCURVE",
"68 583 OFFCURVE",
"68 611 CURVE SMOOTH",
"68 637 OFFCURVE",
"84 661 OFFCURVE",
"121 661 CURVE SMOOTH",
"153 661 OFFCURVE",
"183 640 OFFCURVE",
"183 590 CURVE SMOOTH",
"183 527 OFFCURVE",
"129 488 OFFCURVE",
"129 400 CURVE SMOOTH",
"129 314 OFFCURVE",
"189 259 OFFCURVE",
"282 222 CURVE",
"252 197 OFFCURVE",
"225 163 OFFCURVE",
"225 112 CURVE SMOOTH",
"225 45 OFFCURVE",
"279 3 OFFCURVE",
"355 3 CURVE SMOOTH",
"432 3 OFFCURVE",
"481 48 OFFCURVE",
"481 112 CURVE SMOOTH",
"481 161 OFFCURVE",
"448 203 OFFCURVE",
"413 228 CURVE",
"485 282 OFFCURVE",
"576 377 OFFCURVE",
"576 554 CURVE SMOOTH",
"576 561 LINE",
"679 561 LINE",
"679 622 LINE",
"258 622 LINE",
"245 690 OFFCURVE",
"189 727 OFFCURVE",
"121 727 CURVE SMOOTH",
"53 727 OFFCURVE",
"-10 688 OFFCURVE",
"-10 608 CURVE SMOOTH"
);
},
{
closed = 1;
nodes = (
"207 464 OFFCURVE",
"245 505 OFFCURVE",
"257 561 CURVE",
"496 561 LINE",
"496 554 LINE SMOOTH",
"496 400 OFFCURVE",
"420 317 OFFCURVE",
"348 262 CURVE",
"251 305 OFFCURVE",
"205 338 OFFCURVE",
"205 401 CURVE SMOOTH"
);
},
{
closed = 1;
nodes = (
"305 150 OFFCURVE",
"324 171 OFFCURVE",
"351 195 CURVE",
"383 176 OFFCURVE",
"403 150 OFFCURVE",
"403 120 CURVE SMOOTH",
"403 93 OFFCURVE",
"384 71 OFFCURVE",
"354 71 CURVE SMOOTH",
"321 71 OFFCURVE",
"305 92 OFFCURVE",
"305 118 CURVE SMOOTH"
);
}
);
};
layerId = "1D9335A4-69BC-4202-817B-D13DAA30F854";
paths = (
{
closed = 1;
nodes = (
"432 3 OFFCURVE",
"481 48 OFFCURVE",
"481 112 CURVE SMOOTH",
"481 161 OFFCURVE",
"448 203 OFFCURVE",
"413 228 CURVE",
"485 282 OFFCURVE",
"576 377 OFFCURVE",
"576 554 CURVE SMOOTH",
"576 561 LINE",
"679 561 LINE",
"679 622 LINE",
"258 622 LINE",
"245 690 OFFCURVE",
"189 727 OFFCURVE",
"121 727 CURVE SMOOTH",
"53 727 OFFCURVE",
"-10 688 OFFCURVE",
"-10 608 CURVE SMOOTH",
"-10 536 OFFCURVE",
"47 500 OFFCURVE",
"113 500 CURVE",
"119 565 LINE",
"89 565 OFFCURVE",
"68 583 OFFCURVE",
"68 611 CURVE SMOOTH",
"68 637 OFFCURVE",
"84 661 OFFCURVE",
"121 661 CURVE SMOOTH",
"153 661 OFFCURVE",
"183 640 OFFCURVE",
"183 590 CURVE SMOOTH",
"183 527 OFFCURVE",
"129 488 OFFCURVE",
"129 400 CURVE SMOOTH",
"129 314 OFFCURVE",
"189 259 OFFCURVE",
"282 222 CURVE",
"252 197 OFFCURVE",
"225 163 OFFCURVE",
"225 112 CURVE SMOOTH",
"225 45 OFFCURVE",
"279 3 OFFCURVE",
"355 3 CURVE SMOOTH"
);
},
{
closed = 1;
nodes = (
"321 71 OFFCURVE",
"305 92 OFFCURVE",
"305 118 CURVE SMOOTH",
"305 150 OFFCURVE",
"324 171 OFFCURVE",
"351 195 CURVE",
"383 176 OFFCURVE",
"403 150 OFFCURVE",
"403 120 CURVE SMOOTH",
"403 93 OFFCURVE",
"384 71 OFFCURVE",
"354 71 CURVE SMOOTH"
);
},
{
closed = 1;
nodes = (
"251 305 OFFCURVE",
"205 338 OFFCURVE",
"205 401 CURVE SMOOTH",
"207 464 OFFCURVE",
"245 505 OFFCURVE",
"257 561 CURVE",
"496 561 LINE",
"496 554 LINE SMOOTH",
"496 400 OFFCURVE",
"420 317 OFFCURVE",
"348 262 CURVE"
);
}
);
width = 639;
},
{
anchors = (
{
name = bottom;
position = "{355, -28}";
},
{
name = top;
position = "{549, 656}";
}
);
layerId = "37631205-D7B2-4E6B-9DD1-7005090CBFCA";
paths = (
{
closed = 1;
nodes = (
"486 3 OFFCURVE",
"545 54 OFFCURVE",
"545 122 CURVE SMOOTH",
"545 175 OFFCURVE",
"514 210 OFFCURVE",
"479 231 CURVE",
"561 299 OFFCURVE",
"607 392 OFFCURVE",
"607 514 CURVE SMOOTH",
"607 521 LINE",
"704 521 LINE",
"704 622 LINE",
"322 622 LINE",
"309 691 OFFCURVE",
"255 732 OFFCURVE",
"157 732 CURVE SMOOTH",
"43 732 OFFCURVE",
"-10 662 OFFCURVE",
"-10 586 CURVE SMOOTH",
"-10 516 OFFCURVE",
"35 478 OFFCURVE",
"83 458 CURVE",
"140 551 LINE",
"130 559 OFFCURVE",
"119 567 OFFCURVE",
"119 586 CURVE SMOOTH",
"119 606 OFFCURVE",
"133 622 OFFCURVE",
"157 622 CURVE SMOOTH",
"181 622 OFFCURVE",
"195 606 OFFCURVE",
"195 584 CURVE SMOOTH",
"195 548 OFFCURVE",
"120 476 OFFCURVE",
"120 401 CURVE SMOOTH",
"120 287 OFFCURVE",
"204 259 OFFCURVE",
"286 228 CURVE",
"243 202 OFFCURVE",
"222 169 OFFCURVE",
"222 123 CURVE SMOOTH",
"222 55 OFFCURVE",
"277 3 OFFCURVE",
"381 3 CURVE SMOOTH"
);
},
{
closed = 1;
nodes = (
"367 102 OFFCURVE",
"357 117 OFFCURVE",
"357 138 CURVE SMOOTH",
"357 154 OFFCURVE",
"367 177 OFFCURVE",
"382 193 CURVE",
"399 177 OFFCURVE",
"410 154 OFFCURVE",
"410 138 CURVE SMOOTH",
"410 117 OFFCURVE",
"402 102 OFFCURVE",
"383 102 CURVE SMOOTH"
);
},
{
closed = 1;
nodes = (
"277 326 OFFCURVE",
"248 354 OFFCURVE",
"248 401 CURVE SMOOTH",
"248 454 OFFCURVE",
"286 485 OFFCURVE",
"301 521 CURVE",
"484 521 LINE",
"484 514 LINE SMOOTH",
"484 417 OFFCURVE",
"451 342 OFFCURVE",
"377 285 CURVE"
);
}
);
width = 694;
}
);
rightKerningGroup = Ya.GGondi;
unicode = 11D84;
category = Letter;
userData = {
com.typemytype.robofont.mark = (
0.835,
1,
0.6,
1
);
};
},
{
color = 7;
glyphname = Pa.GGondi;
lastChange = "2021-10-18 08:30:41 +0000";
layers = (
{
anchors = (
{
name = bottom;
position = "{623, -28}";
},
{
name = top;
position = "{680, 656}";
}
);
background = {
anchors = (
{
name = bottom;
position = "{623, -28}";
},
{
name = top;
position = "{680, 656}";
}
);
paths = (
{
closed = 1;
nodes = (
"643 561 LINE",
"643 526 LINE SMOOTH",
"643 476 OFFCURVE",
"636 425 OFFCURVE",
"626 382 CURVE",
"587 412 OFFCURVE",
"526 431 OFFCURVE",
"438 431 CURVE SMOOTH",
"176 431 LINE",
"176 363 LINE",
"243 363 LINE SMOOTH",
"316 363 OFFCURVE",
"378 313 OFFCURVE",
"378 225 CURVE SMOOTH",
"378 150 OFFCURVE",
"325 102 OFFCURVE",
"249 101 CURVE",
"274 115 OFFCURVE",
"291 141 OFFCURVE",
"291 178 CURVE SMOOTH",
"291 237 OFFCURVE",
"239 275 OFFCURVE",
"176 275 CURVE SMOOTH",
"108 275 OFFCURVE",
"61 234 OFFCURVE",
"61 170 CURVE SMOOTH",
"61 93 OFFCURVE",
"140 38 OFFCURVE",
"243 38 CURVE SMOOTH",
"377 38 OFFCURVE",
"458 106 OFFCURVE",
"458 217 CURVE SMOOTH",
"458 286 OFFCURVE",
"424 336 OFFCURVE",
"385 363 CURVE",
"438 363 LINE SMOOTH",
"520 363 OFFCURVE",
"567 346 OFFCURVE",
"603 320 CURVE",
"580 248 OFFCURVE",
"561 195 OFFCURVE",
"561 143 CURVE SMOOTH",
"561 67 OFFCURVE",
"609 38 OFFCURVE",
"661 38 CURVE SMOOTH",
"722 38 OFFCURVE",
"761 75 OFFCURVE",
"761 151 CURVE SMOOTH",
"761 232 OFFCURVE",
"727 293 OFFCURVE",
"688 331 CURVE",
"705 377 OFFCURVE",
"721 458 OFFCURVE",
"721 530 CURVE SMOOTH",
"721 541 OFFCURVE",
"721 551 OFFCURVE",
"720 561 CURVE",
"864 561 LINE",
"864 622 LINE",
"-10 622 LINE",
"-10 561 LINE"
);
},
{
closed = 1;
nodes = (
"136 192 OFFCURVE",
"152 213 OFFCURVE",
"178 213 CURVE SMOOTH",
"205 213 OFFCURVE",
"222 195 OFFCURVE",
"222 167 CURVE SMOOTH",
"222 134 OFFCURVE",
"191 120 OFFCURVE",
"167 119 CURVE",
"146 131 OFFCURVE",
"136 150 OFFCURVE",
"136 170 CURVE SMOOTH"
);
},
{
closed = 1;
nodes = (
"634 178 OFFCURVE",
"642 213 OFFCURVE",
"659 270 CURVE",
"677 245 OFFCURVE",
"689 205 OFFCURVE",
"689 153 CURVE SMOOTH",
"689 118 OFFCURVE",
"679 99 OFFCURVE",
"661 99 CURVE SMOOTH",
"644 99 OFFCURVE",
"634 114 OFFCURVE",
"634 145 CURVE SMOOTH"
);
}
);
};
layerId = "1D9335A4-69BC-4202-817B-D13DAA30F854";
paths = (
{
closed = 1;
nodes = (
"377 38 OFFCURVE",
"458 106 OFFCURVE",
"458 217 CURVE SMOOTH",
"458 286 OFFCURVE",
"424 336 OFFCURVE",
"385 363 CURVE",
"438 363 LINE SMOOTH",
"520 363 OFFCURVE",
"567 346 OFFCURVE",
"603 320 CURVE",
"580 248 OFFCURVE",
"561 195 OFFCURVE",
"561 143 CURVE SMOOTH",
"561 67 OFFCURVE",
"609 38 OFFCURVE",
"661 38 CURVE SMOOTH",
"722 38 OFFCURVE",
"761 75 OFFCURVE",
"761 151 CURVE SMOOTH",
"761 232 OFFCURVE",
"727 293 OFFCURVE",
"688 331 CURVE",
"705 377 OFFCURVE",
"721 458 OFFCURVE",
"721 530 CURVE SMOOTH",
"721 541 OFFCURVE",
"721 551 OFFCURVE",
"720 561 CURVE",
"864 561 LINE",
"864 622 LINE",
"-10 622 LINE",
"-10 561 LINE",
"643 561 LINE",
"643 526 LINE SMOOTH",
"643 476 OFFCURVE",
"636 425 OFFCURVE",
"626 382 CURVE",
"587 412 OFFCURVE",
"526 431 OFFCURVE",
"438 431 CURVE SMOOTH",
"176 431 LINE",
"176 363 LINE",
"243 363 LINE SMOOTH",
"316 363 OFFCURVE",
"378 313 OFFCURVE",
"378 225 CURVE SMOOTH",
"378 150 OFFCURVE",
"325 102 OFFCURVE",
"249 101 CURVE",
"274 115 OFFCURVE",
"291 141 OFFCURVE",
"291 178 CURVE SMOOTH",
"291 237 OFFCURVE",
"239 275 OFFCURVE",
"176 275 CURVE SMOOTH",
"108 275 OFFCURVE",
"61 234 OFFCURVE",
"61 170 CURVE SMOOTH",
"61 93 OFFCURVE",
"140 38 OFFCURVE",
"243 38 CURVE SMOOTH"
);
},
{
closed = 1;
nodes = (
"146 131 OFFCURVE",
"136 150 OFFCURVE",
"136 170 CURVE SMOOTH",
"136 192 OFFCURVE",
"152 213 OFFCURVE",
"178 213 CURVE SMOOTH",
"205 213 OFFCURVE",
"222 195 OFFCURVE",
"222 167 CURVE SMOOTH",
"222 134 OFFCURVE",
"191 120 OFFCURVE",
"167 119 CURVE"
);
},
{
closed = 1;
nodes = (
"644 99 OFFCURVE",
"634 114 OFFCURVE",
"634 145 CURVE SMOOTH",
"634 178 OFFCURVE",
"642 213 OFFCURVE",
"659 270 CURVE",
"677 245 OFFCURVE",
"689 205 OFFCURVE",
"689 153 CURVE SMOOTH",
"689 118 OFFCURVE",
"679 99 OFFCURVE",
"661 99 CURVE SMOOTH"
);
}
);
width = 854;
},
{
anchors = (
{
name = bottom;
position = "{732, -28}";
},
{
name = top;
position = "{789, 656}";
}
);
layerId = "37631205-D7B2-4E6B-9DD1-7005090CBFCA";
paths = (
{
closed = 1;
nodes = (
"432 38 OFFCURVE",
"558 115 OFFCURVE",
"558 252 CURVE SMOOTH",
"558 302 OFFCURVE",
"533 354 OFFCURVE",
"476 384 CURVE",
"523 384 LINE SMOOTH",
"597 384 OFFCURVE",
"634 359 OFFCURVE",
"654 337 CURVE",
"607 286 OFFCURVE",
"588 212 OFFCURVE",
"588 176 CURVE SMOOTH",
"588 83 OFFCURVE",
"653 38 OFFCURVE",
"754 38 CURVE SMOOTH",
"846 38 OFFCURVE",
"919 83 OFFCURVE",
"919 182 CURVE SMOOTH",
"919 263 OFFCURVE",
"870 317 OFFCURVE",
"821 359 CURVE",
"842 400 OFFCURVE",
"854 444 OFFCURVE",
"854 490 CURVE SMOOTH",
"854 500 OFFCURVE",
"854 511 OFFCURVE",
"854 521 CURVE",
"972 521 LINE",
"972 622 LINE",
"-10 622 LINE",
"-10 521 LINE",
"725 521 LINE",
"725 486 LINE SMOOTH",
"725 472 OFFCURVE",
"723 444 OFFCURVE",
"718 431 CURVE",
"670 465 OFFCURVE",
"610 484 OFFCURVE",
"523 484 CURVE SMOOTH",
"226 484 LINE",
"226 384 LINE",
"297 384 LINE SMOOTH",
"378 384 OFFCURVE",
"423 331 OFFCURVE",
"423 256 CURVE SMOOTH",
"423 193 OFFCURVE",
"399 164 OFFCURVE",
"365 152 CURVE",
"380 173 OFFCURVE",
"385 191 OFFCURVE",
"385 221 CURVE SMOOTH",
"385 297 OFFCURVE",
"319 338 OFFCURVE",
"215 338 CURVE SMOOTH",
"118 338 OFFCURVE",
"45 293 OFFCURVE",
"45 194 CURVE SMOOTH",
"45 113 OFFCURVE",
"100 38 OFFCURVE",
"274 38 CURVE SMOOTH"
);
},
{
closed = 1;
nodes = (
"199 142 OFFCURVE",
"177 162 OFFCURVE",
"177 190 CURVE SMOOTH",
"177 209 OFFCURVE",
"188 228 OFFCURVE",
"215 228 CURVE SMOOTH",
"241 228 OFFCURVE",
"252 209 OFFCURVE",
"252 190 CURVE SMOOTH",
"252 176 OFFCURVE",
"246 152 OFFCURVE",
"214 141 CURVE"
);
},
{
closed = 1;
nodes = (
"732 148 OFFCURVE",
"721 167 OFFCURVE",
"721 186 CURVE SMOOTH",
"721 200 OFFCURVE",
"724 227 OFFCURVE",
"747 257 CURVE",
"767 237 OFFCURVE",
"787 214 OFFCURVE",
"787 186 CURVE SMOOTH",
"787 167 OFFCURVE",
"776 148 OFFCURVE",
"754 148 CURVE SMOOTH"
);
}
);
width = 962;
}
);
unicode = 11D85;
category = Letter;
userData = {
com.typemytype.robofont.mark = (
1,
0.6,
0.6,
1
);
};
},
